<svg width="58" height="83" viewBox="0 0 58 83" xmlns="http://www.w3.org/2000/svg"><g id="svgGroup" stroke-linecap="round" fill-rule="evenodd" font-size="9pt" stroke="#b23227" stroke-width="0.05mm" fill="#b23227" style="stroke:#b23227;stroke-width:0.05mm;fill:#b23227"><path d="M 6 83 L 52 83 C 55.3 83 58 80.3 58 77 L 58 6 C 58 2.7 55.3 0 52 0 L 6 0 C 2.7 0 0 2.7 0 6 L 0 77 C 0 80.3 2.7 83 6 83 Z M 3 77 L 3 6 A 3.001 3.001 0 0 1 3.764 3.966 C 4.307 3.367 5.097 3 6 3 L 52 3 A 3.001 3.001 0 0 1 54.034 3.764 C 54.633 4.307 55 5.097 55 6 L 55 77 A 3.001 3.001 0 0 1 54.236 79.034 C 53.693 79.633 52.903 80 52 80 L 6 80 A 3.001 3.001 0 0 1 3.966 79.236 C 3.367 78.693 3 77.903 3 77 Z M 32.3 68.5 L 32.3 63.8 A 1.122 1.122 0 0 1 32.476 63.248 C 33.045 62.263 34.8 61.092 34.8 59.5 A 3.041 3.041 0 0 0 34.09 57.701 C 33.533 56.954 32.797 56.317 32.47 55.742 A 1.111 1.111 0 0 1 32.3 55.2 L 32.3 50.4 A 1.626 1.626 0 0 1 32.776 49.316 C 33.018 49.038 33.32 48.78 33.6 48.5 A 4.084 4.084 0 0 0 34.688 47.59 C 34.927 47.28 35.082 46.919 35.099 46.477 A 2.102 2.102 0 0 0 35.1 46.4 C 35.1 44.8 33.5 44.1 32.8 44.1 A 1.591 1.591 0 0 1 32.329 44.031 C 31.409 43.75 30.992 42.7 29 42.7 C 26.824 42.7 26.528 43.954 25.4 44.088 A 1.687 1.687 0 0 1 25.2 44.1 A 1.498 1.498 0 0 0 24.933 44.127 C 24.24 44.254 23.155 44.839 22.938 45.983 A 2.237 2.237 0 0 0 22.9 46.4 C 22.9 47.28 23.441 47.85 24.116 48.314 A 7.616 7.616 0 0 0 24.4 48.5 C 25 49.1 25.7 49.6 25.7 50.4 L 25.7 55.2 A 1.122 1.122 0 0 1 25.524 55.752 C 24.955 56.737 23.2 57.908 23.2 59.5 A 3.041 3.041 0 0 0 23.91 61.299 C 24.467 62.046 25.203 62.683 25.53 63.258 A 1.111 1.111 0 0 1 25.7 63.8 L 25.7 68.5 A 1.626 1.626 0 0 1 25.224 69.584 C 24.982 69.862 24.68 70.12 24.4 70.4 A 4.084 4.084 0 0 0 23.312 71.31 C 23.073 71.62 22.918 71.981 22.901 72.423 A 2.102 2.102 0 0 0 22.9 72.5 A 2.136 2.136 0 0 0 23.466 73.975 C 23.948 74.499 24.691 74.8 25.5 74.8 C 27.042 74.8 27.191 73.964 28.811 73.903 A 5.061 5.061 0 0 1 29 73.9 C 30.8 73.9 30.9 74.8 32.5 74.8 A 2.886 2.886 0 0 0 34.163 74.3 C 34.731 73.899 35.1 73.277 35.1 72.5 C 35.1 71.62 34.559 71.05 33.884 70.586 A 7.616 7.616 0 0 0 33.6 70.4 C 33 69.8 32.3 69.3 32.3 68.5 Z M 32.3 33 L 32.3 28.3 A 1.122 1.122 0 0 1 32.476 27.748 C 33.045 26.763 34.8 25.592 34.8 24 A 3.041 3.041 0 0 0 34.09 22.201 C 33.533 21.454 32.797 20.817 32.47 20.242 A 1.111 1.111 0 0 1 32.3 19.7 L 32.3 14.9 A 1.626 1.626 0 0 1 32.776 13.816 C 33.018 13.538 33.32 13.28 33.6 13 A 4.084 4.084 0 0 0 34.688 12.09 C 34.927 11.78 35.082 11.419 35.099 10.977 A 2.102 2.102 0 0 0 35.1 10.9 C 35.1 9.3 33.5 8.6 32.8 8.6 A 1.591 1.591 0 0 1 32.329 8.531 C 31.409 8.25 30.992 7.2 29 7.2 C 26.824 7.2 26.528 8.454 25.4 8.588 A 1.687 1.687 0 0 1 25.2 8.6 A 1.498 1.498 0 0 0 24.933 8.627 C 24.24 8.754 23.155 9.339 22.938 10.483 A 2.237 2.237 0 0 0 22.9 10.9 C 22.9 11.78 23.441 12.35 24.116 12.814 A 7.616 7.616 0 0 0 24.4 13 C 25 13.6 25.7 14.1 25.7 14.9 L 25.7 19.7 A 1.122 1.122 0 0 1 25.524 20.252 C 24.955 21.237 23.2 22.408 23.2 24 A 3.041 3.041 0 0 0 23.91 25.799 C 24.467 26.546 25.203 27.183 25.53 27.758 A 1.111 1.111 0 0 1 25.7 28.3 L 25.7 33 A 1.626 1.626 0 0 1 25.224 34.084 C 24.982 34.362 24.68 34.62 24.4 34.9 A 4.084 4.084 0 0 0 23.312 35.81 C 23.073 36.12 22.918 36.481 22.901 36.923 A 2.102 2.102 0 0 0 22.9 37 A 2.136 2.136 0 0 0 23.466 38.475 C 23.948 38.999 24.691 39.3 25.5 39.3 C 27.042 39.3 27.191 38.464 28.811 38.403 A 5.061 5.061 0 0 1 29 38.4 C 30.8 38.4 30.9 39.3 32.5 39.3 A 2.886 2.886 0 0 0 34.163 38.8 C 34.731 38.399 35.1 37.777 35.1 37 C 35.1 36.12 34.559 35.55 33.884 35.086 A 7.616 7.616 0 0 0 33.6 34.9 C 33 34.3 32.3 33.8 32.3 33 Z M 27.5 21 L 27.5 12.8 C 26.9 12.4 26.5 11.7 26.5 11 A 2.18 2.18 0 0 1 27.8 9.069 A 2.76 2.76 0 0 1 29 8.8 A 2.718 2.718 0 0 1 30.468 9.218 A 2.133 2.133 0 0 1 31.5 11 C 31.5 11.7 31.1 12.4 30.5 12.8 L 30.5 21 L 27.5 21 Z M 27.5 56.5 L 27.5 48.3 C 26.9 47.9 26.5 47.2 26.5 46.5 A 2.18 2.18 0 0 1 27.8 44.569 A 2.76 2.76 0 0 1 29 44.3 A 2.718 2.718 0 0 1 30.468 44.718 A 2.133 2.133 0 0 1 31.5 46.5 C 31.5 47.2 31.1 47.9 30.5 48.3 L 30.5 56.5 L 27.5 56.5 Z M 27.5 71.3 L 27.5 62.5 L 30.5 62.5 L 30.5 71.3 A 1.405 1.405 0 0 1 30.362 71.94 C 30.15 72.358 29.696 72.6 29 72.6 A 2.286 2.286 0 0 1 28.434 72.535 C 27.871 72.391 27.562 72.014 27.509 71.476 A 1.766 1.766 0 0 1 27.5 71.3 Z M 27.5 35.8 L 27.5 27 L 30.5 27 L 30.5 35.8 A 1.405 1.405 0 0 1 30.362 36.44 C 30.15 36.858 29.696 37.1 29 37.1 A 2.286 2.286 0 0 1 28.434 37.035 C 27.871 36.891 27.562 36.514 27.509 35.976 A 1.766 1.766 0 0 1 27.5 35.8 Z M 26.7 22 L 31.3 22 C 31.9 22 32.3 22.3 32.3 22.7 C 32.3 23.1 31.9 23.5 31.3 23.5 L 26.7 23.5 A 1.432 1.432 0 0 1 26.271 23.439 C 25.917 23.328 25.7 23.068 25.7 22.7 C 25.7 22.383 25.951 22.129 26.353 22.037 A 1.557 1.557 0 0 1 26.7 22 Z M 26.7 24.5 L 31.3 24.5 C 31.9 24.5 32.3 24.8 32.3 25.2 C 32.3 25.6 31.9 26 31.3 26 L 26.7 26 A 1.432 1.432 0 0 1 26.271 25.939 C 25.917 25.828 25.7 25.568 25.7 25.2 C 25.7 24.883 25.951 24.629 26.353 24.537 A 1.557 1.557 0 0 1 26.7 24.5 Z M 26.7 57.5 L 31.3 57.5 C 31.9 57.5 32.3 57.8 32.3 58.2 C 32.3 58.6 31.9 59 31.3 59 L 26.7 59 A 1.432 1.432 0 0 1 26.271 58.939 C 25.917 58.828 25.7 58.568 25.7 58.2 C 25.7 57.883 25.951 57.629 26.353 57.537 A 1.557 1.557 0 0 1 26.7 57.5 Z M 26.7 60 L 31.3 60 C 31.9 60 32.3 60.3 32.3 60.7 C 32.3 61.1 31.9 61.5 31.3 61.5 L 26.7 61.5 A 1.432 1.432 0 0 1 26.271 61.439 C 25.917 61.328 25.7 61.068 25.7 60.7 C 25.7 60.383 25.951 60.129 26.353 60.037 A 1.557 1.557 0 0 1 26.7 60 Z" vector-effect="non-scaling-stroke"/></g></svg>