<svg width="58" height="83" viewBox="0 0 58 83" xmlns="http://www.w3.org/2000/svg"><g id="svgGroup" stroke-linecap="round" fill-rule="evenodd" font-size="9pt" stroke="#b23227" stroke-width="0.05mm" fill="#b23227" style="stroke:#b23227;stroke-width:0.05mm;fill:#b23227"><path d="M 6 83 L 52 83 C 55.3 83 58 80.3 58 77 L 58 6 C 58 2.7 55.3 0 52 0 L 6 0 C 2.7 0 0 2.7 0 6 L 0 77 C 0 80.3 2.7 83 6 83 Z M 3 77 L 3 6 A 3.001 3.001 0 0 1 3.764 3.966 C 4.307 3.367 5.097 3 6 3 L 52 3 A 3.001 3.001 0 0 1 54.034 3.764 C 54.633 4.307 55 5.097 55 6 L 55 77 A 3.001 3.001 0 0 1 54.236 79.034 C 53.693 79.633 52.903 80 52 80 L 6 80 A 3.001 3.001 0 0 1 3.966 79.236 C 3.367 78.693 3 77.903 3 77 Z M 19.3 36.1 L 24 30.6 A 1.634 1.634 0 0 1 24.932 30.061 C 25.674 29.867 26.566 29.868 27.1 29.2 A 2.348 2.348 0 0 0 27.317 28.894 C 27.976 27.783 27.359 26.624 28 25.8 L 29 24.8 L 29.9 25.8 A 1.948 1.948 0 0 1 30.254 26.88 C 30.318 27.603 30.253 28.42 30.896 29.195 A 2.642 2.642 0 0 0 30.9 29.2 C 31.525 29.981 32.638 29.847 33.429 30.18 A 1.374 1.374 0 0 1 34 30.6 L 38.7 36.1 C 38.7 36.198 38.409 36.394 38.4 36.973 A 1.773 1.773 0 0 0 38.4 37 A 2.136 2.136 0 0 0 38.966 38.475 C 39.448 38.999 40.191 39.3 41 39.3 C 42.542 39.3 42.691 38.464 44.311 38.403 A 5.061 5.061 0 0 1 44.5 38.4 C 46.3 38.4 46.4 39.3 48 39.3 A 2.886 2.886 0 0 0 49.663 38.8 C 50.231 38.399 50.6 37.777 50.6 37 C 50.6 36.12 50.059 35.55 49.384 35.086 A 7.616 7.616 0 0 0 49.1 34.9 C 48.5 34.3 47.8 33.8 47.8 33 L 47.8 28.3 A 1.122 1.122 0 0 1 47.976 27.748 C 48.545 26.763 50.3 25.592 50.3 24 A 3.041 3.041 0 0 0 49.59 22.201 C 49.033 21.454 48.297 20.817 47.97 20.242 A 1.111 1.111 0 0 1 47.8 19.7 L 47.8 14.9 A 1.626 1.626 0 0 1 48.276 13.816 C 48.518 13.538 48.82 13.28 49.1 13 A 4.084 4.084 0 0 0 50.188 12.09 C 50.427 11.78 50.582 11.419 50.599 10.977 A 2.102 2.102 0 0 0 50.6 10.9 C 50.6 9.3 49 8.6 48.3 8.6 A 1.591 1.591 0 0 1 47.829 8.531 C 46.909 8.25 46.492 7.2 44.5 7.2 C 42.324 7.2 42.028 8.454 40.9 8.588 A 1.687 1.687 0 0 1 40.7 8.6 A 1.498 1.498 0 0 0 40.433 8.627 C 39.74 8.754 38.655 9.339 38.438 10.483 A 2.237 2.237 0 0 0 38.4 10.9 C 38.4 11.78 38.941 12.35 39.616 12.814 A 7.616 7.616 0 0 0 39.9 13 C 40.5 13.6 41.2 14.1 41.2 14.9 L 41.2 19.7 A 1.122 1.122 0 0 1 41.024 20.252 C 40.455 21.237 38.7 22.408 38.7 24 A 3.041 3.041 0 0 0 39.41 25.799 C 39.967 26.546 40.703 27.183 41.03 27.758 A 1.111 1.111 0 0 1 41.2 28.3 L 41.2 30.3 L 38.3 26.8 C 37.6 26 38.399 24.702 37.402 23.502 A 2.485 2.485 0 0 0 37.4 23.5 C 36.775 22.719 35.662 22.853 34.871 22.52 A 1.374 1.374 0 0 1 34.3 22.1 L 32.8 20.4 A 1.43 1.43 0 0 1 33.294 19.372 C 33.97 18.695 35.1 18.192 35.1 17 C 35.1 15.6 33.8 14.5 32.5 14.5 A 2.65 2.65 0 0 0 32.037 14.538 C 30.928 14.735 30.714 15.619 29.211 15.695 A 4.186 4.186 0 0 1 29 15.7 A 3.745 3.745 0 0 1 28.481 15.666 C 27.084 15.471 26.939 14.5 25.5 14.5 C 24.2 14.5 22.9 15.6 22.9 17 C 22.9 18.303 24.25 18.783 24.882 19.567 A 1.294 1.294 0 0 1 25.2 20.4 L 23.6 22.1 C 23.052 22.922 21.67 22.576 20.825 23.272 A 1.543 1.543 0 0 0 20.6 23.5 A 2.372 2.372 0 0 0 20.403 23.773 C 19.885 24.613 20.108 25.479 19.941 26.171 A 1.28 1.28 0 0 1 19.6 26.8 L 16.8 30.3 L 16.8 28.3 A 1.122 1.122 0 0 1 16.976 27.748 C 17.545 26.763 19.3 25.592 19.3 24 A 3.041 3.041 0 0 0 18.59 22.201 C 18.033 21.454 17.297 20.817 16.97 20.242 A 1.111 1.111 0 0 1 16.8 19.7 L 16.8 14.9 A 1.626 1.626 0 0 1 17.276 13.816 C 17.518 13.538 17.82 13.28 18.1 13 A 4.084 4.084 0 0 0 19.188 12.09 C 19.427 11.78 19.582 11.419 19.599 10.977 A 2.102 2.102 0 0 0 19.6 10.9 A 2.143 2.143 0 0 0 19.459 10.122 C 19.053 9.071 17.874 8.6 17.3 8.6 A 1.591 1.591 0 0 1 16.829 8.531 C 15.909 8.25 15.492 7.2 13.5 7.2 C 11.324 7.2 11.028 8.454 9.9 8.588 A 1.687 1.687 0 0 1 9.7 8.6 A 1.498 1.498 0 0 0 9.433 8.627 C 8.74 8.754 7.655 9.339 7.438 10.483 A 2.237 2.237 0 0 0 7.4 10.9 C 7.4 11.78 7.941 12.35 8.616 12.814 A 7.616 7.616 0 0 0 8.9 13 C 9.5 13.6 10.2 14.1 10.2 14.9 L 10.2 19.7 A 1.122 1.122 0 0 1 10.024 20.252 C 9.455 21.237 7.7 22.408 7.7 24 A 3.041 3.041 0 0 0 8.41 25.799 C 8.967 26.546 9.703 27.183 10.03 27.758 A 1.111 1.111 0 0 1 10.2 28.3 L 10.2 33 A 1.626 1.626 0 0 1 9.724 34.084 C 9.482 34.362 9.18 34.62 8.9 34.9 A 4.084 4.084 0 0 0 7.812 35.81 C 7.573 36.12 7.418 36.481 7.401 36.923 A 2.102 2.102 0 0 0 7.4 37 A 2.136 2.136 0 0 0 7.966 38.475 C 8.448 38.999 9.191 39.3 10 39.3 C 11.542 39.3 11.691 38.464 13.311 38.403 A 5.061 5.061 0 0 1 13.5 38.4 C 15.3 38.4 15.4 39.3 17 39.3 A 2.886 2.886 0 0 0 18.663 38.8 C 19.231 38.399 19.6 37.777 19.6 37 A 5.894 5.894 0 0 0 19.599 36.896 C 19.595 36.669 19.563 36.538 19.3 36.1 Z M 16.8 68.5 L 16.8 63.8 A 1.122 1.122 0 0 1 16.976 63.248 C 17.545 62.263 19.3 61.092 19.3 59.5 A 3.041 3.041 0 0 0 18.59 57.701 C 18.033 56.954 17.297 56.317 16.97 55.742 A 1.111 1.111 0 0 1 16.8 55.2 L 16.8 53.1 L 19.7 56.6 C 20.4 57.4 19.601 58.698 20.598 59.898 A 2.485 2.485 0 0 0 20.6 59.9 C 21.225 60.681 22.338 60.547 23.129 60.88 A 1.374 1.374 0 0 1 23.7 61.3 L 25.2 63 A 1.43 1.43 0 0 1 24.706 64.028 C 24.03 64.705 22.9 65.208 22.9 66.4 C 22.9 67.8 24.2 68.9 25.5 68.9 A 2.65 2.65 0 0 0 25.963 68.862 C 27.072 68.665 27.286 67.781 28.789 67.705 A 4.186 4.186 0 0 1 29 67.7 A 3.745 3.745 0 0 1 29.519 67.734 C 30.916 67.929 31.061 68.9 32.5 68.9 C 33.8 68.9 35.1 67.8 35.1 66.4 C 35.1 65.097 33.75 64.617 33.118 63.833 A 1.294 1.294 0 0 1 32.8 63 L 34.4 61.3 C 34.948 60.478 36.33 60.824 37.175 60.128 A 1.543 1.543 0 0 0 37.4 59.9 A 2.372 2.372 0 0 0 37.597 59.627 C 38.115 58.787 37.892 57.921 38.059 57.229 A 1.28 1.28 0 0 1 38.4 56.6 L 41.2 53.1 L 41.2 55.2 A 1.122 1.122 0 0 1 41.024 55.752 C 40.455 56.737 38.7 57.908 38.7 59.5 A 3.041 3.041 0 0 0 39.41 61.299 C 39.967 62.046 40.703 62.683 41.03 63.258 A 1.111 1.111 0 0 1 41.2 63.8 L 41.2 68.5 A 1.626 1.626 0 0 1 40.724 69.584 C 40.482 69.862 40.18 70.12 39.9 70.4 A 4.084 4.084 0 0 0 38.812 71.31 C 38.573 71.62 38.418 71.981 38.401 72.423 A 2.102 2.102 0 0 0 38.4 72.5 A 2.136 2.136 0 0 0 38.966 73.975 C 39.448 74.499 40.191 74.8 41 74.8 C 42.542 74.8 42.691 73.964 44.311 73.903 A 5.061 5.061 0 0 1 44.5 73.9 C 46.3 73.9 46.4 74.8 48 74.8 A 2.886 2.886 0 0 0 49.663 74.3 C 50.231 73.899 50.6 73.277 50.6 72.5 C 50.6 71.62 50.059 71.05 49.384 70.586 A 7.616 7.616 0 0 0 49.1 70.4 C 48.5 69.8 47.8 69.3 47.8 68.5 L 47.8 63.8 A 1.122 1.122 0 0 1 47.976 63.248 C 48.545 62.263 50.3 61.092 50.3 59.5 A 3.041 3.041 0 0 0 49.59 57.701 C 49.033 56.954 48.297 56.317 47.97 55.742 A 1.111 1.111 0 0 1 47.8 55.2 L 47.8 50.4 A 1.626 1.626 0 0 1 48.276 49.316 C 48.518 49.038 48.82 48.78 49.1 48.5 A 4.084 4.084 0 0 0 50.188 47.59 C 50.427 47.28 50.582 46.919 50.599 46.477 A 2.102 2.102 0 0 0 50.6 46.4 C 50.6 44.8 49 44.1 48.3 44.1 A 1.591 1.591 0 0 1 47.829 44.031 C 46.909 43.75 46.492 42.7 44.5 42.7 C 42.324 42.7 42.028 43.954 40.9 44.088 A 1.687 1.687 0 0 1 40.7 44.1 A 1.498 1.498 0 0 0 40.433 44.127 C 39.74 44.254 38.655 44.839 38.438 45.983 A 2.237 2.237 0 0 0 38.4 46.4 A 1.858 1.858 0 0 0 38.415 46.625 C 38.442 46.84 38.5 47.077 38.563 47.283 A 4.922 4.922 0 0 0 38.6 47.4 L 34 52.8 A 1.634 1.634 0 0 1 33.068 53.339 C 32.326 53.533 31.434 53.532 30.9 54.2 A 2.348 2.348 0 0 0 30.683 54.506 C 30.024 55.617 30.641 56.776 30 57.6 L 29.1 58.5 L 28.9 58.5 L 28.1 57.6 C 27.3 56.7 28.1 55.4 27.1 54.2 C 26.475 53.419 25.362 53.553 24.571 53.22 A 1.374 1.374 0 0 1 24 52.8 L 19.3 47.3 C 19.4 47 19.6 46.7 19.6 46.4 A 2.143 2.143 0 0 0 19.459 45.622 C 19.053 44.571 17.874 44.1 17.3 44.1 A 1.591 1.591 0 0 1 16.829 44.031 C 15.909 43.75 15.492 42.7 13.5 42.7 C 11.324 42.7 11.028 43.954 9.9 44.088 A 1.687 1.687 0 0 1 9.7 44.1 A 1.498 1.498 0 0 0 9.433 44.127 C 8.74 44.254 7.655 44.839 7.438 45.983 A 2.237 2.237 0 0 0 7.4 46.4 C 7.4 47.28 7.941 47.85 8.616 48.314 A 7.616 7.616 0 0 0 8.9 48.5 C 9.5 49.1 10.2 49.6 10.2 50.4 L 10.2 55.2 A 1.122 1.122 0 0 1 10.024 55.752 C 9.455 56.737 7.7 57.908 7.7 59.5 A 3.041 3.041 0 0 0 8.41 61.299 C 8.967 62.046 9.703 62.683 10.03 63.258 A 1.111 1.111 0 0 1 10.2 63.8 L 10.2 68.5 A 1.626 1.626 0 0 1 9.724 69.584 C 9.482 69.862 9.18 70.12 8.9 70.4 A 4.084 4.084 0 0 0 7.812 71.31 C 7.573 71.62 7.418 71.981 7.401 72.423 A 2.102 2.102 0 0 0 7.4 72.5 A 2.136 2.136 0 0 0 7.966 73.975 C 8.448 74.499 9.191 74.8 10 74.8 C 11.542 74.8 11.691 73.964 13.311 73.903 A 5.061 5.061 0 0 1 13.5 73.9 C 15.3 73.9 15.4 74.8 17 74.8 A 2.886 2.886 0 0 0 18.663 74.3 C 19.231 73.899 19.6 73.277 19.6 72.5 C 19.6 71.62 19.059 71.05 18.384 70.586 A 7.616 7.616 0 0 0 18.1 70.4 C 17.5 69.8 16.8 69.3 16.8 68.5 Z M 25.7 25.7 L 24.1 24.3 L 27.9 19.8 L 27.9 17.6 C 27.9 17.162 28.13 16.724 28.725 16.622 A 1.628 1.628 0 0 1 29 16.6 A 1.505 1.505 0 0 1 29.399 16.649 C 29.902 16.787 30.1 17.194 30.1 17.6 L 30.1 19.8 L 33.9 24.3 L 32.3 25.7 L 29 21.7 L 25.7 25.7 Z M 27.9 65.8 L 27.9 63.6 L 24.1 59.1 L 25.7 57.7 L 29 61.7 L 32.3 57.7 L 33.9 59.1 L 30.1 63.6 L 30.1 65.8 C 30.1 66.238 29.87 66.676 29.275 66.778 A 1.628 1.628 0 0 1 29 66.8 A 1.505 1.505 0 0 1 28.601 66.751 C 28.098 66.613 27.9 66.206 27.9 65.8 Z M 12 21 L 12 12.8 C 11.4 12.4 11 11.7 11 11 A 2.18 2.18 0 0 1 12.3 9.069 A 2.76 2.76 0 0 1 13.5 8.8 A 2.718 2.718 0 0 1 14.968 9.218 A 2.133 2.133 0 0 1 16 11 C 16 11.7 15.6 12.4 15 12.8 L 15 21 L 12 21 Z M 43 21 L 43 12.8 C 42.4 12.4 42 11.7 42 11 A 2.18 2.18 0 0 1 43.3 9.069 A 2.76 2.76 0 0 1 44.5 8.8 A 2.718 2.718 0 0 1 45.968 9.218 A 2.133 2.133 0 0 1 47 11 C 47 11.7 46.6 12.4 46 12.8 L 46 21 L 43 21 Z M 43 56.5 L 43 48.3 C 42.4 47.9 42 47.2 42 46.5 A 2.18 2.18 0 0 1 43.3 44.569 A 2.76 2.76 0 0 1 44.5 44.3 A 2.718 2.718 0 0 1 45.968 44.718 A 2.133 2.133 0 0 1 47 46.5 C 47 47.2 46.6 47.9 46 48.3 L 46 56.5 L 43 56.5 Z M 12 56.5 L 12 48.3 C 11.4 47.9 11 47.2 11 46.5 A 2.18 2.18 0 0 1 12.3 44.569 A 2.76 2.76 0 0 1 13.5 44.3 A 2.718 2.718 0 0 1 14.968 44.718 A 2.133 2.133 0 0 1 16 46.5 C 16 47.2 15.6 47.9 15 48.3 L 15 56.5 L 12 56.5 Z M 43 71.3 L 43 62.5 L 46 62.5 L 46 71.3 A 1.405 1.405 0 0 1 45.862 71.94 C 45.65 72.358 45.196 72.6 44.5 72.6 A 2.286 2.286 0 0 1 43.934 72.535 C 43.371 72.391 43.062 72.014 43.009 71.476 A 1.766 1.766 0 0 1 43 71.3 Z M 12 71.3 L 12 62.5 L 15 62.5 L 15 71.3 A 1.405 1.405 0 0 1 14.862 71.94 C 14.65 72.358 14.196 72.6 13.5 72.6 A 2.286 2.286 0 0 1 12.934 72.535 C 12.371 72.391 12.062 72.014 12.009 71.476 A 1.766 1.766 0 0 1 12 71.3 Z M 12 35.8 L 12 27 L 15 27 L 15 35.8 A 1.405 1.405 0 0 1 14.862 36.44 C 14.65 36.858 14.196 37.1 13.5 37.1 A 2.286 2.286 0 0 1 12.934 37.035 C 12.371 36.891 12.062 36.514 12.009 35.976 A 1.766 1.766 0 0 1 12 35.8 Z M 43 35.8 L 43 27 L 46 27 L 46 35.8 A 1.405 1.405 0 0 1 45.862 36.44 C 45.65 36.858 45.196 37.1 44.5 37.1 A 2.286 2.286 0 0 1 43.934 37.035 C 43.371 36.891 43.062 36.514 43.009 35.976 A 1.766 1.766 0 0 1 43 35.8 Z M 36.2 56.4 L 34.5 55 L 39.8 48.7 A 6.264 6.264 0 0 1 40.614 49.462 A 1.457 1.457 0 0 1 41 50.4 L 41 50.7 L 36.2 56.4 Z M 17 33 L 17 32.7 L 21.8 27 L 23.5 28.4 L 18.2 34.7 A 6.264 6.264 0 0 1 17.386 33.938 A 1.457 1.457 0 0 1 17 33 Z M 39.8 34.7 L 34.5 28.4 L 36.2 27 L 41 32.7 L 41 33 A 1.542 1.542 0 0 1 40.526 34.04 A 7.339 7.339 0 0 1 39.8 34.7 Z M 21.8 56.4 L 17 50.7 L 17 50.4 A 1.542 1.542 0 0 1 17.474 49.36 A 7.339 7.339 0 0 1 18.2 48.7 L 23.5 55 L 21.8 56.4 Z M 11.2 22 L 15.8 22 C 16.4 22 16.8 22.3 16.8 22.7 C 16.8 23.1 16.4 23.5 15.8 23.5 L 11.2 23.5 A 1.432 1.432 0 0 1 10.771 23.439 C 10.417 23.328 10.2 23.068 10.2 22.7 C 10.2 22.383 10.451 22.129 10.853 22.037 A 1.557 1.557 0 0 1 11.2 22 Z M 11.2 24.5 L 15.8 24.5 C 16.4 24.5 16.8 24.8 16.8 25.2 C 16.8 25.6 16.4 26 15.8 26 L 11.2 26 A 1.432 1.432 0 0 1 10.771 25.939 C 10.417 25.828 10.2 25.568 10.2 25.2 C 10.2 24.883 10.451 24.629 10.853 24.537 A 1.557 1.557 0 0 1 11.2 24.5 Z M 11.2 57.5 L 15.8 57.5 C 16.4 57.5 16.8 57.8 16.8 58.2 C 16.8 58.6 16.4 59 15.8 59 L 11.2 59 A 1.432 1.432 0 0 1 10.771 58.939 C 10.417 58.828 10.2 58.568 10.2 58.2 C 10.2 57.883 10.451 57.629 10.853 57.537 A 1.557 1.557 0 0 1 11.2 57.5 Z M 11.2 60 L 15.8 60 C 16.4 60 16.8 60.3 16.8 60.7 C 16.8 61.1 16.4 61.5 15.8 61.5 L 11.2 61.5 A 1.432 1.432 0 0 1 10.771 61.439 C 10.417 61.328 10.2 61.068 10.2 60.7 C 10.2 60.383 10.451 60.129 10.853 60.037 A 1.557 1.557 0 0 1 11.2 60 Z M 42.2 22 L 46.8 22 C 47.4 22 47.8 22.3 47.8 22.7 C 47.8 23.1 47.4 23.5 46.8 23.5 L 42.2 23.5 A 1.432 1.432 0 0 1 41.771 23.439 C 41.417 23.328 41.2 23.068 41.2 22.7 C 41.2 22.383 41.451 22.129 41.853 22.037 A 1.557 1.557 0 0 1 42.2 22 Z M 42.2 24.5 L 46.8 24.5 C 47.4 24.5 47.8 24.8 47.8 25.2 C 47.8 25.6 47.4 26 46.8 26 L 42.2 26 A 1.432 1.432 0 0 1 41.771 25.939 C 41.417 25.828 41.2 25.568 41.2 25.2 C 41.2 24.883 41.451 24.629 41.853 24.537 A 1.557 1.557 0 0 1 42.2 24.5 Z M 42.2 57.5 L 46.8 57.5 C 47.4 57.5 47.8 57.8 47.8 58.2 C 47.8 58.6 47.4 59 46.8 59 L 42.2 59 A 1.432 1.432 0 0 1 41.771 58.939 C 41.417 58.828 41.2 58.568 41.2 58.2 C 41.2 57.883 41.451 57.629 41.853 57.537 A 1.557 1.557 0 0 1 42.2 57.5 Z M 42.2 60 L 46.8 60 C 47.4 60 47.8 60.3 47.8 60.7 C 47.8 61.1 47.4 61.5 46.8 61.5 L 42.2 61.5 A 1.432 1.432 0 0 1 41.771 61.439 C 41.417 61.328 41.2 61.068 41.2 60.7 C 41.2 60.383 41.451 60.129 41.853 60.037 A 1.557 1.557 0 0 1 42.2 60 Z M 32.7 26.6 L 34.7 24.9 A 2.19 2.19 0 0 1 35.005 24.729 C 35.176 24.652 35.334 24.609 35.46 24.601 A 0.66 0.66 0 0 1 35.5 24.6 C 35.9 24.6 36.2 25 36.2 25.3 A 0.67 0.67 0 0 1 36.067 25.694 C 35.979 25.821 35.852 25.948 35.7 26.1 L 33.7 27.8 A 1.074 1.074 0 0 1 33.096 28.086 A 1.338 1.338 0 0 1 32.9 28.1 C 32.649 28.1 32.398 27.96 32.323 27.622 A 1.019 1.019 0 0 1 32.3 27.4 C 32.3 27.237 32.366 27.008 32.553 26.767 A 1.744 1.744 0 0 1 32.7 26.6 Z M 22.3 57.3 L 24.3 55.6 A 1.074 1.074 0 0 1 24.904 55.314 A 1.338 1.338 0 0 1 25.1 55.3 C 25.351 55.3 25.602 55.44 25.677 55.778 A 1.019 1.019 0 0 1 25.7 56 C 25.7 56.163 25.634 56.392 25.447 56.633 A 1.744 1.744 0 0 1 25.3 56.8 L 23.3 58.5 A 2.19 2.19 0 0 1 22.995 58.671 C 22.824 58.748 22.666 58.791 22.54 58.799 A 0.66 0.66 0 0 1 22.5 58.8 C 22.1 58.8 21.8 58.4 21.8 58.1 A 0.67 0.67 0 0 1 21.933 57.706 C 22.021 57.579 22.148 57.452 22.3 57.3 Z M 24.3 27.8 L 22.3 26.1 C 22.057 25.857 21.88 25.68 21.821 25.463 A 0.617 0.617 0 0 1 21.8 25.3 A 0.536 0.536 0 0 1 21.816 25.172 C 21.884 24.898 22.155 24.6 22.5 24.6 A 0.873 0.873 0 0 1 22.69 24.624 C 22.845 24.659 23.029 24.733 23.216 24.847 A 2.312 2.312 0 0 1 23.3 24.9 L 25.3 26.6 A 1.692 1.692 0 0 1 25.489 26.823 C 25.602 26.984 25.662 27.137 25.687 27.266 A 0.721 0.721 0 0 1 25.7 27.4 A 0.991 0.991 0 0 1 25.67 27.65 C 25.645 27.746 25.606 27.825 25.556 27.888 A 0.567 0.567 0 0 1 25.1 28.1 A 1.193 1.193 0 0 1 24.411 27.894 A 0.89 0.89 0 0 1 24.3 27.8 Z M 34.7 58.5 L 32.7 56.8 A 1.692 1.692 0 0 1 32.511 56.577 C 32.398 56.416 32.338 56.263 32.313 56.134 A 0.721 0.721 0 0 1 32.3 56 A 0.991 0.991 0 0 1 32.33 55.75 C 32.355 55.654 32.394 55.575 32.444 55.512 A 0.567 0.567 0 0 1 32.9 55.3 A 1.193 1.193 0 0 1 33.589 55.506 A 0.89 0.89 0 0 1 33.7 55.6 L 35.7 57.3 C 35.943 57.543 36.12 57.72 36.179 57.937 A 0.617 0.617 0 0 1 36.2 58.1 A 0.536 0.536 0 0 1 36.184 58.228 C 36.116 58.502 35.845 58.8 35.5 58.8 A 0.873 0.873 0 0 1 35.31 58.776 C 35.155 58.741 34.971 58.667 34.784 58.553 A 2.312 2.312 0 0 1 34.7 58.5 Z" vector-effect="non-scaling-stroke"/></g></svg>