<svg width="58" height="83" viewBox="0 0 58 83" xmlns="http://www.w3.org/2000/svg"><g id="svgGroup" stroke-linecap="round" fill-rule="evenodd" font-size="9pt" stroke="#000000" stroke-width="0.05mm" fill="#000000" style="stroke:#000000;stroke-width:0.05mm;fill:#000000"><path d="M 6 83 L 52 83 C 55.3 83 58 80.3 58 77 L 58 6 C 58 2.7 55.3 0 52 0 L 6 0 C 2.7 0 0 2.7 0 6 L 0 77 C 0 80.3 2.7 83 6 83 Z M 5.5 81 L 5.5 2 L 7.5 2 L 7.5 81 L 5.5 81 Z M 8.5 81 L 8.5 2 L 10.5 2 L 10.5 81 L 8.5 81 Z M 11.5 81 L 11.5 2 L 13.5 2 L 13.5 81 L 11.5 81 Z M 14.5 81 L 14.5 2 L 16.5 2 L 16.5 81 L 14.5 81 Z M 17.5 81 L 17.5 2 L 19.5 2 L 19.5 81 L 17.5 81 Z M 20.5 81 L 20.5 2 L 22.5 2 L 22.5 81 L 20.5 81 Z M 23.5 81 L 23.5 2 L 25.5 2 L 25.5 81 L 23.5 81 Z M 26.5 81 L 26.5 2 L 28.5 2 L 28.5 81 L 26.5 81 Z M 29.5 81 L 29.5 2 L 31.5 2 L 31.5 81 L 29.5 81 Z M 32.5 81 L 32.5 2 L 34.5 2 L 34.5 81 L 32.5 81 Z M 35.5 81 L 35.5 2 L 37.5 2 L 37.5 81 L 35.5 81 Z M 38.5 81 L 38.5 2 L 40.5 2 L 40.5 81 L 38.5 81 Z M 41.5 81 L 41.5 2 L 43.5 2 L 43.5 81 L 41.5 81 Z M 44.5 81 L 44.5 2 L 46.5 2 L 46.5 81 L 44.5 81 Z M 47.5 81 L 47.5 2 L 49.5 2 L 49.5 81 L 47.5 81 Z M 50.5 81 L 50.5 2 L 52.5 2 L 52.5 81 L 50.5 81 Z M 2 77 L 2 6 C 2 4.3 3 2.9 4.5 2.3 L 4.5 80.7 C 3 80.1 2 78.7 2 77 Z M 53.5 80.7 L 53.5 2.3 C 55 2.9 56 4.3 56 6 L 56 77 C 56 78.7 55 80.1 53.5 80.7 Z" vector-effect="non-scaling-stroke"/></g></svg>