<svg width="58" height="83" viewBox="0 0 58 83" xmlns="http://www.w3.org/2000/svg"><g id="svgGroup" stroke-linecap="round" fill-rule="evenodd" font-size="9pt" stroke="#000" stroke-width="0.05mm" fill="#000" style="stroke:#000;stroke-width:0.05mm;fill:#000"><path d="M 25.1 60.1 A 1.65 1.65 0 0 0 25.514 60.028 C 27.09 59.592 31.096 57.265 32 56 A 1.352 1.352 0 0 0 32.141 55.663 C 32.438 54.687 32.672 52.24 32.844 50.541 A 142.532 142.532 0 0 1 32.9 50 C 33.491 50 33.984 49.903 34.477 49.9 A 3.815 3.815 0 0 1 34.5 49.9 A 24.225 24.225 0 0 1 35.326 49.915 C 36.148 49.943 36.866 50 37.7 50 A 55.46 55.46 0 0 0 38.598 49.994 C 39.808 49.974 40.547 49.897 41.015 49.645 A 1.28 1.28 0 0 0 41.6 49 A 2.955 2.955 0 0 0 41.025 48.418 C 40.417 47.938 39.534 47.516 38.6 47.3 C 37.8 47.1 37.5 47.9 36.7 47.9 A 4.626 4.626 0 0 0 36.443 47.909 C 35.769 47.947 34.588 48.1 33.1 48.1 C 33.2 46.2 33.3 45.5 33.5 44.3 A 4.994 4.994 0 0 1 34.517 43.867 C 35.315 43.615 36.112 43.505 36.569 43.264 A 0.957 0.957 0 0 0 36.8 43.1 C 36.7 42.7 36.3 41.6 35.4 41.6 A 4.419 4.419 0 0 0 33.816 41.922 C 33.363 42.094 32.931 42.308 32.5 42.5 A 11.533 11.533 0 0 1 31.944 42.802 C 31.464 43.042 31.009 43.2 30.5 43.2 C 29.9 43.2 30 43 29.7 42.6 C 31.628 35.947 32.255 37.01 32.298 35.302 A 8.166 8.166 0 0 0 32.3 35.1 A 3.676 3.676 0 0 0 31.259 32.744 C 30.754 32.171 30.177 31.736 29.8 31.5 A 13.982 13.982 0 0 1 29.84 31.801 C 29.888 32.2 29.898 32.459 29.9 32.764 A 38.747 38.747 0 0 1 29.9 33 C 29.9 33.459 29.647 36.79 28.83 40.12 A 29.956 29.956 0 0 1 28.6 41 C 27.788 41.487 26.778 41.908 25.892 42.157 A 8.092 8.092 0 0 1 25.3 42.3 A 1.233 1.233 0 0 1 25.282 42.174 C 25.235 41.665 25.401 40.775 25.652 40.287 A 1.509 1.509 0 0 1 25.7 40.2 A 5.61 5.61 0 0 1 26.418 39.758 C 26.924 39.486 27.43 39.244 27.792 38.805 A 2.013 2.013 0 0 0 28 38.5 A 1.046 1.046 0 0 0 27.744 38.189 C 27.606 38.069 27.43 37.961 27.232 37.877 A 2.151 2.151 0 0 0 26.4 37.7 C 25.5 37.7 25.1 38.6 24.2 38.6 A 2.764 2.764 0 0 1 23.867 38.582 C 23.435 38.529 23.179 38.364 22.889 38.087 A 5.277 5.277 0 0 1 22.8 38 A 58.402 58.402 0 0 1 24.019 36.104 A 22.146 22.146 0 0 1 24.3 35.7 C 25.894 33.262 27.224 31.177 28.785 28.124 A 77.83 77.83 0 0 0 29.1 27.5 A 12.551 12.551 0 0 1 29.749 28.254 C 31.144 29.997 32.787 32.742 33.781 34.588 A 40.915 40.915 0 0 1 34 35 A 3.494 3.494 0 0 1 33.741 35.578 C 33.546 35.932 33.3 36.286 33.05 36.714 A 10.262 10.262 0 0 0 33 36.8 A 6.895 6.895 0 0 0 33.322 36.793 C 33.894 36.766 34.188 36.656 34.7 36.4 C 37.3 40.5 37.8 42.3 38.3 43.6 C 38.56 44.379 38.744 45.008 39.244 45.877 A 10.933 10.933 0 0 0 39.5 46.3 A 32.504 32.504 0 0 1 42.508 47.845 C 43.047 48.155 43.561 48.468 44.044 48.773 A 51.599 51.599 0 0 1 44.4 49 C 46.309 50.162 47.873 51.117 49.15 51.408 A 3.378 3.378 0 0 0 49.9 51.5 A 108.215 108.215 0 0 0 49.081 49.868 C 46.791 45.407 45.794 44.424 44.437 43.44 A 32.945 32.945 0 0 0 44.1 43.2 C 42.7 42.1 40.7 40.7 36.5 34.9 A 5.06 5.06 0 0 0 36.949 34.526 C 37.883 33.665 38.793 32.4 40 32.4 C 40.4 32.4 40.5 32.1 40.5 31.7 C 40.5 30.9 39.3 29.4 38 29.3 A 9.622 9.622 0 0 1 37.803 29.942 C 37.531 30.706 36.95 31.85 35.3 33.5 C 34.5 32.6 33.8 31.4 33.2 30.5 C 34.7 28.4 36 26.1 36.8 24 A 2.01 2.01 0 0 1 36.939 23.764 C 37.336 23.183 37.881 23.04 37.899 22.528 A 0.751 0.751 0 0 0 37.9 22.5 A 1.842 1.842 0 0 0 37.848 22.09 C 37.588 20.965 36.42 19.377 35.8 19.2 A 2.213 2.213 0 0 0 35.484 19.633 C 35.106 20.273 34.689 21.367 34.268 22.602 A 72.488 72.488 0 0 0 34.1 23.1 C 33.4 25.1 32.7 27.3 31.8 28.5 A 24.527 24.527 0 0 0 31.792 28.491 C 31.095 27.695 30.398 26.997 29.9 26.2 C 30.2 25.4 30.6 25 30.6 24.2 A 1.442 1.442 0 0 0 29.811 22.987 C 29.509 22.81 29.159 22.708 28.838 22.7 A 1.625 1.625 0 0 0 28.8 22.7 C 28 22.7 27.3 23.5 26.6 24.5 A 11.576 11.576 0 0 1 25.092 26.329 A 6.33 6.33 0 0 1 24.9 26.5 C 23.008 28.122 19.574 30.474 18.547 31.216 A 7.267 7.267 0 0 0 18.3 31.4 A 1.359 1.359 0 0 0 19.102 31.774 A 2.789 2.789 0 0 0 19.5 31.8 A 4.343 4.343 0 0 0 20.624 31.65 C 21.326 31.465 21.969 31.132 22.7 30.8 A 8.687 8.687 0 0 1 25.242 29.765 A 4.723 4.723 0 0 1 25.7 29.7 C 24.8 32.1 22.6 35.2 21.8 36.2 C 21.026 35.33 17.541 32.122 15.051 31.64 A 3.545 3.545 0 0 0 14.8 31.6 A 3.44 3.44 0 0 0 15.429 33.251 C 15.764 33.757 16.208 34.255 16.698 34.75 A 43.382 43.382 0 0 0 17.9 35.9 A 29.369 29.369 0 0 1 19.002 36.913 C 19.279 37.186 19.531 37.459 19.739 37.733 A 3.629 3.629 0 0 1 20.1 38.3 A 42.484 42.484 0 0 1 17.192 41.671 C 14.734 44.262 11.606 47.081 8.1 49.9 C 12.676 49.003 15.159 47.461 18.655 43.542 A 64.303 64.303 0 0 0 19.9 42.1 C 20.988 41.43 21.586 41.181 22.104 41.118 A 2.42 2.42 0 0 1 22.4 41.1 C 22.761 41.1 22.959 41.1 23.287 41.246 A 2.826 2.826 0 0 1 23.4 41.3 A 8.3 8.3 0 0 1 23.388 41.78 C 23.353 42.392 23.221 42.828 22.809 43.418 A 6.816 6.816 0 0 1 22.6 43.7 C 21 44.4 19.6 45.4 18.2 46.4 C 17.3 47.1 16.4 47.7 15.4 48.3 C 15.7 48.8 16.4 49.1 17.1 49.1 A 2.12 2.12 0 0 0 18.2 48.757 C 18.45 48.607 18.698 48.419 18.956 48.214 A 71.721 71.721 0 0 1 19.6 47.7 A 15.683 15.683 0 0 1 19.912 47.396 C 20.478 46.861 21.148 46.325 21.881 46.084 A 2.753 2.753 0 0 1 22.2 46 A 16.02 16.02 0 0 1 22.518 46.233 C 23.147 46.706 23.815 47.303 23.9 47.9 C 23.2 48.6 13.9 52.8 12.8 52.8 C 11.498 52.8 10.802 52.368 9.585 51.825 A 20.908 20.908 0 0 0 9.3 51.7 C 9.625 52.836 10.41 54.432 11.282 54.994 A 1.148 1.148 0 0 0 11.9 55.2 C 12.6 55.2 13.4 55.3 14.1 55 C 15.621 56.69 17 58.881 18.658 59.518 A 2.606 2.606 0 0 0 19.6 59.7 C 21.405 59.7 22.314 58.072 23.503 55.402 A 150.042 150.042 0 0 0 23.9 54.5 A 14.278 14.278 0 0 0 23.918 54.465 C 24.214 53.867 24.512 53.165 24.852 52.422 A 26.06 26.06 0 0 1 25.6 50.9 A 14.122 14.122 0 0 1 26.505 50.741 C 27.705 50.565 29.088 50.47 30.046 50.325 A 10.932 10.932 0 0 0 30.2 50.3 C 29.749 53.46 27.667 55.234 25.942 56.506 A 67.751 67.751 0 0 1 25.4 56.9 C 24.588 57.622 23.857 58.099 23.722 58.627 A 0.696 0.696 0 0 0 23.7 58.8 A 1.361 1.361 0 0 0 24.563 59.986 A 1.368 1.368 0 0 0 25.1 60.1 Z M 6 83 L 52 83 C 55.3 83 58 80.3 58 77 L 58 6 C 58 2.7 55.3 0 52 0 L 6 0 C 2.7 0 0 2.7 0 6 L 0 77 C 0 80.3 2.7 83 6 83 Z M 3 77 L 3 6 A 3.001 3.001 0 0 1 3.764 3.966 C 4.307 3.367 5.097 3 6 3 L 52 3 A 3.001 3.001 0 0 1 54.034 3.764 C 54.633 4.307 55 5.097 55 6 L 55 77 A 3.001 3.001 0 0 1 54.236 79.034 C 53.693 79.633 52.903 80 52 80 L 6 80 A 3.001 3.001 0 0 1 3.966 79.236 C 3.367 78.693 3 77.903 3 77 Z M 26.3 49.1 C 26.2 48.5 25.7 47.7 25.4 47.1 C 24.943 46.369 24.151 46.64 23.79 45.469 A 3.336 3.336 0 0 1 23.7 45.1 C 24.65 44.15 26.122 43.424 27.408 43.115 A 6.43 6.43 0 0 1 28 43 A 20.231 20.231 0 0 1 27.846 43.511 C 27.509 44.585 27.154 45.445 27.106 45.983 A 1.308 1.308 0 0 0 27.1 46.1 A 0.904 0.904 0 0 0 27.36 45.995 C 27.821 45.735 28.419 45.074 28.909 44.506 A 46.616 46.616 0 0 0 29 44.4 C 29.47 44.588 29.763 44.688 30.876 44.699 A 22.076 22.076 0 0 0 31.1 44.7 A 16.155 16.155 0 0 1 31 46.513 C 30.937 47.082 30.841 47.697 30.7 48.4 C 29.434 48.595 28.358 48.695 26.456 49.069 A 52.144 52.144 0 0 0 26.3 49.1 Z M 39.4 60.3 C 41.4 60.3 44.2 59.1 44.2 56.9 A 2.543 2.543 0 0 0 43.412 55.182 C 42.421 54.131 40.631 53.331 38.841 53.081 A 8.292 8.292 0 0 0 37.7 53 C 36.903 53 36.107 53.063 35.563 53.342 A 1.431 1.431 0 0 0 35.2 53.6 A 30.84 30.84 0 0 1 35.98 54.657 C 37.291 56.52 37.559 57.433 37.9 58.2 C 38.1 58.8 38.3 59.3 38.9 60.2 C 39.098 60.2 39.198 60.298 39.393 60.3 A 0.595 0.595 0 0 0 39.4 60.3 Z M 18.186 56.014 A 5.224 5.224 0 0 0 19.1 56.1 C 20.6 56.1 23.1 51.9 23.1 51.1 A 1.011 1.011 0 0 0 23.03 50.722 C 22.978 50.59 22.895 50.467 22.783 50.348 A 2.225 2.225 0 0 0 22.5 50.1 A 67.537 67.537 0 0 0 20.328 51.147 C 18.378 52.133 16.427 53.264 14.9 54.5 C 15.47 55.07 16.835 55.772 18.186 56.014 Z" vector-effect="non-scaling-stroke"/></g></svg>