<svg width="95.801" height="92.969" viewBox="0 0 95.801 92.969" xmlns="http://www.w3.org/2000/svg"><g id="svgGroup" stroke-linecap="round" fill-rule="evenodd" font-size="9pt" stroke="#000" stroke-width="0.1mm" fill="#000" style="stroke:#000;stroke-width:0.1mm;fill:#000"><path d="M 81.592 61.084 L 81.592 57.471 L 76.611 57.471 L 76.611 83.057 A 6.288 6.288 0 0 0 76.664 83.906 Q 76.791 84.83 77.222 85.291 A 1.373 1.373 0 0 0 77.637 85.596 Q 78.496 86.048 81.115 86.081 A 33.639 33.639 0 0 0 81.543 86.084 Q 83.784 86.084 85.07 85.173 A 3.849 3.849 0 0 0 86.523 83.105 Q 88.086 78.174 88.623 68.066 L 92.285 69.678 A 382.112 382.112 0 0 0 92.221 71.68 Q 92.139 74.5 92.139 76.221 A 51.718 51.718 0 0 0 92.187 78.54 Q 92.347 82.089 93.04 83.543 A 2.346 2.346 0 0 0 93.506 84.229 Q 94.092 84.814 95.801 84.863 Q 95.721 87.322 95.062 88.589 A 3.188 3.188 0 0 1 94.727 89.111 Q 92.92 91.357 82.959 91.357 A 58.483 58.483 0 0 1 79.564 91.267 Q 74.645 90.979 72.686 89.779 A 3.349 3.349 0 0 1 71.924 89.16 Q 70.703 87.793 70.703 84.082 L 70.703 57.471 L 65.723 57.471 L 65.674 58.594 A 46.305 46.305 0 0 1 63.808 69.283 A 32.245 32.245 0 0 1 55.664 83.008 A 33.134 33.134 0 0 1 49.905 87.502 Q 46.932 89.367 43.23 90.989 A 72.612 72.612 0 0 1 38.184 92.969 L 35.693 89.453 Q 51.025 83.252 56.25 72.021 A 36.823 36.823 0 0 0 59.515 57.715 A 41.903 41.903 0 0 0 59.521 57.471 L 55.811 57.471 L 55.811 61.279 L 49.902 61.279 L 49.902 3.076 L 50.928 3.516 L 52.197 4.053 L 54.98 5.273 A 150.616 150.616 0 0 1 55.307 5.414 Q 55.743 5.602 56.059 5.742 A 48.869 48.869 0 0 1 56.104 5.762 L 80.615 5.762 L 84.277 1.758 Q 90.309 6.722 90.609 8.38 A 0.925 0.925 0 0 1 90.625 8.545 Q 90.625 9.277 89.795 9.863 L 87.5 11.426 L 87.5 61.084 L 81.592 61.084 Z M 19.922 57.275 L 3.906 57.275 L 2.49 52.588 L 21.191 52.588 L 21.191 41.602 A 78.222 78.222 0 0 1 23.948 41.858 Q 29.71 42.506 30.599 43.725 A 0.777 0.777 0 0 1 30.762 44.189 Q 30.762 45.361 27.197 46.875 L 27.197 52.588 L 36.377 52.588 L 40.479 47.51 Q 43.848 50.586 46.582 54.395 L 45.02 57.275 L 27.197 57.275 L 27.197 61.133 Q 43.848 68.115 43.848 73.535 A 3.247 3.247 0 0 1 43.325 75.277 Q 42.944 75.888 42.285 76.465 A 8.597 8.597 0 0 1 41.577 77.042 Q 40.775 77.621 40.108 77.748 A 1.942 1.942 0 0 1 39.746 77.783 A 1.574 1.574 0 0 1 38.915 77.528 Q 38.256 77.122 37.598 76.074 A 34.801 34.801 0 0 0 27.299 65.498 A 39.808 39.808 0 0 0 27.197 65.43 L 27.197 92.969 L 21.191 92.969 L 21.191 65.967 Q 13.281 77.539 2.588 85.889 L 0 82.959 A 75.975 75.975 0 0 0 8.046 74.881 A 91.721 91.721 0 0 0 11.768 70.264 A 99.191 99.191 0 0 0 15.876 64.389 Q 18.246 60.709 19.922 57.275 Z M 1.318 35.596 L 14.795 35.596 Q 13.867 35.156 13.721 33.008 Q 13.184 26.758 8.105 21.094 L 10.498 18.701 A 48.282 48.282 0 0 1 14.246 21.8 Q 20.117 27.22 20.117 31.836 Q 20.117 34.302 17.127 35.35 A 9.952 9.952 0 0 1 16.309 35.596 L 27.49 35.596 A 92.473 92.473 0 0 0 31.412 25.365 A 75.119 75.119 0 0 0 33.203 18.604 A 64.579 64.579 0 0 1 36.03 19.564 Q 41.562 21.602 41.832 23.223 A 1.005 1.005 0 0 1 41.846 23.389 A 1.043 1.043 0 0 1 41.45 24.168 Q 40.61 24.926 37.988 25.391 Q 35.645 30.42 32.08 35.596 L 38.379 35.596 L 42.285 30.371 A 53.995 53.995 0 0 1 45.261 33.41 Q 46.728 35.038 47.877 36.622 A 31.91 31.91 0 0 1 48.291 37.207 L 46.68 40.283 L 2.783 40.283 L 1.318 35.596 Z M 3.076 13.184 L 21.191 13.184 L 21.191 0 Q 30.089 0.387 31.154 2.098 A 0.913 0.913 0 0 1 31.299 2.588 A 1.215 1.215 0 0 1 30.992 3.334 Q 30.337 4.159 28.285 5.099 A 26.316 26.316 0 0 1 27.197 5.566 L 27.197 13.184 L 35.986 13.184 L 40.186 7.959 Q 43.213 10.742 46.094 14.99 L 44.482 17.969 L 4.492 17.969 L 3.076 13.184 Z M 55.811 52.783 L 81.592 52.783 L 81.592 41.162 L 55.811 41.162 L 55.811 52.783 Z M 81.592 25.586 L 55.811 25.586 L 55.811 36.475 L 81.592 36.475 L 81.592 25.586 Z M 55.811 10.547 L 55.811 20.898 L 81.592 20.898 L 81.592 10.547 L 55.811 10.547 Z" vector-effect="non-scaling-stroke"/></g></svg>