<?xml version="1.0" encoding="utf-8" ?>
<svg baseProfile="full" height="9cm" version="1.1" width="10.5cm" xmlns="http://www.w3.org/2000/svg" xmlns:ev="http://www.w3.org/2001/xml-events" xmlns:xlink="http://www.w3.org/1999/xlink"><defs /><rect fill="white" height="9cm" width="10.5cm" x="0" y="0" /><g transform="translate(35,20)"><rect fill="gray" height="1cm" stroke="gray" width="1cm" x="1cm" y="0cm" /><rect fill="gray" height="1cm" stroke="gray" width="1cm" x="3cm" y="0cm" /><rect fill="gray" height="1cm" stroke="gray" width="1cm" x="5cm" y="0cm" /><rect fill="gray" height="1cm" stroke="gray" width="1cm" x="7cm" y="0cm" /><rect fill="gray" height="1cm" stroke="gray" width="1cm" x="0cm" y="1cm" /><rect fill="gray" height="1cm" stroke="gray" width="1cm" x="2cm" y="1cm" /><rect fill="gray" height="1cm" stroke="gray" width="1cm" x="4cm" y="1cm" /><rect fill="gray" height="1cm" stroke="gray" width="1cm" x="6cm" y="1cm" /><rect fill="gray" height="1cm" stroke="gray" width="1cm" x="1cm" y="2cm" /><rect fill="gray" height="1cm" stroke="gray" width="1cm" x="3cm" y="2cm" /><rect fill="gray" height="1cm" stroke="gray" width="1cm" x="5cm" y="2cm" /><rect fill="gray" height="1cm" stroke="gray" width="1cm" x="7cm" y="2cm" /><rect fill="gray" height="1cm" stroke="gray" width="1cm" x="0cm" y="3cm" /><rect fill="gray" height="1cm" stroke="gray" width="1cm" x="2cm" y="3cm" /><rect fill="gray" height="1cm" stroke="gray" width="1cm" x="4cm" y="3cm" /><rect fill="gray" height="1cm" stroke="gray" width="1cm" x="6cm" y="3cm" /><rect fill="gray" height="1cm" stroke="gray" width="1cm" x="1cm" y="4cm" /><rect fill="gray" height="1cm" stroke="gray" width="1cm" x="3cm" y="4cm" /><rect fill="gray" height="1cm" stroke="gray" width="1cm" x="5cm" y="4cm" /><rect fill="gray" height="1cm" stroke="gray" width="1cm" x="7cm" y="4cm" /><rect fill="gray" height="1cm" stroke="gray" width="1cm" x="0cm" y="5cm" /><rect fill="gray" height="1cm" stroke="gray" width="1cm" x="2cm" y="5cm" /><rect fill="gray" height="1cm" stroke="gray" width="1cm" x="4cm" y="5cm" /><rect fill="gray" height="1cm" stroke="gray" width="1cm" x="6cm" y="5cm" /><rect fill="gray" height="1cm" stroke="gray" width="1cm" x="1cm" y="6cm" /><rect fill="gray" height="1cm" stroke="gray" width="1cm" x="3cm" y="6cm" /><rect fill="gray" height="1cm" stroke="gray" width="1cm" x="5cm" y="6cm" /><rect fill="gray" height="1cm" stroke="gray" width="1cm" x="7cm" y="6cm" /><rect fill="gray" height="1cm" stroke="gray" width="1cm" x="0cm" y="7cm" /><rect fill="gray" height="1cm" stroke="gray" width="1cm" x="2cm" y="7cm" /><rect fill="gray" height="1cm" stroke="gray" width="1cm" x="4cm" y="7cm" /><rect fill="gray" height="1cm" stroke="gray" width="1cm" x="6cm" y="7cm" /><rect fill="none" height="8cm" stroke="gray" stroke-width="3" width="8cm" x="0" y="0" /><g id="cord" stroke="gray"><text font-family="Serif" font-size="14px" x="-0.3cm" y="0.6cm">8</text><text font-family="Serif" font-size="14px" x="0.4cm" y="8.4cm">a</text><text font-family="Serif" font-size="14px" x="-0.3cm" y="1.6cm">7</text><text font-family="Serif" font-size="14px" x="1.4cm" y="8.4cm">b</text><text font-family="Serif" font-size="14px" x="-0.3cm" y="2.6cm">6</text><text font-family="Serif" font-size="14px" x="2.4cm" y="8.4cm">c</text><text font-family="Serif" font-size="14px" x="-0.3cm" y="3.6cm">5</text><text font-family="Serif" font-size="14px" x="3.4cm" y="8.4cm">d</text><text font-family="Serif" font-size="14px" x="-0.3cm" y="4.6cm">4</text><text font-family="Serif" font-size="14px" x="4.4cm" y="8.4cm">e</text><text font-family="Serif" font-size="14px" x="-0.3cm" y="5.6cm">3</text><text font-family="Serif" font-size="14px" x="5.4cm" y="8.4cm">f</text><text font-family="Serif" font-size="14px" x="-0.3cm" y="6.6cm">2</text><text font-family="Serif" font-size="14px" x="6.4cm" y="8.4cm">g</text><text font-family="Serif" font-size="14px" x="-0.3cm" y="7.6cm">1</text><text font-family="Serif" font-size="14px" x="7.4cm" y="8.4cm">h</text></g><g><text fill="black" font-family="Serif" font-size="30px" x="0.2cm" y="6.8cm">P</text><text fill="black" font-family="Serif" font-size="30px" x="1.2cm" y="6.8cm">P</text><text fill="black" font-family="Serif" font-size="30px" x="2.2cm" y="6.8cm">P</text><text fill="black" font-family="Serif" font-size="30px" x="3.2cm" y="6.8cm">P</text><text fill="black" font-family="Serif" font-size="30px" x="4.2cm" y="6.8cm">P</text><text fill="black" font-family="Serif" font-size="30px" x="5.2cm" y="6.8cm">P</text><text fill="black" font-family="Serif" font-size="30px" x="6.2cm" y="6.8cm">P</text><text fill="black" font-family="Serif" font-size="30px" x="7.2cm" y="6.8cm">P</text><text fill="black" font-family="Serif" font-size="30px" x="1.2cm" y="7.8cm">K</text><text fill="black" font-family="Serif" font-size="30px" x="6.2cm" y="7.8cm">K</text><text fill="black" font-family="Serif" font-size="30px" x="2.2cm" y="7.8cm">B</text><text fill="black" font-family="Serif" font-size="30px" x="5.2cm" y="7.8cm">B</text><text fill="black" font-family="Serif" font-size="30px" x="0.2cm" y="7.8cm">R</text><text fill="black" font-family="Serif" font-size="30px" x="7.2cm" y="7.8cm">R</text><text fill="black" font-family="Serif" font-size="30px" x="3.2cm" y="7.8cm">Q</text><text fill="black" font-family="Serif" font-size="30px" x="4.2cm" y="7.8cm">K</text></g><g transform="rotate(180) translate(-340,-265)"><text fill="black" font-family="Serif" font-size="30px" x="8.2cm" y="5.8cm">P</text><text fill="black" font-family="Serif" font-size="30px" x="7.2cm" y="5.8cm">P</text><text fill="black" font-family="Serif" font-size="30px" x="6.2cm" y="5.8cm">P</text><text fill="black" font-family="Serif" font-size="30px" x="5.2cm" y="5.8cm">P</text><text fill="black" font-family="Serif" font-size="30px" x="4.2cm" y="5.8cm">P</text><text fill="black" font-family="Serif" font-size="30px" x="3.2cm" y="5.8cm">P</text><text fill="black" font-family="Serif" font-size="30px" x="2.2cm" y="5.8cm">P</text><text fill="black" font-family="Serif" font-size="30px" x="1.2cm" y="5.8cm">P</text><text fill="black" font-family="Serif" font-size="30px" x="7.2cm" y="6.8cm">K</text><text fill="black" font-family="Serif" font-size="30px" x="2.2cm" y="6.8cm">K</text><text fill="black" font-family="Serif" font-size="30px" x="6.2cm" y="6.8cm">B</text><text fill="black" font-family="Serif" font-size="30px" x="3.2cm" y="6.8cm">B</text><text fill="black" font-family="Serif" font-size="30px" x="8.2cm" y="6.8cm">R</text><text fill="black" font-family="Serif" font-size="30px" x="1.2cm" y="6.8cm">R</text><text fill="black" font-family="Serif" font-size="30px" x="5.2cm" y="6.8cm">Q</text><text fill="black" font-family="Serif" font-size="30px" x="4.2cm" y="6.8cm">K</text></g></g></svg>