<?xml version="1.0" encoding="utf-8" ?>
<svg baseProfile="full" height="1200.0" version="1.1" width="1440.0" xmlns="http://www.w3.org/2000/svg" xmlns:ev="http://www.w3.org/2001/xml-events" xmlns:xlink="http://www.w3.org/1999/xlink"><defs /><g transform="scale(1.0)"><rect fill="white" height="1200" width="1440" x="0" y="0" /><g transform="translate(30.0,30.0)"><g fill="black" id="hlines" stroke="black"><line stroke-width="3.0" x1="0" x2="180" y1="60" y2="60" /><circle cx="0" cy="60" r="0.84" /><circle cx="180" cy="60" r="0.84" /><line stroke-width="3.0" x1="0" x2="180" y1="120" y2="120" /><circle cx="0" cy="120" r="0.84" /><circle cx="180" cy="120" r="0.84" /></g><g fill="black" id="vline" stroke="black"><line stroke-width="3.0" x1="60" x2="60" y1="0" y2="180" /><circle cx="60" cy="0" r="0.84" /><circle cx="60" cy="180" r="0.84" /><line stroke-width="3.0" x1="120" x2="120" y1="0" y2="180" /><circle cx="120" cy="0" r="0.84" /><circle cx="120" cy="180" r="0.84" /></g><circle cx="90.0" cy="90.0" fill="none" r="24.0" stroke="black" stroke-width="3.0" /></g><rect fill="none" height="240" stroke="gray" width="240" x="0" y="0" /><g transform="translate(270.0,30.0)"><g fill="black" id="hlines" stroke="black"><line stroke-width="3.0" x1="0" x2="180" y1="60" y2="60" /><circle cx="0" cy="60" r="0.84" /><circle cx="180" cy="60" r="0.84" /><line stroke-width="3.0" x1="0" x2="180" y1="120" y2="120" /><circle cx="0" cy="120" r="0.84" /><circle cx="180" cy="120" r="0.84" /></g><g fill="black" id="vline" stroke="black"><line stroke-width="3.0" x1="60" x2="60" y1="0" y2="180" /><circle cx="60" cy="0" r="0.84" /><circle cx="60" cy="180" r="0.84" /><line stroke-width="3.0" x1="120" x2="120" y1="0" y2="180" /><circle cx="120" cy="0" r="0.84" /><circle cx="120" cy="180" r="0.84" /></g><circle cx="90.0" cy="90.0" fill="none" r="24.0" stroke="black" stroke-width="3.0" /></g><rect fill="none" height="240" stroke="gray" width="240" x="240" y="0" /><g transform="translate(510.0,30.0)"><g fill="black" id="hlines" stroke="black"><line stroke-width="3.0" x1="0" x2="180" y1="60" y2="60" /><circle cx="0" cy="60" r="0.84" /><circle cx="180" cy="60" r="0.84" /><line stroke-width="3.0" x1="0" x2="180" y1="120" y2="120" /><circle cx="0" cy="120" r="0.84" /><circle cx="180" cy="120" r="0.84" /></g><g fill="black" id="vline" stroke="black"><line stroke-width="3.0" x1="60" x2="60" y1="0" y2="180" /><circle cx="60" cy="0" r="0.84" /><circle cx="60" cy="180" r="0.84" /><line stroke-width="3.0" x1="120" x2="120" y1="0" y2="180" /><circle cx="120" cy="0" r="0.84" /><circle cx="120" cy="180" r="0.84" /></g><circle cx="90.0" cy="90.0" fill="none" r="24.0" stroke="black" stroke-width="3.0" /></g><rect fill="none" height="240" stroke="gray" width="240" x="480" y="0" /><g transform="translate(750.0,30.0)"><g fill="black" id="hlines" stroke="black"><line stroke-width="3.0" x1="0" x2="180" y1="60" y2="60" /><circle cx="0" cy="60" r="0.84" /><circle cx="180" cy="60" r="0.84" /><line stroke-width="3.0" x1="0" x2="180" y1="120" y2="120" /><circle cx="0" cy="120" r="0.84" /><circle cx="180" cy="120" r="0.84" /></g><g fill="black" id="vline" stroke="black"><line stroke-width="3.0" x1="60" x2="60" y1="0" y2="180" /><circle cx="60" cy="0" r="0.84" /><circle cx="60" cy="180" r="0.84" /><line stroke-width="3.0" x1="120" x2="120" y1="0" y2="180" /><circle cx="120" cy="0" r="0.84" /><circle cx="120" cy="180" r="0.84" /></g><circle cx="90.0" cy="90.0" fill="none" r="24.0" stroke="black" stroke-width="3.0" /></g><rect fill="none" height="240" stroke="gray" width="240" x="720" y="0" /><g transform="translate(990.0,30.0)"><g fill="black" id="hlines" stroke="black"><line stroke-width="3.0" x1="0" x2="180" y1="60" y2="60" /><circle cx="0" cy="60" r="0.84" /><circle cx="180" cy="60" r="0.84" /><line stroke-width="3.0" x1="0" x2="180" y1="120" y2="120" /><circle cx="0" cy="120" r="0.84" /><circle cx="180" cy="120" r="0.84" /></g><g fill="black" id="vline" stroke="black"><line stroke-width="3.0" x1="60" x2="60" y1="0" y2="180" /><circle cx="60" cy="0" r="0.84" /><circle cx="60" cy="180" r="0.84" /><line stroke-width="3.0" x1="120" x2="120" y1="0" y2="180" /><circle cx="120" cy="0" r="0.84" /><circle cx="120" cy="180" r="0.84" /></g><circle cx="90.0" cy="90.0" fill="none" r="24.0" stroke="black" stroke-width="3.0" /></g><rect fill="none" height="240" stroke="gray" width="240" x="960" y="0" /><g transform="translate(1230.0,30.0)"><g fill="black" id="hlines" stroke="black"><line stroke-width="3.0" x1="0" x2="180" y1="60" y2="60" /><circle cx="0" cy="60" r="0.84" /><circle cx="180" cy="60" r="0.84" /><line stroke-width="3.0" x1="0" x2="180" y1="120" y2="120" /><circle cx="0" cy="120" r="0.84" /><circle cx="180" cy="120" r="0.84" /></g><g fill="black" id="vline" stroke="black"><line stroke-width="3.0" x1="60" x2="60" y1="0" y2="180" /><circle cx="60" cy="0" r="0.84" /><circle cx="60" cy="180" r="0.84" /><line stroke-width="3.0" x1="120" x2="120" y1="0" y2="180" /><circle cx="120" cy="0" r="0.84" /><circle cx="120" cy="180" r="0.84" /></g><circle cx="90.0" cy="90.0" fill="none" r="24.0" stroke="black" stroke-width="3.0" /></g><rect fill="none" height="240" stroke="gray" width="240" x="1200" y="0" /><g transform="translate(30.0,270.0)"><g fill="black" id="hlines" stroke="black"><line stroke-width="3.0" x1="0" x2="180" y1="60" y2="60" /><circle cx="0" cy="60" r="0.84" /><circle cx="180" cy="60" r="0.84" /><line stroke-width="3.0" x1="0" x2="180" y1="120" y2="120" /><circle cx="0" cy="120" r="0.84" /><circle cx="180" cy="120" r="0.84" /></g><g fill="black" id="vline" stroke="black"><line stroke-width="3.0" x1="60" x2="60" y1="0" y2="180" /><circle cx="60" cy="0" r="0.84" /><circle cx="60" cy="180" r="0.84" /><line stroke-width="3.0" x1="120" x2="120" y1="0" y2="180" /><circle cx="120" cy="0" r="0.84" /><circle cx="120" cy="180" r="0.84" /></g><circle cx="90.0" cy="90.0" fill="none" r="24.0" stroke="black" stroke-width="3.0" /></g><rect fill="none" height="240" stroke="gray" width="240" x="0" y="240" /><g transform="translate(270.0,270.0)"><g fill="black" id="hlines" stroke="black"><line stroke-width="3.0" x1="0" x2="180" y1="60" y2="60" /><circle cx="0" cy="60" r="0.84" /><circle cx="180" cy="60" r="0.84" /><line stroke-width="3.0" x1="0" x2="180" y1="120" y2="120" /><circle cx="0" cy="120" r="0.84" /><circle cx="180" cy="120" r="0.84" /></g><g fill="black" id="vline" stroke="black"><line stroke-width="3.0" x1="60" x2="60" y1="0" y2="180" /><circle cx="60" cy="0" r="0.84" /><circle cx="60" cy="180" r="0.84" /><line stroke-width="3.0" x1="120" x2="120" y1="0" y2="180" /><circle cx="120" cy="0" r="0.84" /><circle cx="120" cy="180" r="0.84" /></g><circle cx="90.0" cy="90.0" fill="none" r="24.0" stroke="black" stroke-width="3.0" /></g><rect fill="none" height="240" stroke="gray" width="240" x="240" y="240" /><g transform="translate(510.0,270.0)"><g fill="black" id="hlines" stroke="black"><line stroke-width="3.0" x1="0" x2="180" y1="60" y2="60" /><circle cx="0" cy="60" r="0.84" /><circle cx="180" cy="60" r="0.84" /><line stroke-width="3.0" x1="0" x2="180" y1="120" y2="120" /><circle cx="0" cy="120" r="0.84" /><circle cx="180" cy="120" r="0.84" /></g><g fill="black" id="vline" stroke="black"><line stroke-width="3.0" x1="60" x2="60" y1="0" y2="180" /><circle cx="60" cy="0" r="0.84" /><circle cx="60" cy="180" r="0.84" /><line stroke-width="3.0" x1="120" x2="120" y1="0" y2="180" /><circle cx="120" cy="0" r="0.84" /><circle cx="120" cy="180" r="0.84" /></g><circle cx="90.0" cy="90.0" fill="none" r="24.0" stroke="black" stroke-width="3.0" /></g><rect fill="none" height="240" stroke="gray" width="240" x="480" y="240" /><g transform="translate(750.0,270.0)"><g fill="black" id="hlines" stroke="black"><line stroke-width="3.0" x1="0" x2="180" y1="60" y2="60" /><circle cx="0" cy="60" r="0.84" /><circle cx="180" cy="60" r="0.84" /><line stroke-width="3.0" x1="0" x2="180" y1="120" y2="120" /><circle cx="0" cy="120" r="0.84" /><circle cx="180" cy="120" r="0.84" /></g><g fill="black" id="vline" stroke="black"><line stroke-width="3.0" x1="60" x2="60" y1="0" y2="180" /><circle cx="60" cy="0" r="0.84" /><circle cx="60" cy="180" r="0.84" /><line stroke-width="3.0" x1="120" x2="120" y1="0" y2="180" /><circle cx="120" cy="0" r="0.84" /><circle cx="120" cy="180" r="0.84" /></g><circle cx="90.0" cy="90.0" fill="none" r="24.0" stroke="black" stroke-width="3.0" /></g><rect fill="none" height="240" stroke="gray" width="240" x="720" y="240" /><g transform="translate(990.0,270.0)"><g fill="black" id="hlines" stroke="black"><line stroke-width="3.0" x1="0" x2="180" y1="60" y2="60" /><circle cx="0" cy="60" r="0.84" /><circle cx="180" cy="60" r="0.84" /><line stroke-width="3.0" x1="0" x2="180" y1="120" y2="120" /><circle cx="0" cy="120" r="0.84" /><circle cx="180" cy="120" r="0.84" /></g><g fill="black" id="vline" stroke="black"><line stroke-width="3.0" x1="60" x2="60" y1="0" y2="180" /><circle cx="60" cy="0" r="0.84" /><circle cx="60" cy="180" r="0.84" /><line stroke-width="3.0" x1="120" x2="120" y1="0" y2="180" /><circle cx="120" cy="0" r="0.84" /><circle cx="120" cy="180" r="0.84" /></g><circle cx="90.0" cy="90.0" fill="none" r="24.0" stroke="black" stroke-width="3.0" /></g><rect fill="none" height="240" stroke="gray" width="240" x="960" y="240" /><g transform="translate(1230.0,270.0)"><g fill="black" id="hlines" stroke="black"><line stroke-width="3.0" x1="0" x2="180" y1="60" y2="60" /><circle cx="0" cy="60" r="0.84" /><circle cx="180" cy="60" r="0.84" /><line stroke-width="3.0" x1="0" x2="180" y1="120" y2="120" /><circle cx="0" cy="120" r="0.84" /><circle cx="180" cy="120" r="0.84" /></g><g fill="black" id="vline" stroke="black"><line stroke-width="3.0" x1="60" x2="60" y1="0" y2="180" /><circle cx="60" cy="0" r="0.84" /><circle cx="60" cy="180" r="0.84" /><line stroke-width="3.0" x1="120" x2="120" y1="0" y2="180" /><circle cx="120" cy="0" r="0.84" /><circle cx="120" cy="180" r="0.84" /></g><circle cx="90.0" cy="90.0" fill="none" r="24.0" stroke="black" stroke-width="3.0" /></g><rect fill="none" height="240" stroke="gray" width="240" x="1200" y="240" /><g transform="translate(30.0,510.0)"><g fill="black" id="hlines" stroke="black"><line stroke-width="3.0" x1="0" x2="180" y1="60" y2="60" /><circle cx="0" cy="60" r="0.84" /><circle cx="180" cy="60" r="0.84" /><line stroke-width="3.0" x1="0" x2="180" y1="120" y2="120" /><circle cx="0" cy="120" r="0.84" /><circle cx="180" cy="120" r="0.84" /></g><g fill="black" id="vline" stroke="black"><line stroke-width="3.0" x1="60" x2="60" y1="0" y2="180" /><circle cx="60" cy="0" r="0.84" /><circle cx="60" cy="180" r="0.84" /><line stroke-width="3.0" x1="120" x2="120" y1="0" y2="180" /><circle cx="120" cy="0" r="0.84" /><circle cx="120" cy="180" r="0.84" /></g><circle cx="90.0" cy="90.0" fill="none" r="24.0" stroke="black" stroke-width="3.0" /></g><rect fill="none" height="240" stroke="gray" width="240" x="0" y="480" /><g transform="translate(270.0,510.0)"><g fill="black" id="hlines" stroke="black"><line stroke-width="3.0" x1="0" x2="180" y1="60" y2="60" /><circle cx="0" cy="60" r="0.84" /><circle cx="180" cy="60" r="0.84" /><line stroke-width="3.0" x1="0" x2="180" y1="120" y2="120" /><circle cx="0" cy="120" r="0.84" /><circle cx="180" cy="120" r="0.84" /></g><g fill="black" id="vline" stroke="black"><line stroke-width="3.0" x1="60" x2="60" y1="0" y2="180" /><circle cx="60" cy="0" r="0.84" /><circle cx="60" cy="180" r="0.84" /><line stroke-width="3.0" x1="120" x2="120" y1="0" y2="180" /><circle cx="120" cy="0" r="0.84" /><circle cx="120" cy="180" r="0.84" /></g><circle cx="90.0" cy="90.0" fill="none" r="24.0" stroke="black" stroke-width="3.0" /></g><rect fill="none" height="240" stroke="gray" width="240" x="240" y="480" /><g transform="translate(510.0,510.0)"><g fill="black" id="hlines" stroke="black"><line stroke-width="3.0" x1="0" x2="180" y1="60" y2="60" /><circle cx="0" cy="60" r="0.84" /><circle cx="180" cy="60" r="0.84" /><line stroke-width="3.0" x1="0" x2="180" y1="120" y2="120" /><circle cx="0" cy="120" r="0.84" /><circle cx="180" cy="120" r="0.84" /></g><g fill="black" id="vline" stroke="black"><line stroke-width="3.0" x1="60" x2="60" y1="0" y2="180" /><circle cx="60" cy="0" r="0.84" /><circle cx="60" cy="180" r="0.84" /><line stroke-width="3.0" x1="120" x2="120" y1="0" y2="180" /><circle cx="120" cy="0" r="0.84" /><circle cx="120" cy="180" r="0.84" /></g><circle cx="90.0" cy="90.0" fill="none" r="24.0" stroke="black" stroke-width="3.0" /></g><rect fill="none" height="240" stroke="gray" width="240" x="480" y="480" /><g transform="translate(750.0,510.0)"><g fill="black" id="hlines" stroke="black"><line stroke-width="3.0" x1="0" x2="180" y1="60" y2="60" /><circle cx="0" cy="60" r="0.84" /><circle cx="180" cy="60" r="0.84" /><line stroke-width="3.0" x1="0" x2="180" y1="120" y2="120" /><circle cx="0" cy="120" r="0.84" /><circle cx="180" cy="120" r="0.84" /></g><g fill="black" id="vline" stroke="black"><line stroke-width="3.0" x1="60" x2="60" y1="0" y2="180" /><circle cx="60" cy="0" r="0.84" /><circle cx="60" cy="180" r="0.84" /><line stroke-width="3.0" x1="120" x2="120" y1="0" y2="180" /><circle cx="120" cy="0" r="0.84" /><circle cx="120" cy="180" r="0.84" /></g><circle cx="90.0" cy="90.0" fill="none" r="24.0" stroke="black" stroke-width="3.0" /></g><rect fill="none" height="240" stroke="gray" width="240" x="720" y="480" /><g transform="translate(990.0,510.0)"><g fill="black" id="hlines" stroke="black"><line stroke-width="3.0" x1="0" x2="180" y1="60" y2="60" /><circle cx="0" cy="60" r="0.84" /><circle cx="180" cy="60" r="0.84" /><line stroke-width="3.0" x1="0" x2="180" y1="120" y2="120" /><circle cx="0" cy="120" r="0.84" /><circle cx="180" cy="120" r="0.84" /></g><g fill="black" id="vline" stroke="black"><line stroke-width="3.0" x1="60" x2="60" y1="0" y2="180" /><circle cx="60" cy="0" r="0.84" /><circle cx="60" cy="180" r="0.84" /><line stroke-width="3.0" x1="120" x2="120" y1="0" y2="180" /><circle cx="120" cy="0" r="0.84" /><circle cx="120" cy="180" r="0.84" /></g><circle cx="90.0" cy="90.0" fill="none" r="24.0" stroke="black" stroke-width="3.0" /></g><rect fill="none" height="240" stroke="gray" width="240" x="960" y="480" /><g transform="translate(1230.0,510.0)"><g fill="black" id="hlines" stroke="black"><line stroke-width="3.0" x1="0" x2="180" y1="60" y2="60" /><circle cx="0" cy="60" r="0.84" /><circle cx="180" cy="60" r="0.84" /><line stroke-width="3.0" x1="0" x2="180" y1="120" y2="120" /><circle cx="0" cy="120" r="0.84" /><circle cx="180" cy="120" r="0.84" /></g><g fill="black" id="vline" stroke="black"><line stroke-width="3.0" x1="60" x2="60" y1="0" y2="180" /><circle cx="60" cy="0" r="0.84" /><circle cx="60" cy="180" r="0.84" /><line stroke-width="3.0" x1="120" x2="120" y1="0" y2="180" /><circle cx="120" cy="0" r="0.84" /><circle cx="120" cy="180" r="0.84" /></g><circle cx="90.0" cy="90.0" fill="none" r="24.0" stroke="black" stroke-width="3.0" /></g><rect fill="none" height="240" stroke="gray" width="240" x="1200" y="480" /><g transform="translate(30.0,750.0)"><g fill="black" id="hlines" stroke="black"><line stroke-width="3.0" x1="0" x2="180" y1="60" y2="60" /><circle cx="0" cy="60" r="0.84" /><circle cx="180" cy="60" r="0.84" /><line stroke-width="3.0" x1="0" x2="180" y1="120" y2="120" /><circle cx="0" cy="120" r="0.84" /><circle cx="180" cy="120" r="0.84" /></g><g fill="black" id="vline" stroke="black"><line stroke-width="3.0" x1="60" x2="60" y1="0" y2="180" /><circle cx="60" cy="0" r="0.84" /><circle cx="60" cy="180" r="0.84" /><line stroke-width="3.0" x1="120" x2="120" y1="0" y2="180" /><circle cx="120" cy="0" r="0.84" /><circle cx="120" cy="180" r="0.84" /></g><circle cx="90.0" cy="90.0" fill="none" r="24.0" stroke="black" stroke-width="3.0" /></g><rect fill="none" height="240" stroke="gray" width="240" x="0" y="720" /><g transform="translate(270.0,750.0)"><g fill="black" id="hlines" stroke="black"><line stroke-width="3.0" x1="0" x2="180" y1="60" y2="60" /><circle cx="0" cy="60" r="0.84" /><circle cx="180" cy="60" r="0.84" /><line stroke-width="3.0" x1="0" x2="180" y1="120" y2="120" /><circle cx="0" cy="120" r="0.84" /><circle cx="180" cy="120" r="0.84" /></g><g fill="black" id="vline" stroke="black"><line stroke-width="3.0" x1="60" x2="60" y1="0" y2="180" /><circle cx="60" cy="0" r="0.84" /><circle cx="60" cy="180" r="0.84" /><line stroke-width="3.0" x1="120" x2="120" y1="0" y2="180" /><circle cx="120" cy="0" r="0.84" /><circle cx="120" cy="180" r="0.84" /></g><circle cx="90.0" cy="90.0" fill="none" r="24.0" stroke="black" stroke-width="3.0" /></g><rect fill="none" height="240" stroke="gray" width="240" x="240" y="720" /><g transform="translate(510.0,750.0)"><g fill="black" id="hlines" stroke="black"><line stroke-width="3.0" x1="0" x2="180" y1="60" y2="60" /><circle cx="0" cy="60" r="0.84" /><circle cx="180" cy="60" r="0.84" /><line stroke-width="3.0" x1="0" x2="180" y1="120" y2="120" /><circle cx="0" cy="120" r="0.84" /><circle cx="180" cy="120" r="0.84" /></g><g fill="black" id="vline" stroke="black"><line stroke-width="3.0" x1="60" x2="60" y1="0" y2="180" /><circle cx="60" cy="0" r="0.84" /><circle cx="60" cy="180" r="0.84" /><line stroke-width="3.0" x1="120" x2="120" y1="0" y2="180" /><circle cx="120" cy="0" r="0.84" /><circle cx="120" cy="180" r="0.84" /></g><circle cx="90.0" cy="90.0" fill="none" r="24.0" stroke="black" stroke-width="3.0" /></g><rect fill="none" height="240" stroke="gray" width="240" x="480" y="720" /><g transform="translate(750.0,750.0)"><g fill="black" id="hlines" stroke="black"><line stroke-width="3.0" x1="0" x2="180" y1="60" y2="60" /><circle cx="0" cy="60" r="0.84" /><circle cx="180" cy="60" r="0.84" /><line stroke-width="3.0" x1="0" x2="180" y1="120" y2="120" /><circle cx="0" cy="120" r="0.84" /><circle cx="180" cy="120" r="0.84" /></g><g fill="black" id="vline" stroke="black"><line stroke-width="3.0" x1="60" x2="60" y1="0" y2="180" /><circle cx="60" cy="0" r="0.84" /><circle cx="60" cy="180" r="0.84" /><line stroke-width="3.0" x1="120" x2="120" y1="0" y2="180" /><circle cx="120" cy="0" r="0.84" /><circle cx="120" cy="180" r="0.84" /></g><circle cx="90.0" cy="90.0" fill="none" r="24.0" stroke="black" stroke-width="3.0" /></g><rect fill="none" height="240" stroke="gray" width="240" x="720" y="720" /><g transform="translate(990.0,750.0)"><g fill="black" id="hlines" stroke="black"><line stroke-width="3.0" x1="0" x2="180" y1="60" y2="60" /><circle cx="0" cy="60" r="0.84" /><circle cx="180" cy="60" r="0.84" /><line stroke-width="3.0" x1="0" x2="180" y1="120" y2="120" /><circle cx="0" cy="120" r="0.84" /><circle cx="180" cy="120" r="0.84" /></g><g fill="black" id="vline" stroke="black"><line stroke-width="3.0" x1="60" x2="60" y1="0" y2="180" /><circle cx="60" cy="0" r="0.84" /><circle cx="60" cy="180" r="0.84" /><line stroke-width="3.0" x1="120" x2="120" y1="0" y2="180" /><circle cx="120" cy="0" r="0.84" /><circle cx="120" cy="180" r="0.84" /></g><circle cx="90.0" cy="90.0" fill="none" r="24.0" stroke="black" stroke-width="3.0" /></g><rect fill="none" height="240" stroke="gray" width="240" x="960" y="720" /><g transform="translate(1230.0,750.0)"><g fill="black" id="hlines" stroke="black"><line stroke-width="3.0" x1="0" x2="180" y1="60" y2="60" /><circle cx="0" cy="60" r="0.84" /><circle cx="180" cy="60" r="0.84" /><line stroke-width="3.0" x1="0" x2="180" y1="120" y2="120" /><circle cx="0" cy="120" r="0.84" /><circle cx="180" cy="120" r="0.84" /></g><g fill="black" id="vline" stroke="black"><line stroke-width="3.0" x1="60" x2="60" y1="0" y2="180" /><circle cx="60" cy="0" r="0.84" /><circle cx="60" cy="180" r="0.84" /><line stroke-width="3.0" x1="120" x2="120" y1="0" y2="180" /><circle cx="120" cy="0" r="0.84" /><circle cx="120" cy="180" r="0.84" /></g><circle cx="90.0" cy="90.0" fill="none" r="24.0" stroke="black" stroke-width="3.0" /></g><rect fill="none" height="240" stroke="gray" width="240" x="1200" y="720" /><g transform="translate(30.0,990.0)"><g fill="black" id="hlines" stroke="black"><line stroke-width="3.0" x1="0" x2="180" y1="60" y2="60" /><circle cx="0" cy="60" r="0.84" /><circle cx="180" cy="60" r="0.84" /><line stroke-width="3.0" x1="0" x2="180" y1="120" y2="120" /><circle cx="0" cy="120" r="0.84" /><circle cx="180" cy="120" r="0.84" /></g><g fill="black" id="vline" stroke="black"><line stroke-width="3.0" x1="60" x2="60" y1="0" y2="180" /><circle cx="60" cy="0" r="0.84" /><circle cx="60" cy="180" r="0.84" /><line stroke-width="3.0" x1="120" x2="120" y1="0" y2="180" /><circle cx="120" cy="0" r="0.84" /><circle cx="120" cy="180" r="0.84" /></g><circle cx="90.0" cy="90.0" fill="none" r="24.0" stroke="black" stroke-width="3.0" /></g><rect fill="none" height="240" stroke="gray" width="240" x="0" y="960" /><g transform="translate(270.0,990.0)"><g fill="black" id="hlines" stroke="black"><line stroke-width="3.0" x1="0" x2="180" y1="60" y2="60" /><circle cx="0" cy="60" r="0.84" /><circle cx="180" cy="60" r="0.84" /><line stroke-width="3.0" x1="0" x2="180" y1="120" y2="120" /><circle cx="0" cy="120" r="0.84" /><circle cx="180" cy="120" r="0.84" /></g><g fill="black" id="vline" stroke="black"><line stroke-width="3.0" x1="60" x2="60" y1="0" y2="180" /><circle cx="60" cy="0" r="0.84" /><circle cx="60" cy="180" r="0.84" /><line stroke-width="3.0" x1="120" x2="120" y1="0" y2="180" /><circle cx="120" cy="0" r="0.84" /><circle cx="120" cy="180" r="0.84" /></g><circle cx="90.0" cy="90.0" fill="none" r="24.0" stroke="black" stroke-width="3.0" /></g><rect fill="none" height="240" stroke="gray" width="240" x="240" y="960" /><g transform="translate(510.0,990.0)"><g fill="black" id="hlines" stroke="black"><line stroke-width="3.0" x1="0" x2="180" y1="60" y2="60" /><circle cx="0" cy="60" r="0.84" /><circle cx="180" cy="60" r="0.84" /><line stroke-width="3.0" x1="0" x2="180" y1="120" y2="120" /><circle cx="0" cy="120" r="0.84" /><circle cx="180" cy="120" r="0.84" /></g><g fill="black" id="vline" stroke="black"><line stroke-width="3.0" x1="60" x2="60" y1="0" y2="180" /><circle cx="60" cy="0" r="0.84" /><circle cx="60" cy="180" r="0.84" /><line stroke-width="3.0" x1="120" x2="120" y1="0" y2="180" /><circle cx="120" cy="0" r="0.84" /><circle cx="120" cy="180" r="0.84" /></g><circle cx="90.0" cy="90.0" fill="none" r="24.0" stroke="black" stroke-width="3.0" /></g><rect fill="none" height="240" stroke="gray" width="240" x="480" y="960" /><g transform="translate(750.0,990.0)"><g fill="black" id="hlines" stroke="black"><line stroke-width="3.0" x1="0" x2="180" y1="60" y2="60" /><circle cx="0" cy="60" r="0.84" /><circle cx="180" cy="60" r="0.84" /><line stroke-width="3.0" x1="0" x2="180" y1="120" y2="120" /><circle cx="0" cy="120" r="0.84" /><circle cx="180" cy="120" r="0.84" /></g><g fill="black" id="vline" stroke="black"><line stroke-width="3.0" x1="60" x2="60" y1="0" y2="180" /><circle cx="60" cy="0" r="0.84" /><circle cx="60" cy="180" r="0.84" /><line stroke-width="3.0" x1="120" x2="120" y1="0" y2="180" /><circle cx="120" cy="0" r="0.84" /><circle cx="120" cy="180" r="0.84" /></g><circle cx="90.0" cy="90.0" fill="none" r="24.0" stroke="black" stroke-width="3.0" /></g><rect fill="none" height="240" stroke="gray" width="240" x="720" y="960" /><g transform="translate(990.0,990.0)"><g fill="black" id="hlines" stroke="black"><line stroke-width="3.0" x1="0" x2="180" y1="60" y2="60" /><circle cx="0" cy="60" r="0.84" /><circle cx="180" cy="60" r="0.84" /><line stroke-width="3.0" x1="0" x2="180" y1="120" y2="120" /><circle cx="0" cy="120" r="0.84" /><circle cx="180" cy="120" r="0.84" /></g><g fill="black" id="vline" stroke="black"><line stroke-width="3.0" x1="60" x2="60" y1="0" y2="180" /><circle cx="60" cy="0" r="0.84" /><circle cx="60" cy="180" r="0.84" /><line stroke-width="3.0" x1="120" x2="120" y1="0" y2="180" /><circle cx="120" cy="0" r="0.84" /><circle cx="120" cy="180" r="0.84" /></g><circle cx="90.0" cy="90.0" fill="none" r="24.0" stroke="black" stroke-width="3.0" /></g><rect fill="none" height="240" stroke="gray" width="240" x="960" y="960" /><g transform="translate(1230.0,990.0)"><g fill="black" id="hlines" stroke="black"><line stroke-width="3.0" x1="0" x2="180" y1="60" y2="60" /><circle cx="0" cy="60" r="0.84" /><circle cx="180" cy="60" r="0.84" /><line stroke-width="3.0" x1="0" x2="180" y1="120" y2="120" /><circle cx="0" cy="120" r="0.84" /><circle cx="180" cy="120" r="0.84" /></g><g fill="black" id="vline" stroke="black"><line stroke-width="3.0" x1="60" x2="60" y1="0" y2="180" /><circle cx="60" cy="0" r="0.84" /><circle cx="60" cy="180" r="0.84" /><line stroke-width="3.0" x1="120" x2="120" y1="0" y2="180" /><circle cx="120" cy="0" r="0.84" /><circle cx="120" cy="180" r="0.84" /></g><circle cx="90.0" cy="90.0" fill="none" r="24.0" stroke="black" stroke-width="3.0" /></g><rect fill="none" height="240" stroke="gray" width="240" x="1200" y="960" /></g></svg>