<?xml version="1.0" encoding="utf-8" ?>
<svg baseProfile="full" height="720.0" version="1.1" width="960.0" xmlns="http://www.w3.org/2000/svg" xmlns:ev="http://www.w3.org/2001/xml-events" xmlns:xlink="http://www.w3.org/1999/xlink"><defs /><g transform="scale(1.0)"><rect fill="white" height="720" width="960" x="0" y="0" /><g transform="translate(30.0,30.0)"><g fill="black" id="hlines" stroke="black"><line stroke-width="3.0" x1="0" x2="180" y1="60" y2="60" /><circle cx="0" cy="60" r="0.84" /><circle cx="180" cy="60" r="0.84" /><line stroke-width="3.0" x1="0" x2="180" y1="120" y2="120" /><circle cx="0" cy="120" r="0.84" /><circle cx="180" cy="120" r="0.84" /></g><g fill="black" id="vline" stroke="black"><line stroke-width="3.0" x1="60" x2="60" y1="0" y2="180" /><circle cx="60" cy="0" r="0.84" /><circle cx="60" cy="180" r="0.84" /><line stroke-width="3.0" x1="120" x2="120" y1="0" y2="180" /><circle cx="120" cy="0" r="0.84" /><circle cx="120" cy="180" r="0.84" /></g><circle cx="150.0" cy="30.0" fill="none" r="24.0" stroke="black" stroke-width="3.0" /><circle cx="90.0" cy="90.0" fill="none" r="24.0" stroke="black" stroke-width="3.0" /><line stroke="black" stroke-width="3.0" x1="126.0" x2="174.0" y1="66.0" y2="114.0" /><line stroke="black" stroke-width="3.0" x1="126.0" x2="174.0" y1="114.0" y2="66.0" /><circle cx="30.0" cy="150.0" fill="none" r="24.0" stroke="black" stroke-width="3.0" /><line stroke="black" stroke-width="3.0" x1="126.0" x2="174.0" y1="126.0" y2="174.0" /><line stroke="black" stroke-width="3.0" x1="126.0" x2="174.0" y1="174.0" y2="126.0" /></g><rect fill="none" height="240" stroke="gray" width="240" x="0" y="0" /><g transform="translate(270.0,30.0)"><g fill="black" id="hlines" stroke="black"><line stroke-width="3.0" x1="0" x2="180" y1="60" y2="60" /><circle cx="0" cy="60" r="0.84" /><circle cx="180" cy="60" r="0.84" /><line stroke-width="3.0" x1="0" x2="180" y1="120" y2="120" /><circle cx="0" cy="120" r="0.84" /><circle cx="180" cy="120" r="0.84" /></g><g fill="black" id="vline" stroke="black"><line stroke-width="3.0" x1="60" x2="60" y1="0" y2="180" /><circle cx="60" cy="0" r="0.84" /><circle cx="60" cy="180" r="0.84" /><line stroke-width="3.0" x1="120" x2="120" y1="0" y2="180" /><circle cx="120" cy="0" r="0.84" /><circle cx="120" cy="180" r="0.84" /></g><line stroke="black" stroke-width="3.0" x1="6.0" x2="54.0" y1="6.0" y2="54.0" /><line stroke="black" stroke-width="3.0" x1="6.0" x2="54.0" y1="54.0" y2="6.0" /><circle cx="90.0" cy="30.0" fill="none" r="24.0" stroke="black" stroke-width="3.0" /><circle cx="90.0" cy="90.0" fill="none" r="24.0" stroke="black" stroke-width="3.0" /><circle cx="90.0" cy="150.0" fill="none" r="24.0" stroke="black" stroke-width="3.0" /><line stroke="black" stroke-width="3.0" x1="126.0" x2="174.0" y1="126.0" y2="174.0" /><line stroke="black" stroke-width="3.0" x1="126.0" x2="174.0" y1="174.0" y2="126.0" /></g><rect fill="none" height="240" stroke="gray" width="240" x="240" y="0" /><g transform="translate(510.0,30.0)"><g fill="black" id="hlines" stroke="black"><line stroke-width="3.0" x1="0" x2="180" y1="60" y2="60" /><circle cx="0" cy="60" r="0.84" /><circle cx="180" cy="60" r="0.84" /><line stroke-width="3.0" x1="0" x2="180" y1="120" y2="120" /><circle cx="0" cy="120" r="0.84" /><circle cx="180" cy="120" r="0.84" /></g><g fill="black" id="vline" stroke="black"><line stroke-width="3.0" x1="60" x2="60" y1="0" y2="180" /><circle cx="60" cy="0" r="0.84" /><circle cx="60" cy="180" r="0.84" /><line stroke-width="3.0" x1="120" x2="120" y1="0" y2="180" /><circle cx="120" cy="0" r="0.84" /><circle cx="120" cy="180" r="0.84" /></g><circle cx="30.0" cy="30.0" fill="none" r="24.0" stroke="black" stroke-width="3.0" /><line stroke="black" stroke-width="3.0" x1="6.0" x2="54.0" y1="66.0" y2="114.0" /><line stroke="black" stroke-width="3.0" x1="6.0" x2="54.0" y1="114.0" y2="66.0" /><circle cx="90.0" cy="90.0" fill="none" r="24.0" stroke="black" stroke-width="3.0" /><circle cx="150.0" cy="90.0" fill="none" r="24.0" stroke="black" stroke-width="3.0" /><line stroke="black" stroke-width="3.0" x1="6.0" x2="54.0" y1="126.0" y2="174.0" /><line stroke="black" stroke-width="3.0" x1="6.0" x2="54.0" y1="174.0" y2="126.0" /><circle cx="90.0" cy="150.0" fill="none" r="24.0" stroke="black" stroke-width="3.0" /><line stroke="black" stroke-width="3.0" x1="126.0" x2="174.0" y1="126.0" y2="174.0" /><line stroke="black" stroke-width="3.0" x1="126.0" x2="174.0" y1="174.0" y2="126.0" /></g><rect fill="none" height="240" stroke="gray" width="240" x="480" y="0" /><g transform="translate(750.0,30.0)"><g fill="black" id="hlines" stroke="black"><line stroke-width="3.0" x1="0" x2="180" y1="60" y2="60" /><circle cx="0" cy="60" r="0.84" /><circle cx="180" cy="60" r="0.84" /><line stroke-width="3.0" x1="0" x2="180" y1="120" y2="120" /><circle cx="0" cy="120" r="0.84" /><circle cx="180" cy="120" r="0.84" /></g><g fill="black" id="vline" stroke="black"><line stroke-width="3.0" x1="60" x2="60" y1="0" y2="180" /><circle cx="60" cy="0" r="0.84" /><circle cx="60" cy="180" r="0.84" /><line stroke-width="3.0" x1="120" x2="120" y1="0" y2="180" /><circle cx="120" cy="0" r="0.84" /><circle cx="120" cy="180" r="0.84" /></g><circle cx="90.0" cy="30.0" fill="none" r="24.0" stroke="black" stroke-width="3.0" /><line stroke="black" stroke-width="3.0" x1="126.0" x2="174.0" y1="6.0" y2="54.0" /><line stroke="black" stroke-width="3.0" x1="126.0" x2="174.0" y1="54.0" y2="6.0" /><circle cx="90.0" cy="90.0" fill="none" r="24.0" stroke="black" stroke-width="3.0" /><line stroke="black" stroke-width="3.0" x1="6.0" x2="54.0" y1="126.0" y2="174.0" /><line stroke="black" stroke-width="3.0" x1="6.0" x2="54.0" y1="174.0" y2="126.0" /><circle cx="90.0" cy="150.0" fill="none" r="24.0" stroke="black" stroke-width="3.0" /></g><rect fill="none" height="240" stroke="gray" width="240" x="720" y="0" /><g transform="translate(30.0,270.0)"><g fill="black" id="hlines" stroke="black"><line stroke-width="3.0" x1="0" x2="180" y1="60" y2="60" /><circle cx="0" cy="60" r="0.84" /><circle cx="180" cy="60" r="0.84" /><line stroke-width="3.0" x1="0" x2="180" y1="120" y2="120" /><circle cx="0" cy="120" r="0.84" /><circle cx="180" cy="120" r="0.84" /></g><g fill="black" id="vline" stroke="black"><line stroke-width="3.0" x1="60" x2="60" y1="0" y2="180" /><circle cx="60" cy="0" r="0.84" /><circle cx="60" cy="180" r="0.84" /><line stroke-width="3.0" x1="120" x2="120" y1="0" y2="180" /><circle cx="120" cy="0" r="0.84" /><circle cx="120" cy="180" r="0.84" /></g><line stroke="black" stroke-width="3.0" x1="126.0" x2="174.0" y1="6.0" y2="54.0" /><line stroke="black" stroke-width="3.0" x1="126.0" x2="174.0" y1="54.0" y2="6.0" /><circle cx="30.0" cy="90.0" fill="none" r="24.0" stroke="black" stroke-width="3.0" /><circle cx="90.0" cy="90.0" fill="none" r="24.0" stroke="black" stroke-width="3.0" /><circle cx="150.0" cy="90.0" fill="none" r="24.0" stroke="black" stroke-width="3.0" /><line stroke="black" stroke-width="3.0" x1="126.0" x2="174.0" y1="126.0" y2="174.0" /><line stroke="black" stroke-width="3.0" x1="126.0" x2="174.0" y1="174.0" y2="126.0" /></g><rect fill="none" height="240" stroke="gray" width="240" x="0" y="240" /><g transform="translate(270.0,270.0)"><g fill="black" id="hlines" stroke="black"><line stroke-width="3.0" x1="0" x2="180" y1="60" y2="60" /><circle cx="0" cy="60" r="0.84" /><circle cx="180" cy="60" r="0.84" /><line stroke-width="3.0" x1="0" x2="180" y1="120" y2="120" /><circle cx="0" cy="120" r="0.84" /><circle cx="180" cy="120" r="0.84" /></g><g fill="black" id="vline" stroke="black"><line stroke-width="3.0" x1="60" x2="60" y1="0" y2="180" /><circle cx="60" cy="0" r="0.84" /><circle cx="60" cy="180" r="0.84" /><line stroke-width="3.0" x1="120" x2="120" y1="0" y2="180" /><circle cx="120" cy="0" r="0.84" /><circle cx="120" cy="180" r="0.84" /></g><circle cx="150.0" cy="30.0" fill="none" r="24.0" stroke="black" stroke-width="3.0" /><line stroke="black" stroke-width="3.0" x1="6.0" x2="54.0" y1="66.0" y2="114.0" /><line stroke="black" stroke-width="3.0" x1="6.0" x2="54.0" y1="114.0" y2="66.0" /><circle cx="90.0" cy="90.0" fill="none" r="24.0" stroke="black" stroke-width="3.0" /><line stroke="black" stroke-width="3.0" x1="126.0" x2="174.0" y1="66.0" y2="114.0" /><line stroke="black" stroke-width="3.0" x1="126.0" x2="174.0" y1="114.0" y2="66.0" /><circle cx="30.0" cy="150.0" fill="none" r="24.0" stroke="black" stroke-width="3.0" /></g><rect fill="none" height="240" stroke="gray" width="240" x="240" y="240" /><g transform="translate(510.0,270.0)"><g fill="black" id="hlines" stroke="black"><line stroke-width="3.0" x1="0" x2="180" y1="60" y2="60" /><circle cx="0" cy="60" r="0.84" /><circle cx="180" cy="60" r="0.84" /><line stroke-width="3.0" x1="0" x2="180" y1="120" y2="120" /><circle cx="0" cy="120" r="0.84" /><circle cx="180" cy="120" r="0.84" /></g><g fill="black" id="vline" stroke="black"><line stroke-width="3.0" x1="60" x2="60" y1="0" y2="180" /><circle cx="60" cy="0" r="0.84" /><circle cx="60" cy="180" r="0.84" /><line stroke-width="3.0" x1="120" x2="120" y1="0" y2="180" /><circle cx="120" cy="0" r="0.84" /><circle cx="120" cy="180" r="0.84" /></g><line stroke="black" stroke-width="3.0" x1="6.0" x2="54.0" y1="6.0" y2="54.0" /><line stroke="black" stroke-width="3.0" x1="6.0" x2="54.0" y1="54.0" y2="6.0" /><circle cx="90.0" cy="30.0" fill="none" r="24.0" stroke="black" stroke-width="3.0" /><line stroke="black" stroke-width="3.0" x1="126.0" x2="174.0" y1="6.0" y2="54.0" /><line stroke="black" stroke-width="3.0" x1="126.0" x2="174.0" y1="54.0" y2="6.0" /><circle cx="30.0" cy="90.0" fill="none" r="24.0" stroke="black" stroke-width="3.0" /><circle cx="90.0" cy="90.0" fill="none" r="24.0" stroke="black" stroke-width="3.0" /><line stroke="black" stroke-width="3.0" x1="126.0" x2="174.0" y1="66.0" y2="114.0" /><line stroke="black" stroke-width="3.0" x1="126.0" x2="174.0" y1="114.0" y2="66.0" /><circle cx="150.0" cy="150.0" fill="none" r="24.0" stroke="black" stroke-width="3.0" /></g><rect fill="none" height="240" stroke="gray" width="240" x="480" y="240" /><g transform="translate(750.0,270.0)"><g fill="black" id="hlines" stroke="black"><line stroke-width="3.0" x1="0" x2="180" y1="60" y2="60" /><circle cx="0" cy="60" r="0.84" /><circle cx="180" cy="60" r="0.84" /><line stroke-width="3.0" x1="0" x2="180" y1="120" y2="120" /><circle cx="0" cy="120" r="0.84" /><circle cx="180" cy="120" r="0.84" /></g><g fill="black" id="vline" stroke="black"><line stroke-width="3.0" x1="60" x2="60" y1="0" y2="180" /><circle cx="60" cy="0" r="0.84" /><circle cx="60" cy="180" r="0.84" /><line stroke-width="3.0" x1="120" x2="120" y1="0" y2="180" /><circle cx="120" cy="0" r="0.84" /><circle cx="120" cy="180" r="0.84" /></g><line stroke="black" stroke-width="3.0" x1="6.0" x2="54.0" y1="6.0" y2="54.0" /><line stroke="black" stroke-width="3.0" x1="6.0" x2="54.0" y1="54.0" y2="6.0" /><circle cx="90.0" cy="30.0" fill="none" r="24.0" stroke="black" stroke-width="3.0" /><circle cx="90.0" cy="90.0" fill="none" r="24.0" stroke="black" stroke-width="3.0" /><line stroke="black" stroke-width="3.0" x1="6.0" x2="54.0" y1="126.0" y2="174.0" /><line stroke="black" stroke-width="3.0" x1="6.0" x2="54.0" y1="174.0" y2="126.0" /><circle cx="90.0" cy="150.0" fill="none" r="24.0" stroke="black" stroke-width="3.0" /></g><rect fill="none" height="240" stroke="gray" width="240" x="720" y="240" /><g transform="translate(30.0,510.0)"><g fill="black" id="hlines" stroke="black"><line stroke-width="3.0" x1="0" x2="180" y1="60" y2="60" /><circle cx="0" cy="60" r="0.84" /><circle cx="180" cy="60" r="0.84" /><line stroke-width="3.0" x1="0" x2="180" y1="120" y2="120" /><circle cx="0" cy="120" r="0.84" /><circle cx="180" cy="120" r="0.84" /></g><g fill="black" id="vline" stroke="black"><line stroke-width="3.0" x1="60" x2="60" y1="0" y2="180" /><circle cx="60" cy="0" r="0.84" /><circle cx="60" cy="180" r="0.84" /><line stroke-width="3.0" x1="120" x2="120" y1="0" y2="180" /><circle cx="120" cy="0" r="0.84" /><circle cx="120" cy="180" r="0.84" /></g><line stroke="black" stroke-width="3.0" x1="6.0" x2="54.0" y1="6.0" y2="54.0" /><line stroke="black" stroke-width="3.0" x1="6.0" x2="54.0" y1="54.0" y2="6.0" /><circle cx="90.0" cy="30.0" fill="none" r="24.0" stroke="black" stroke-width="3.0" /><circle cx="30.0" cy="90.0" fill="none" r="24.0" stroke="black" stroke-width="3.0" /><circle cx="90.0" cy="90.0" fill="none" r="24.0" stroke="black" stroke-width="3.0" /><line stroke="black" stroke-width="3.0" x1="126.0" x2="174.0" y1="66.0" y2="114.0" /><line stroke="black" stroke-width="3.0" x1="126.0" x2="174.0" y1="114.0" y2="66.0" /><line stroke="black" stroke-width="3.0" x1="6.0" x2="54.0" y1="126.0" y2="174.0" /><line stroke="black" stroke-width="3.0" x1="6.0" x2="54.0" y1="174.0" y2="126.0" /><circle cx="150.0" cy="150.0" fill="none" r="24.0" stroke="black" stroke-width="3.0" /></g><rect fill="none" height="240" stroke="gray" width="240" x="0" y="480" /><g transform="translate(270.0,510.0)"><g fill="black" id="hlines" stroke="black"><line stroke-width="3.0" x1="0" x2="180" y1="60" y2="60" /><circle cx="0" cy="60" r="0.84" /><circle cx="180" cy="60" r="0.84" /><line stroke-width="3.0" x1="0" x2="180" y1="120" y2="120" /><circle cx="0" cy="120" r="0.84" /><circle cx="180" cy="120" r="0.84" /></g><g fill="black" id="vline" stroke="black"><line stroke-width="3.0" x1="60" x2="60" y1="0" y2="180" /><circle cx="60" cy="0" r="0.84" /><circle cx="60" cy="180" r="0.84" /><line stroke-width="3.0" x1="120" x2="120" y1="0" y2="180" /><circle cx="120" cy="0" r="0.84" /><circle cx="120" cy="180" r="0.84" /></g><line stroke="black" stroke-width="3.0" x1="66.0" x2="114.0" y1="6.0" y2="54.0" /><line stroke="black" stroke-width="3.0" x1="66.0" x2="114.0" y1="54.0" y2="6.0" /><circle cx="150.0" cy="30.0" fill="none" r="24.0" stroke="black" stroke-width="3.0" /><line stroke="black" stroke-width="3.0" x1="6.0" x2="54.0" y1="66.0" y2="114.0" /><line stroke="black" stroke-width="3.0" x1="6.0" x2="54.0" y1="114.0" y2="66.0" /><circle cx="90.0" cy="90.0" fill="none" r="24.0" stroke="black" stroke-width="3.0" /><circle cx="30.0" cy="150.0" fill="none" r="24.0" stroke="black" stroke-width="3.0" /></g><rect fill="none" height="240" stroke="gray" width="240" x="240" y="480" /></g></svg>