<svg width="58" height="83" viewBox="0 0 58 83" xmlns="http://www.w3.org/2000/svg"><g id="svgGroup" stroke-linecap="round" fill-rule="evenodd" font-size="9pt" stroke="#000" stroke-width="0.05mm" fill="#000" style="stroke:#000;stroke-width:0.05mm;fill:#000"><path d="M 30.3 19 L 30.4 16.3 C 30.4 14.297 30.127 13.022 29.668 12.908 A 0.282 0.282 0 0 0 29.6 12.9 C 29.4 12.9 29.4 14.9 29.4 16.2 A 18.048 18.048 0 0 1 29.383 16.99 C 29.318 18.488 29.072 19.3 28.9 19.3 C 28.606 19.3 28.504 17.666 28.406 15.906 A 572.265 572.265 0 0 1 28.4 15.8 A 74.845 74.845 0 0 0 28.365 15.08 C 28.267 13.225 28.085 11.37 27.67 10.976 A 0.245 0.245 0 0 0 27.5 10.9 A 0.162 0.162 0 0 0 27.367 10.993 C 27.256 11.173 27.2 11.601 27.2 12.196 A 8.675 8.675 0 0 0 27.2 12.2 C 27.2 12.9 27.3 13.8 27.3 14.8 A 91.133 91.133 0 0 1 27.396 15.922 C 27.441 16.489 27.477 17.056 27.492 17.585 A 17.904 17.904 0 0 1 27.5 18.1 C 27.5 18.83 27.5 19.428 27.34 19.628 A 0.173 0.173 0 0 1 27.2 19.7 A 0.407 0.407 0 0 1 26.801 19.383 C 26.7 19.103 26.7 18.669 26.7 18.2 A 27.822 27.822 0 0 0 26.66 16.754 C 26.505 13.786 25.922 10.635 25.409 10.6 A 0.126 0.126 0 0 0 25.4 10.6 C 25.128 10.6 25.103 11.586 25.1 12.143 A 35.865 35.865 0 0 0 25.1 12.3 C 25.1 13.292 25.395 15.072 25.595 16.565 A 59.035 59.035 0 0 1 25.6 16.6 C 25.785 17.713 25.885 18.568 25.898 19.005 A 3.101 3.101 0 0 1 25.9 19.1 C 25.9 19.264 25.9 19.902 25.678 20.123 A 0.245 0.245 0 0 1 25.5 20.2 C 25.3 20.2 25.1 18.9 24.8 17.3 C 24.325 14.735 23.76 11.538 23.018 11.225 A 0.302 0.302 0 0 0 22.9 11.2 A 0.137 0.137 0 0 0 22.779 11.298 C 22.7 11.473 22.7 11.859 22.7 12.3 A 16.741 16.741 0 0 0 23.378 16.687 C 23.576 17.403 23.794 18.081 24 18.7 A 36.676 36.676 0 0 0 24.007 18.724 C 24.254 19.63 24.501 20.399 24.576 20.917 A 1.987 1.987 0 0 1 24.6 21.2 A 0.912 0.912 0 0 1 24.579 21.408 C 24.544 21.558 24.46 21.66 24.306 21.69 A 0.544 0.544 0 0 1 24.2 21.7 A 0.314 0.314 0 0 1 23.985 21.508 C 23.762 21.138 23.513 20.267 23.238 19.205 A 1123.786 1123.786 0 0 0 22.7 17.1 A 737.649 737.649 0 0 1 22.633 16.822 C 22.056 14.411 21.481 12 21 12 C 20.8 12 20.7 12.3 20.7 12.6 A 6.087 6.087 0 0 0 20.771 13.434 C 21.007 15.082 21.781 17.725 22.371 19.791 A 166.521 166.521 0 0 1 22.6 20.6 C 23 21.9 23.3 22.9 23.3 23.1 A 0.229 0.229 0 0 1 23.292 23.165 C 23.232 23.363 22.866 23.149 22.5 22.6 C 22.401 22.6 19.925 16.562 19.408 16.5 A 0.066 0.066 0 0 0 19.4 16.5 A 0.206 0.206 0 0 0 19.359 16.504 C 19.263 16.524 19.125 16.609 19.103 16.759 A 0.286 0.286 0 0 0 19.1 16.8 A 1.031 1.031 0 0 0 19.151 17.066 C 19.322 17.65 19.896 18.825 20.4 20 C 21.1 21.5 21.7 22.9 21.7 23.3 A 0.576 0.576 0 0 1 21.69 23.411 C 21.65 23.613 21.505 23.691 21.416 23.699 A 0.168 0.168 0 0 1 21.4 23.7 C 21.3 23.7 20.7 22.5 20.1 21.2 A 377.261 377.261 0 0 1 19.783 20.525 C 19.16 19.193 18.532 17.862 18.212 17.562 A 0.186 0.186 0 0 0 18.1 17.5 A 0.133 0.133 0 0 0 17.998 17.547 C 17.942 17.609 17.9 17.742 17.9 18 C 17.9 18.585 18.661 19.931 19.255 21.017 A 87.351 87.351 0 0 1 19.3 21.1 A 125.077 125.077 0 0 1 19.652 21.734 C 19.93 22.242 20.135 22.646 20.187 22.892 A 0.528 0.528 0 0 1 20.2 23 C 20.2 23.098 20.2 23.196 20.011 23.2 A 0.572 0.572 0 0 1 20 23.2 A 0.421 0.421 0 0 1 19.751 23.066 C 19.288 22.65 18.528 21.325 17.7 20 A 159.8 159.8 0 0 1 17.542 19.731 C 16.657 18.22 15.793 16.709 15.298 16.52 A 0.274 0.274 0 0 0 15.2 16.5 A 0.432 0.432 0 0 0 15.081 16.515 C 14.993 16.54 14.936 16.598 14.913 16.689 A 0.442 0.442 0 0 0 14.9 16.8 A 0.989 0.989 0 0 0 14.995 17.143 C 15.292 17.846 16.24 19.243 17.24 20.639 A 115.095 115.095 0 0 0 17.5 21 C 18.579 22.529 19.659 24.058 19.865 24.641 A 0.509 0.509 0 0 1 19.9 24.8 C 19.9 24.883 19.831 24.897 19.75 24.9 A 1.729 1.729 0 0 1 19.7 24.9 A 0.528 0.528 0 0 1 19.419 24.756 C 18.789 24.249 17.543 22.485 16.373 20.72 A 116.672 116.672 0 0 1 15.9 20 C 14.8 18.4 13.8 16.9 13.6 16.9 A 1.047 1.047 0 0 0 13.558 16.901 C 13.466 16.904 13.336 16.93 13.306 17.115 A 0.535 0.535 0 0 0 13.3 17.199 A 2.113 2.113 0 0 0 13.456 17.909 C 13.953 19.246 15.547 21.324 16.875 23.067 A 663.01 663.01 0 0 1 16.9 23.1 A 47.137 47.137 0 0 0 16.918 23.125 C 17.846 24.422 18.684 25.459 18.789 25.914 A 0.387 0.387 0 0 1 18.8 26 C 18.8 26.182 18.718 26.198 18.628 26.2 A 1.611 1.611 0 0 1 18.6 26.2 A 0.838 0.838 0 0 1 18.143 25.993 C 17.286 25.348 15.882 23.295 14.57 21.241 A 134.542 134.542 0 0 1 14.1 20.5 A 47.079 47.079 0 0 0 13.108 18.915 C 12.473 17.948 11.919 17.2 11.604 16.92 A 0.387 0.387 0 0 0 11.4 16.8 A 0.51 0.51 0 0 0 11.134 16.869 A 0.265 0.265 0 0 0 11 17.1 A 2.435 2.435 0 0 0 11.176 17.967 C 11.482 18.796 12.266 20.117 14.118 22.723 A 164.595 164.595 0 0 0 15.4 24.5 A 6.672 6.672 0 0 0 15.626 24.773 C 16.425 25.694 17.9 27.047 17.9 27.5 C 17.9 27.583 17.831 27.597 17.75 27.6 A 1.729 1.729 0 0 1 17.7 27.6 A 0.789 0.789 0 0 1 17.307 27.454 C 16.504 26.949 15.195 25.232 14.1 23.8 A 315.541 315.541 0 0 0 13.452 23.008 C 12.838 22.262 12.35 21.7 12.2 21.7 A 0.236 0.236 0 0 0 11.996 21.831 C 11.876 22.035 11.886 22.443 12.1 22.8 A 5.041 5.041 0 0 0 12.465 23.393 C 13.048 24.233 14.074 25.416 15.1 26.6 A 64.801 64.801 0 0 1 16.347 28.063 C 17.186 29.083 17.8 29.925 17.8 30.2 A 0.387 0.387 0 0 1 17.794 30.276 C 17.769 30.4 17.671 30.4 17.5 30.4 A 0.705 0.705 0 0 1 17.135 30.25 C 16.527 29.835 15.581 28.624 14.636 27.441 A 89.925 89.925 0 0 0 14.2 26.9 C 13.361 25.809 12.592 24.859 12.189 24.582 A 0.375 0.375 0 0 0 12 24.5 A 0.622 0.622 0 0 0 11.96 24.501 C 11.906 24.504 11.901 24.526 11.9 24.656 A 12.123 12.123 0 0 0 11.9 24.7 C 11.9 25.843 13.601 27.837 15.031 29.389 A 96.426 96.426 0 0 0 15.6 30 A 31.024 31.024 0 0 0 15.612 30.014 C 16.307 30.807 16.9 31.401 16.9 31.6 C 16.9 31.6 16.9 31.8 16.8 31.8 C 16 31.8 14.5 30.1 13.3 28.7 C 12.5 27.7 11.8 26.9 11.6 26.9 A 0.233 0.233 0 0 0 11.535 26.908 C 11.406 26.946 11.4 27.099 11.4 27.189 A 4.551 4.551 0 0 0 11.4 27.2 A 1.249 1.249 0 0 0 11.527 27.683 C 11.879 28.475 12.904 29.673 13.928 30.791 A 79.922 79.922 0 0 0 14.4 31.3 C 15.128 32.21 15.856 33.037 15.981 33.329 A 0.193 0.193 0 0 1 16 33.4 A 0.21 0.21 0 0 1 15.909 33.562 A 0.189 0.189 0 0 1 15.8 33.6 C 15.217 33.6 14.217 32.558 13.263 31.517 A 1572.123 1572.123 0 0 0 12.7 30.9 A 29.243 29.243 0 0 0 12.125 30.27 C 11.581 29.694 11.15 29.3 11 29.3 C 10.8 29.3 10.6 29.9 11.3 30.8 A 9.421 9.421 0 0 0 12.205 31.945 C 13.65 33.518 15.327 34.414 15.487 34.924 A 0.252 0.252 0 0 1 15.5 35 A 0.432 0.432 0 0 1 15.485 35.119 C 15.46 35.207 15.402 35.264 15.311 35.287 A 0.442 0.442 0 0 1 15.2 35.3 A 0.875 0.875 0 0 1 14.857 35.208 C 14.182 34.903 13.088 33.899 12.178 33.071 A 222.914 222.914 0 0 0 12.1 33 C 11.434 32.334 10.837 31.806 10.54 31.648 A 0.337 0.337 0 0 0 10.4 31.6 A 0.825 0.825 0 0 0 10.29 31.606 C 10.1 31.632 10.1 31.742 10.1 32 A 0.903 0.903 0 0 0 10.243 32.398 C 10.905 33.568 13.733 36.222 16.1 37.8 C 17.8 39 20.8 39.3 20.8 40 C 20.8 40.1 20.8 40.2 20.5 40.2 A 1.592 1.592 0 0 1 20.198 40.164 C 19.198 39.963 17.127 39 16.5 39 A 0.923 0.923 0 0 0 16.401 39.005 C 16.2 39.027 16.2 39.125 16.2 39.3 A 0.367 0.367 0 0 0 16.342 39.558 C 17.037 40.198 20.049 40.724 20.455 40.792 A 8.822 8.822 0 0 0 20.5 40.8 A 0.34 0.34 0 0 1 20.604 40.818 C 20.878 40.906 21.185 41.302 21.199 41.487 A 0.168 0.168 0 0 1 21.2 41.5 C 21.2 41.69 21.019 41.609 20.743 41.601 A 1.423 1.423 0 0 0 20.7 41.6 A 0.481 0.481 0 0 1 20.614 41.588 C 20.27 41.516 19.199 41.156 18.541 41.106 A 1.871 1.871 0 0 0 18.4 41.1 C 18.26 41.1 18.169 41.149 18.127 41.213 A 0.158 0.158 0 0 0 18.1 41.3 C 18.1 42 21.7 42.2 21.7 42.8 A 0.233 0.233 0 0 1 21.692 42.865 C 21.654 42.994 21.501 43 21.411 43 A 4.551 4.551 0 0 1 21.4 43 C 21 43 20.2 42.5 19.7 42.5 C 19.6 42.5 19.4 42.6 19.4 42.7 A 0.414 0.414 0 0 0 19.545 42.987 C 20.053 43.491 21.751 43.862 22.362 44.052 A 1.966 1.966 0 0 1 22.5 44.1 A 1.124 1.124 0 0 1 22.791 44.269 C 23.367 44.716 23.884 45.712 25.066 45.949 A 2.711 2.711 0 0 0 25.6 46 A 4.018 4.018 0 0 0 26.397 45.917 C 27.216 45.752 27.888 45.4 28.5 45.4 A 3.052 3.052 0 0 1 29.146 45.478 C 29.914 45.646 30.723 46.03 31.34 46.092 A 1.615 1.615 0 0 0 31.5 46.1 A 4.525 4.525 0 0 0 32.697 45.944 C 34.692 45.401 35.653 43.592 36.727 43.036 A 1.788 1.788 0 0 1 36.8 43 A 3.36 3.36 0 0 1 37.247 42.856 C 38.44 42.562 39.09 43.131 40.7 41.7 A 2.319 2.319 0 0 1 41.304 41.269 C 42.129 40.855 43.096 40.888 43.503 40.589 A 0.452 0.452 0 0 0 43.7 40.2 A 0.05 0.05 0 0 0 43.664 40.156 C 43.44 40.055 42.252 40.3 41.8 40.3 A 0.071 0.071 0 0 1 41.731 40.246 C 41.671 40.082 41.851 39.6 42.1 39.6 A 3.319 3.319 0 0 0 42.277 39.594 C 42.959 39.557 44.557 39.336 44.99 38.983 A 0.247 0.247 0 0 0 45.1 38.8 A 0.319 0.319 0 0 0 45.071 38.653 C 45.026 38.565 44.921 38.515 44.71 38.503 A 1.918 1.918 0 0 0 44.6 38.5 A 1.979 1.979 0 0 0 44.391 38.513 C 43.987 38.557 43.4 38.694 42.742 38.7 A 4.846 4.846 0 0 1 42.7 38.7 A 1.172 1.172 0 0 1 42.573 38.694 C 42.108 38.643 42.278 38.303 42.703 38.219 A 1.013 1.013 0 0 1 42.9 38.2 A 1.196 1.196 0 0 0 42.967 38.197 C 43.463 38.163 46.2 37.876 46.2 37.5 A 0.344 0.344 0 0 0 46.147 37.309 C 46.096 37.23 46.011 37.177 45.911 37.144 A 1.017 1.017 0 0 0 45.6 37.1 C 44.8 37.1 43.7 37.5 43.2 37.5 A 0.567 0.567 0 0 1 43.131 37.496 C 42.985 37.478 42.908 37.408 42.901 37.401 A 0.658 0.658 0 0 1 43.23 36.87 C 43.823 36.451 45.116 36.248 46.3 36.1 C 47.463 35.921 48.546 35.742 48.761 35.42 A 0.213 0.213 0 0 0 48.8 35.3 A 0.338 0.338 0 0 0 48.785 35.194 C 48.721 35 48.473 35 48.3 35 A 0.622 0.622 0 0 0 48.209 35.011 C 47.822 35.079 46.495 35.429 45.711 35.491 A 2.733 2.733 0 0 1 45.5 35.5 C 45.1 35.5 44.8 35.3 44.8 35.2 A 0.335 0.335 0 0 1 44.971 34.936 C 45.263 34.728 45.898 34.587 46.612 34.453 A 54.15 54.15 0 0 1 46.9 34.4 C 47.86 34.24 48.885 34.016 49.256 33.676 A 0.379 0.379 0 0 0 49.4 33.4 C 49.4 33.3 49.3 33.3 49.1 33.3 A 3.916 3.916 0 0 0 48.692 33.325 C 47.63 33.438 46.014 33.9 45.4 33.9 C 44.61 33.9 44.591 33.361 45.003 33.162 A 0.725 0.725 0 0 1 45.2 33.1 C 48.7 32.5 49.9 32.2 49.9 31.7 A 0.113 0.113 0 0 0 49.891 31.659 C 49.852 31.561 49.687 31.42 49.452 31.402 A 0.666 0.666 0 0 0 49.4 31.4 C 49.107 31.4 48.601 31.507 47.998 31.643 A 254.038 254.038 0 0 1 47.3 31.8 A 49.02 49.02 0 0 1 46.152 32.046 C 45.722 32.13 45.339 32.191 45.061 32.199 A 2.098 2.098 0 0 1 45 32.2 C 44.242 32.2 44.202 31.751 44.881 31.448 A 2.137 2.137 0 0 1 45 31.4 A 24.835 24.835 0 0 1 46.043 31.097 C 48.194 30.523 49.496 30.488 49.982 30.177 A 0.42 0.42 0 0 0 50.2 29.8 A 0.113 0.113 0 0 0 50.191 29.759 C 50.152 29.661 49.987 29.52 49.752 29.502 A 0.666 0.666 0 0 0 49.7 29.5 A 3.378 3.378 0 0 0 49.202 29.546 C 48.686 29.625 48.012 29.799 47.314 29.988 A 195.083 195.083 0 0 0 46.9 30.1 C 45.831 30.367 44.841 30.635 44.214 30.69 A 2.46 2.46 0 0 1 44 30.7 A 0.338 0.338 0 0 1 43.894 30.685 C 43.7 30.621 43.7 30.373 43.7 30.2 C 43.7 29.9 45.2 29.5 46.8 29.2 A 68.422 68.422 0 0 0 48.342 28.825 C 49.202 28.601 49.895 28.377 50.121 28.152 A 0.221 0.221 0 0 0 50.2 28 A 0.322 0.322 0 0 0 49.991 27.689 C 49.853 27.625 49.652 27.6 49.4 27.6 A 1.185 1.185 0 0 0 49.217 27.621 C 48.808 27.693 47.936 27.93 47.063 28.156 A 68.184 68.184 0 0 1 46.5 28.3 A 24.804 24.804 0 0 1 45.778 28.505 C 45.094 28.687 44.55 28.8 44.4 28.8 A 0.46 0.46 0 0 1 44.107 28.672 C 44.055 28.625 44.018 28.573 44.005 28.531 A 0.105 0.105 0 0 1 44 28.5 C 44 28.053 45.361 27.365 46.722 26.796 A 32.654 32.654 0 0 1 47.2 26.6 A 113.442 113.442 0 0 0 47.977 26.245 C 48.694 25.912 49.2 25.65 49.2 25.5 A 0.451 0.451 0 0 0 49.171 25.331 C 49.118 25.197 48.988 25.131 48.784 25.109 A 1.712 1.712 0 0 0 48.6 25.1 C 47.4 25.1 44 27.4 43.5 27.4 C 43.213 27.4 42.926 27.217 43.165 26.938 A 0.677 0.677 0 0 1 43.2 26.9 A 5.292 5.292 0 0 1 43.538 26.655 C 44.139 26.249 45.136 25.691 46.2 25.2 A 46.475 46.475 0 0 1 46.231 25.182 C 47.62 24.39 49.001 23.697 49.2 23.3 A 1.359 1.359 0 0 0 49.261 23.199 C 49.395 22.956 49.353 22.8 49 22.8 A 2.057 2.057 0 0 0 48.424 22.901 C 47.347 23.225 45.75 24.267 44.5 25.1 A 25.657 25.657 0 0 1 43.904 25.486 C 43.299 25.866 42.853 26.1 42.7 26.1 A 0.432 0.432 0 0 1 42.581 26.085 C 42.493 26.06 42.436 26.002 42.413 25.911 A 0.442 0.442 0 0 1 42.4 25.8 C 42.4 25.245 42.742 25.545 47.768 21.961 A 145.475 145.475 0 0 0 49.1 21 A 1.869 1.869 0 0 0 49.294 20.833 C 49.538 20.591 49.672 20.324 49.696 20.153 A 0.379 0.379 0 0 0 49.7 20.1 A 8.345 8.345 0 0 0 49.7 20.006 C 49.697 19.8 49.677 19.8 49.5 19.8 C 49.033 19.8 47.347 21.02 45.661 22.239 A 662.172 662.172 0 0 1 45.3 22.5 A 53.045 53.045 0 0 1 43.927 23.565 C 43.117 24.17 42.423 24.635 42.063 24.764 A 0.512 0.512 0 0 1 41.9 24.8 A 0.252 0.252 0 0 0 41.873 24.802 C 41.775 24.812 41.622 24.86 41.602 24.566 A 1.002 1.002 0 0 1 41.6 24.5 A 0.243 0.243 0 0 1 41.659 24.384 C 41.868 24.105 42.611 23.456 43.581 22.653 A 130.701 130.701 0 0 1 44.5 21.9 C 46.725 20.062 49.417 17.85 49.591 16.983 A 0.425 0.425 0 0 0 49.6 16.9 C 49.6 16.719 49.564 16.647 49.513 16.619 A 0.226 0.226 0 0 0 49.4 16.6 A 0.839 0.839 0 0 0 49.05 16.718 C 48.536 16.988 47.681 17.696 46.708 18.575 A 75.629 75.629 0 0 0 45.6 19.6 A 73.976 73.976 0 0 1 45.313 19.87 C 43.484 21.585 41.46 23.3 40.7 23.3 C 40.519 23.3 40.447 23.264 40.419 23.213 A 0.226 0.226 0 0 1 40.4 23.1 A 0.282 0.282 0 0 1 40.463 22.964 C 40.665 22.677 41.33 22.085 42.144 21.411 A 56.504 56.504 0 0 1 42.4 21.2 A 142.341 142.341 0 0 0 43.142 20.566 C 45.046 18.925 47.3 16.846 47.3 15.7 C 47.3 15.4 47.2 15.3 47.1 15.3 A 0.765 0.765 0 0 0 46.713 15.446 C 45.931 15.945 44.695 17.621 43.6 18.8 C 42.7 19.7 39.9 22.3 39.4 22.3 A 0.071 0.071 0 0 1 39.395 22.3 C 39.367 22.298 39.226 22.276 39.203 22.062 A 0.583 0.583 0 0 1 39.2 22 A 0.347 0.347 0 0 1 39.251 21.855 C 39.367 21.641 39.669 21.275 40.075 20.842 A 22.93 22.93 0 0 1 40.6 20.3 A 203.541 203.541 0 0 0 41.125 19.727 C 41.978 18.789 42.851 17.781 43.055 17.147 A 0.817 0.817 0 0 0 43.1 16.9 C 43.1 16.725 43.024 16.551 42.938 16.509 A 0.087 0.087 0 0 0 42.9 16.5 A 0.577 0.577 0 0 0 42.6 16.617 C 42.058 16.977 41.245 18.107 40.5 19.1 C 40.006 19.841 39.58 20.446 39.333 20.637 A 0.243 0.243 0 0 1 39.2 20.7 C 39.023 20.7 39.003 20.7 39 20.492 A 8.512 8.512 0 0 1 39 20.4 C 39 20.1 42 16.6 42 15.1 A 0.51 0.51 0 0 0 41.931 14.834 A 0.265 0.265 0 0 0 41.7 14.7 A 0.233 0.233 0 0 0 41.567 14.78 C 41.38 14.96 41.082 15.424 40.749 15.998 A 36.332 36.332 0 0 0 40.3 16.8 A 171.743 171.743 0 0 0 39.91 17.455 C 39.124 18.778 38.329 20.1 37.9 20.1 A 5.102 5.102 0 0 1 37.801 20.099 C 37.61 20.096 37.6 20.066 37.6 19.836 A 19.368 19.368 0 0 1 37.6 19.8 A 0.192 0.192 0 0 1 37.608 19.751 C 37.695 19.433 38.494 18.426 39.521 16.585 A 32.289 32.289 0 0 0 40.2 15.3 A 18.028 18.028 0 0 0 40.552 14.612 C 40.987 13.715 41.186 13.088 41.199 12.826 A 0.527 0.527 0 0 0 41.2 12.8 A 0.968 0.968 0 0 0 41.192 12.668 C 41.164 12.47 41.067 12.4 40.9 12.4 C 40.717 12.4 39.864 13.823 38.954 15.444 A 120.439 120.439 0 0 0 38.7 15.9 A 47.477 47.477 0 0 0 38.543 16.169 C 37.707 17.611 36.962 19.054 36.609 19.346 A 0.188 0.188 0 0 1 36.5 19.4 A 0.217 0.217 0 0 1 36.468 19.397 C 36.362 19.381 36.2 19.3 36.2 19.3 C 36.2 18.938 36.609 18.003 37.132 16.94 A 53.278 53.278 0 0 1 37.3 16.6 C 38.1 14.8 39.1 12.6 39.1 11.4 A 1.468 1.468 0 0 0 39.091 11.194 C 39.074 11.082 39.028 11 38.9 11 A 0.407 0.407 0 0 0 38.644 11.152 C 38.131 11.678 37.324 13.482 36.603 15.287 A 76.068 76.068 0 0 0 36.4 15.8 A 121.588 121.588 0 0 0 36.386 15.833 C 35.592 17.721 34.898 19.5 34.6 19.5 A 0.273 0.273 0 0 1 34.488 19.477 C 34.371 19.425 34.308 19.297 34.301 19.216 A 0.173 0.173 0 0 1 34.3 19.2 A 0.339 0.339 0 0 1 34.313 19.131 C 34.375 18.897 34.638 18.175 34.9 17.3 A 139.624 139.624 0 0 0 35.133 16.675 C 35.615 15.371 36.154 13.838 36.404 12.768 A 7.445 7.445 0 0 0 36.5 12.3 A 14.846 14.846 0 0 0 36.5 12.208 C 36.498 11.84 36.473 10.925 36.206 10.735 A 0.179 0.179 0 0 0 36.1 10.7 A 0.313 0.313 0 0 0 35.895 10.847 C 35.462 11.39 34.795 13.345 34.2 15.3 C 33.595 17.114 32.991 18.927 32.644 19.388 A 0.225 0.225 0 0 1 32.5 19.5 C 32.4 19.5 32.2 19.5 32.2 19.3 A 2.944 2.944 0 0 1 32.244 18.833 C 32.335 18.278 32.547 17.589 32.7 16.9 A 16.54 16.54 0 0 0 32.97 16.015 C 33.114 15.485 33.2 15.028 33.2 14.7 A 0.858 0.858 0 0 0 33.197 14.636 C 33.184 14.462 33.122 14.177 33.011 14.057 A 0.152 0.152 0 0 0 32.9 14 A 0.463 0.463 0 0 0 32.568 14.191 C 31.832 15.031 31.266 18.393 31.002 19.193 A 2.008 2.008 0 0 1 31 19.2 A 0.578 0.578 0 0 1 30.782 19.521 C 30.573 19.668 30.3 19.608 30.3 19 Z M 6 83 L 52 83 C 55.3 83 58 80.3 58 77 L 58 6 C 58 2.7 55.3 0 52 0 L 6 0 C 2.7 0 0 2.7 0 6 L 0 77 C 0 80.3 2.7 83 6 83 Z M 3 77 L 3 6 A 3.001 3.001 0 0 1 3.764 3.966 C 4.307 3.367 5.097 3 6 3 L 52 3 A 3.001 3.001 0 0 1 54.034 3.764 C 54.633 4.307 55 5.097 55 6 L 55 77 A 3.001 3.001 0 0 1 54.236 79.034 C 53.693 79.633 52.903 80 52 80 L 6 80 A 3.001 3.001 0 0 1 3.966 79.236 C 3.367 78.693 3 77.903 3 77 Z M 20.5 58.7 L 20.6 55.1 A 8.797 8.797 0 0 0 20.533 54.003 C 20.302 52.168 19.538 51.1 19.2 51.1 A 0.169 0.169 0 0 0 19.088 51.134 C 19.02 51.19 19.004 51.316 19.001 51.512 A 10.959 10.959 0 0 0 19 51.7 A 0.19 0.19 0 0 0 19.02 51.776 C 19.115 51.986 19.522 52.353 19.59 52.55 A 0.156 0.156 0 0 1 19.6 52.6 A 0.338 0.338 0 0 1 19.585 52.706 C 19.521 52.9 19.273 52.9 19.1 52.9 C 18.677 52.9 17.896 52.47 16.757 52.338 A 5.689 5.689 0 0 0 16.1 52.3 A 5.355 5.355 0 0 0 14.602 52.53 C 11.215 53.523 7.3 57.634 7.3 63.1 A 3.134 3.134 0 0 0 7.306 63.292 C 7.33 63.673 7.415 64.145 7.5 64.4 C 12.2 62.6 17 62.6 18.4 62.6 C 18.925 62.6 19.619 62.656 20.313 62.769 A 12.143 12.143 0 0 1 21 62.9 A 40.973 40.973 0 0 0 21.537 62.973 C 21.979 63.031 22.421 63.078 22.772 63.094 A 5.064 5.064 0 0 0 23 63.1 A 6.246 6.246 0 0 0 25.263 62.571 C 25.983 62.286 26.639 61.97 27.188 61.85 A 1.942 1.942 0 0 1 27.6 61.8 A 5.945 5.945 0 0 1 28.424 61.869 C 28.9 61.936 29.4 62.038 29.9 62.1 C 30.8 62.3 31.7 62.5 32.6 62.5 A 31.926 31.926 0 0 0 33.075 62.497 C 34.778 62.471 34.589 62.308 39.996 62.3 A 282.857 282.857 0 0 1 40.4 62.3 C 42.783 62.3 45.587 62.72 47.578 63.098 A 54.688 54.688 0 0 1 48.1 63.2 A 36.98 36.98 0 0 0 48.844 63.328 C 49.412 63.419 49.853 63.474 50.125 63.493 A 2.633 2.633 0 0 0 50.3 63.5 A 0.164 0.164 0 0 0 50.314 63.482 C 50.374 63.399 50.6 63.001 50.6 61.7 A 10.845 10.845 0 0 0 49.583 57.095 C 47.735 53.119 43.769 50.705 41.1 50.427 A 4.831 4.831 0 0 0 40.6 50.4 C 36.7 50.4 35.9 51.3 35.1 51.3 C 34.3 51.3 33.7 47.5 30.2 47.5 A 6.206 6.206 0 0 0 28.962 47.62 C 25.885 48.244 25.023 51.1 24.4 51.1 A 0.532 0.532 0 0 1 24.085 50.985 C 23.462 50.532 22.95 48.9 21.4 48.9 A 0.826 0.826 0 0 0 21.332 48.903 C 21.121 48.921 20.8 49.01 20.8 49.1 A 0.161 0.161 0 0 0 20.907 49.243 C 21.348 49.469 23.014 49.301 23.186 51.515 A 4.984 4.984 0 0 1 23.2 51.9 C 23.2 52.8 22.9 53.8 22.7 54.7 A 10.157 10.157 0 0 0 22.108 57.319 A 5.247 5.247 0 0 0 22.1 57.6 A 4.398 4.398 0 0 0 22.124 58.056 C 22.178 58.571 22.324 59.086 22.579 59.482 A 1.416 1.416 0 0 0 23.8 60.2 C 24.7 60.2 25.4 59.3 26.1 58.5 A 8.705 8.705 0 0 1 27.016 57.348 A 2.198 2.198 0 0 1 28.6 56.6 A 1.776 1.776 0 0 1 28.98 56.645 C 29.959 56.861 31.2 57.819 31.2 58.7 A 3.222 3.222 0 0 1 31.164 59.172 C 31.034 60.05 30.535 60.967 29.554 60.999 A 1.635 1.635 0 0 1 29.5 61 C 29.178 61 28.856 60.935 28.482 60.91 A 4.169 4.169 0 0 0 28.2 60.9 A 5.794 5.794 0 0 0 26.658 61.116 A 10.927 10.927 0 0 0 25.1 61.7 A 9.769 9.769 0 0 1 23.3 62.248 A 3.704 3.704 0 0 1 22.7 62.3 C 21.022 62.3 20.513 61.13 20.5 58.791 A 16.798 16.798 0 0 1 20.5 58.7 Z M 31.2 61.5 A 3.423 3.423 0 0 0 31.308 61.525 C 31.73 61.616 32.425 61.7 32.7 61.7 C 33.225 61.7 33.793 61.657 34.432 61.571 A 23.576 23.576 0 0 0 35.5 61.4 A 49.231 49.231 0 0 1 37.591 61.093 C 38.302 61.005 39.07 60.929 39.906 60.877 A 39.748 39.748 0 0 1 42.4 60.8 C 43.204 60.8 43.634 60.693 43.807 60.558 A 0.204 0.204 0 0 0 43.9 60.4 A 0.592 0.592 0 0 0 43.829 60.113 C 43.567 59.631 42.645 59.521 42.082 59.503 A 5.737 5.737 0 0 0 41.9 59.5 A 6.48 6.48 0 0 0 41.785 59.501 C 40.691 59.52 39.155 59.807 37.9 60 A 106.679 106.679 0 0 0 37.077 60.154 C 36.354 60.291 35.768 60.4 35.4 60.4 A 4.291 4.291 0 0 1 35.247 60.398 C 35.109 60.393 35 60.374 35 60.3 A 0.235 0.235 0 0 1 35.05 60.164 C 35.549 59.468 39.653 58.739 41.225 58.618 A 5.08 5.08 0 0 1 41.6 58.6 C 41.957 58.6 42.314 58.565 42.544 58.452 A 0.389 0.389 0 0 0 42.8 58.1 C 42.8 57.678 42.586 57.541 42.039 57.508 A 5.784 5.784 0 0 0 41.7 57.5 A 3.19 3.19 0 0 0 41.696 57.5 C 40.947 57.501 40.03 57.669 39.113 57.88 A 48.765 48.765 0 0 0 38.2 58.1 C 37.3 58.4 36.4 58.6 35.8 58.6 A 4.551 4.551 0 0 1 35.789 58.6 C 35.699 58.6 35.546 58.594 35.508 58.465 A 0.233 0.233 0 0 1 35.5 58.4 A 0.087 0.087 0 0 1 35.52 58.35 C 35.737 58.057 37.652 57.403 39.453 57.046 A 16.047 16.047 0 0 1 40.3 56.9 A 10.011 10.011 0 0 0 40.41 56.89 C 40.972 56.837 41.245 56.759 41.376 56.656 A 0.385 0.385 0 0 0 41.5 56.3 C 41.5 56.1 41.3 56 40.9 56 A 3.621 3.621 0 0 0 40.513 56.023 C 39.123 56.174 36.809 57.009 35.9 57.1 A 0.211 0.211 0 0 1 35.813 57.079 C 35.755 57.052 35.709 57.009 35.701 57.001 A 0.113 0.113 0 0 1 35.7 57 A 0.353 0.353 0 0 1 35.716 56.898 C 35.766 56.734 35.935 56.536 36.299 56.377 A 2.378 2.378 0 0 1 36.5 56.3 A 38.567 38.567 0 0 1 37.019 56.105 C 38.769 55.46 39.733 55.249 40.065 54.962 A 0.335 0.335 0 0 0 40.2 54.7 A 0.346 0.346 0 0 0 40.187 54.602 C 40.137 54.432 39.951 54.405 39.789 54.401 A 3.282 3.282 0 0 0 39.7 54.4 A 1.389 1.389 0 0 0 39.695 54.4 C 38.692 54.404 36.399 55.5 35.8 55.5 A 4.363 4.363 0 0 1 35.773 55.5 C 35.668 55.499 35.5 55.492 35.5 55.4 C 35.5 54.852 38.758 53.718 39.319 53.222 A 0.194 0.194 0 0 0 39.4 53.1 A 0.265 0.265 0 0 0 39.266 52.869 A 0.51 0.51 0 0 0 39 52.8 C 38.284 52.8 36.448 54.08 35.568 54.35 A 0.955 0.955 0 0 1 35.3 54.4 A 0.189 0.189 0 0 1 35.191 54.362 A 0.21 0.21 0 0 1 35.1 54.2 A 0.414 0.414 0 0 1 35.14 54.028 C 35.486 53.269 37.954 52.463 38.495 51.899 A 0.307 0.307 0 0 0 38.6 51.7 C 38.6 51.428 38.271 51.403 38.135 51.4 A 1.935 1.935 0 0 0 38.1 51.4 A 2.042 2.042 0 0 0 37.847 51.417 C 36.231 51.619 33.79 53.6 33.6 53.6 A 0.378 0.378 0 0 1 33.382 53.523 A 0.42 0.42 0 0 1 33.2 53.2 A 0.257 0.257 0 0 1 33.206 53.146 C 33.266 52.867 33.742 52.346 33.869 51.966 A 0.531 0.531 0 0 0 33.9 51.8 C 33.9 51.4 33.5 51.3 33.3 51.3 A 0.725 0.725 0 0 0 33.005 51.38 C 31.891 51.899 29.628 54.793 29.332 55.324 A 0.223 0.223 0 0 0 29.3 55.4 A 0.319 0.319 0 0 0 29.312 55.485 C 29.49 56.132 31.685 56.277 32.124 58.263 A 3.406 3.406 0 0 1 32.2 59 A 2.86 2.86 0 0 1 32.177 59.353 C 32.084 60.099 31.716 60.984 31.2 61.5 Z M 29 73.6 A 0.91 0.91 0 0 0 29.285 73.547 C 30.031 73.297 31.095 72.242 31.494 72.035 A 0.255 0.255 0 0 1 31.6 72 C 32.5 72 34.4 72.4 34.9 72.4 C 35.261 72.4 35.378 72.4 35.397 72.253 A 0.409 0.409 0 0 0 35.4 72.2 A 0.088 0.088 0 0 0 35.389 72.161 C 35.334 72.054 35.1 71.888 35.1 71.8 C 33 70.6 31.8 71.9 31.8 68.7 A 9.243 9.243 0 0 1 31.818 68.157 C 31.857 67.518 31.943 66.782 31.982 66.143 A 9.243 9.243 0 0 0 32 65.6 A 0.625 0.625 0 0 0 31.763 65.136 C 31.384 64.796 30.656 64.628 30.366 64.603 A 0.788 0.788 0 0 0 30.3 64.6 A 1.052 1.052 0 0 1 30.228 64.597 C 30.04 64.584 29.82 64.547 29.895 64.88 A 0.899 0.899 0 0 0 29.9 64.9 A 41.516 41.516 0 0 1 30.081 65.972 C 30.205 66.773 30.3 67.581 30.3 68.2 C 30.3 71 26.5 71.5 26.5 72.5 A 0.923 0.923 0 0 0 26.505 72.599 C 26.527 72.8 26.625 72.8 26.8 72.8 A 1.18 1.18 0 0 0 27.044 72.769 C 27.837 72.596 29.321 71.762 29.667 71.703 A 0.203 0.203 0 0 1 29.7 71.7 C 30.276 71.7 28.916 72.991 28.807 73.271 A 0.085 0.085 0 0 0 28.8 73.3 C 28.8 73.44 28.849 73.531 28.913 73.573 A 0.158 0.158 0 0 0 29 73.6 Z M 20.7 73.6 A 1.132 1.132 0 0 0 21.022 73.542 C 22.214 73.177 24.628 71.2 24.9 71.2 A 0.264 0.264 0 0 1 24.984 71.187 C 25.248 71.187 25.581 71.531 25.983 71.591 A 0.79 0.79 0 0 0 26.1 71.6 A 0.134 0.134 0 0 0 26.133 71.595 C 26.25 71.564 26.484 71.402 26.499 71.309 A 0.057 0.057 0 0 0 26.5 71.3 C 26.5 71.02 26.239 70.654 25.718 70.2 A 7.345 7.345 0 0 0 25.6 70.1 A 1.593 1.593 0 0 0 25.631 69.984 C 25.764 69.432 26.131 67.426 26.191 66.597 A 2.78 2.78 0 0 0 26.2 66.4 A 14.024 14.024 0 0 0 26.198 66.086 C 26.192 65.839 26.172 65.644 26.1 65.5 A 0.502 0.502 0 0 0 26.031 65.42 C 25.727 65.127 24.819 64.723 24.432 64.701 A 0.557 0.557 0 0 0 24.4 64.7 C 24.219 64.7 24.147 64.736 24.119 64.787 A 0.226 0.226 0 0 0 24.1 64.9 A 1.454 1.454 0 0 0 24.124 65.134 C 24.194 65.558 24.4 66.223 24.4 67.3 A 21.538 21.538 0 0 1 24.389 68.037 C 24.332 69.675 24.053 69.885 23.388 69.977 A 7.043 7.043 0 0 1 23.2 70 A 27.323 27.323 0 0 0 22.277 70.111 C 20.322 70.38 19.487 70.753 19.329 71.082 A 0.27 0.27 0 0 0 19.3 71.2 A 0.342 0.342 0 0 0 19.309 71.283 C 19.338 71.4 19.449 71.4 19.7 71.4 A 1.573 1.573 0 0 0 19.911 71.382 C 20.285 71.33 20.881 71.178 21.634 71.122 A 7.549 7.549 0 0 1 22.2 71.1 A 0.734 0.734 0 0 1 22.303 71.105 C 22.353 71.112 22.391 71.131 22.399 71.18 A 0.127 0.127 0 0 1 22.4 71.2 A 0.16 0.16 0 0 1 22.365 71.273 C 22.117 71.632 20.613 72.932 20.42 73.249 A 0.114 0.114 0 0 0 20.4 73.3 A 0.206 0.206 0 0 0 20.404 73.341 C 20.424 73.437 20.509 73.575 20.659 73.597 A 0.286 0.286 0 0 0 20.7 73.6 Z M 36.5 48.7 A 0.953 0.953 0 0 0 36.921 48.523 C 37.75 48.013 39.619 46.419 43.6 43.9 C 44.2 43.5 45.1 43.1 45.9 42.7 C 46.7 42.3 47.5 41.9 48 41.6 C 48.283 41.506 48.299 40.877 47.712 40.806 A 0.937 0.937 0 0 0 47.6 40.8 A 4.717 4.717 0 0 0 46.085 41.112 C 43.746 41.937 40.301 44.343 37.099 47.678 A 39.116 39.116 0 0 0 36.7 48.1 C 36.2 48.5 36.4 48.7 36.5 48.7 Z M 19.1 46.6 A 0.165 0.165 0 0 0 19.216 46.55 C 19.255 46.511 19.285 46.45 19.296 46.368 A 0.533 0.533 0 0 0 19.3 46.3 C 19.3 46.146 19.181 45.872 19.034 45.479 A 11.428 11.428 0 0 1 18.9 45.1 C 16 39.6 10.1 38.2 9.5 38.2 A 17.187 17.187 0 0 0 9.397 38.2 C 9.28 38.201 9.204 38.204 9.158 38.22 A 0.075 0.075 0 0 0 9.1 38.3 A 0.233 0.233 0 0 0 9.23 38.544 C 9.629 38.775 11.134 39.005 16.216 43.779 A 99.567 99.567 0 0 1 18 45.5 A 16.318 16.318 0 0 1 18.009 45.509 C 18.9 46.401 18.901 46.6 19.1 46.6 Z M 15.9 47.128 A 1.611 1.611 0 0 0 15.9 47.1 C 15.9 46.699 14.423 44.864 12.306 43.635 A 7.907 7.907 0 0 0 8.8 42.5 C 8.4 42.5 8 42.5 8 42.7 C 8 43 10.7 43.8 12.7 45.2 A 40.707 40.707 0 0 0 12.924 45.391 C 13.636 45.992 14.915 47.031 15.51 47.256 A 0.568 0.568 0 0 0 15.7 47.3 C 15.882 47.3 15.898 47.218 15.9 47.128 Z M 22.5 31.7 C 21.1 31.7 19.4 31 19.4 29 A 2.87 2.87 0 0 1 19.818 27.47 C 20.385 26.552 21.458 26.033 22.59 26.002 A 3.937 3.937 0 0 1 22.7 26 A 2.03 2.03 0 0 1 22.961 26.017 C 24.18 26.175 25.4 27.413 25.4 29 A 2.035 2.035 0 0 1 25.383 29.261 C 25.225 30.48 23.993 31.7 22.5 31.7 Z M 26.459 37.992 A 5.574 5.574 0 0 0 27.6 38.1 C 29.378 38.1 30.129 36.519 30.273 35.676 A 1.67 1.67 0 0 0 30.3 35.4 A 3.254 3.254 0 0 0 30.265 34.916 C 30.018 33.275 28.519 32.667 27.399 32.531 A 4.173 4.173 0 0 0 26.9 32.5 A 2.333 2.333 0 0 0 25.588 32.894 A 3.152 3.152 0 0 0 24.3 35.5 C 24.3 36.651 24.909 37.667 26.459 37.992 Z M 30.4 32 C 28.9 32 27.5 30.7 27.5 29.1 C 27.5 26.9 30.3 26.4 31 26.4 A 1.893 1.893 0 0 1 31.25 26.418 C 31.915 26.508 33.088 26.962 33.275 28.473 A 3.483 3.483 0 0 1 33.3 28.9 A 3.844 3.844 0 0 1 33.225 29.678 C 32.838 31.551 31.075 31.934 30.532 31.991 A 1.356 1.356 0 0 1 30.4 32 Z M 41.1 47.9 A 3.664 3.664 0 0 0 41.056 47.922 C 40.814 48.048 40.206 48.375 40.3 48 A 0.012 0.012 0 0 1 40.302 47.994 C 40.424 47.806 45.029 44.3 47.2 44.3 A 3.616 3.616 0 0 1 47.284 44.301 C 47.744 44.312 48.1 44.411 48.1 44.6 A 0.199 0.199 0 0 1 48.1 44.609 C 48.082 45.008 46.856 45.518 41.1 47.9 Z M 17.5 36 A 0.98 0.98 0 0 0 17.5 36.013 C 17.507 36.53 17.92 38.2 20.2 38.2 A 5.461 5.461 0 0 0 20.503 38.192 C 22.727 38.068 23.049 36.581 23.093 35.98 A 2.453 2.453 0 0 0 23.1 35.8 A 2.706 2.706 0 0 0 22.565 34.199 A 2.939 2.939 0 0 0 20.2 33 C 19.4 33 17.5 33.5 17.5 36 Z M 31.545 44.687 A 2.609 2.609 0 0 0 31.8 44.7 C 32.4 44.7 34.8 44.5 34.8 41.7 C 34.8 39.9 32.6 39.5 31.8 39.5 A 2.103 2.103 0 0 0 30.182 40.259 C 29.767 40.746 29.5 41.464 29.5 42.4 C 29.5 43.877 30.522 44.587 31.545 44.687 Z M 34 37.1 C 32.7 37.1 31.3 36.2 31.3 34.6 C 31.3 33.4 32.4 32.1 34.3 32.1 C 35.6 32.1 36.555 33.221 36.685 34.342 A 2.245 2.245 0 0 1 36.7 34.6 C 36.7 36.187 35.48 36.989 34.261 37.089 A 3.195 3.195 0 0 1 34 37.1 Z M 37.883 30.209 A 3.484 3.484 0 0 0 38.7 30.3 A 2.802 2.802 0 0 0 38.842 30.296 C 39.704 30.252 40.724 29.815 41.212 28.984 A 2.109 2.109 0 0 0 41.5 27.9 A 2.791 2.791 0 0 0 41.471 27.509 C 41.342 26.602 40.747 25.4 39.1 25.4 A 3.299 3.299 0 0 0 38.075 25.559 C 36.81 25.97 36.1 27.097 36.1 27.9 A 2.563 2.563 0 0 0 36.106 28.07 C 36.16 28.893 36.62 29.905 37.883 30.209 Z M 24.685 43.97 A 3.205 3.205 0 0 0 25.9 44.2 C 27.5 44.2 28.1 43 28.1 42 A 4.048 4.048 0 0 0 28.1 41.945 C 28.087 41.029 27.752 39.3 25.4 39.3 A 3.75 3.75 0 0 0 25.276 39.302 C 23.754 39.352 22.9 40.331 22.9 41.5 A 2 2 0 0 0 22.901 41.575 C 22.935 42.474 23.571 43.517 24.685 43.97 Z M 19.4 50.3 A 2.876 2.876 0 0 0 19.635 50.292 C 19.98 50.263 20.078 50.145 20.096 49.772 A 3.448 3.448 0 0 0 20.1 49.6 C 20.1 48.5 17.3 46.1 17 46.1 A 0.734 0.734 0 0 0 16.897 46.105 C 16.847 46.112 16.809 46.131 16.801 46.18 A 0.127 0.127 0 0 0 16.8 46.2 A 0.357 0.357 0 0 0 16.844 46.345 C 17.122 46.91 18.6 48.366 18.6 49 C 18.6 49.192 18.6 49.2 18.424 49.2 A 12.916 12.916 0 0 1 18.4 49.2 A 0.803 0.803 0 0 1 18.282 49.188 C 17.865 49.123 16.857 48.803 16.405 48.8 A 0.951 0.951 0 0 0 16.4 48.8 A 5.478 5.478 0 0 0 16.306 48.801 C 16.204 48.802 16.14 48.811 16.113 48.849 A 0.088 0.088 0 0 0 16.1 48.9 C 16.1 49.19 18.069 50.231 19.283 50.297 A 2.164 2.164 0 0 0 19.4 50.3 Z M 39.437 35.918 A 2.427 2.427 0 0 0 40.6 36.2 A 4.577 4.577 0 0 0 40.88 36.191 C 41.966 36.125 43.4 35.645 43.4 33.9 A 2.691 2.691 0 0 0 43.396 33.746 C 43.333 32.665 42.622 31.3 41 31.3 A 2.442 2.442 0 0 0 40.78 31.311 C 39.884 31.393 38.2 31.965 38.2 33.8 A 2.41 2.41 0 0 0 39.437 35.918 Z M 27.133 25.681 A 2.043 2.043 0 0 0 27.4 25.7 C 29.1 25.7 30.6 24.3 30.6 23.2 A 1.416 1.416 0 0 0 30.573 22.93 C 30.471 22.409 30.093 21.818 29.533 21.429 A 2.325 2.325 0 0 0 28.2 21 C 27 21 25.1 21.6 25.1 23.9 A 1.426 1.426 0 0 0 25.206 24.448 C 25.525 25.224 26.495 25.595 27.133 25.681 Z M 33.092 25.081 A 2.46 2.46 0 0 0 34.8 25.7 A 1.104 1.104 0 0 0 34.885 25.696 C 35.427 25.654 36.99 25.236 37.4 23.829 A 2.59 2.59 0 0 0 37.5 23.1 C 37.5 22.12 37.1 21.274 36.028 20.996 A 3.301 3.301 0 0 0 35.2 20.9 A 5.692 5.692 0 0 0 34.636 20.926 C 33.645 21.025 32.818 21.419 32.52 22.406 A 3.079 3.079 0 0 0 32.4 23.3 C 32.4 24.088 32.666 24.681 33.092 25.081 Z M 37.846 41.471 A 1.31 1.31 0 0 0 38.1 41.5 C 39.4 41.5 40.7 40.3 40.7 39.4 C 40.7 38.2 39.5 36.9 38 36.9 C 36.7 36.9 35.6 38.2 35.6 39.5 A 1.274 1.274 0 0 0 35.861 40.234 C 36.314 40.872 37.253 41.351 37.846 41.471 Z M 15.4 61.8 C 14.3 61.8 14 61.7 14 61.4 C 14 61 17 60.9 19.3 60.9 A 1.552 1.552 0 0 1 19.419 60.905 C 19.716 60.928 20.1 61.037 20.1 61.3 C 20.1 61.6 19.1 61.7 18.7 61.7 C 17.5 61.7 16.2 61.8 15.4 61.8 Z M 47.7 48.3 L 47.7 48.2 C 47.5 47.8 47.1 47.6 46.4 47.6 A 3.89 3.89 0 0 0 45.888 47.638 C 44.447 47.831 42.445 48.712 42.221 48.962 A 0.065 0.065 0 0 0 42.2 49 C 42.2 49.092 42.368 49.099 42.473 49.1 A 4.363 4.363 0 0 0 42.5 49.1 A 1.475 1.475 0 0 0 42.755 49.069 C 43.281 48.972 44.35 48.667 46.6 48.5 C 47.4 48.5 47.7 48.5 47.7 48.3 Z M 18.4 59.9 A 12.316 12.316 0 0 0 17.547 59.824 C 17.103 59.8 16.713 59.8 16.4 59.8 A 37.581 37.581 0 0 0 16.167 59.801 C 15.228 59.807 14.685 59.84 14.446 59.693 A 0.311 0.311 0 0 1 14.3 59.4 A 0.337 0.337 0 0 1 14.459 59.12 C 14.622 59.003 14.913 58.927 15.349 58.906 A 5.266 5.266 0 0 1 15.6 58.9 A 3.607 3.607 0 0 1 15.661 58.901 C 16.158 58.914 19.422 59.033 19.683 59.624 A 0.187 0.187 0 0 1 19.7 59.7 C 19.7 59.9 19.3 60.1 18.4 59.9 Z M 14.3 48.707 A 6.289 6.289 0 0 0 14.3 48.7 A 0.145 0.145 0 0 0 14.242 48.623 C 13.843 48.268 11.487 47.1 10.3 47.1 C 9.5 47.1 9.2 47.1 9.2 47.3 A 0.43 0.43 0 0 0 9.376 47.611 C 10.201 48.335 13.66 48.8 14.1 48.8 C 14.295 48.8 14.3 48.8 14.3 48.707 Z M 9.035 62.886 A 0.917 0.917 0 0 0 9.2 62.9 A 0.627 0.627 0 0 0 9.246 62.898 C 9.763 62.858 12.406 62.269 12.761 61.719 A 0.22 0.22 0 0 0 12.8 61.6 A 0.236 0.236 0 0 0 12.777 61.497 C 12.698 61.332 12.42 61.247 12.028 61.215 A 5.34 5.34 0 0 0 11.6 61.2 A 6.958 6.958 0 0 0 11.153 61.214 C 9.465 61.323 8.7 62.039 8.7 62.5 C 8.7 62.669 8.771 62.838 9.035 62.886 Z M 47.817 58.996 A 1.254 1.254 0 0 0 47.9 59 A 1.442 1.442 0 0 0 48.084 58.989 C 48.222 58.971 48.317 58.933 48.38 58.881 A 0.34 0.34 0 0 0 48.5 58.6 A 0.502 0.502 0 0 0 48.479 58.456 C 48.364 58.071 47.749 57.6 45.8 57.6 A 14.625 14.625 0 0 0 45.447 57.604 C 44.605 57.624 44.347 57.736 44.386 58.109 A 0.987 0.987 0 0 0 44.4 58.2 A 0.102 0.102 0 0 0 44.426 58.264 C 44.714 58.618 47.264 58.955 47.817 58.996 Z M 15.4 57.7 A 0.096 0.096 0 0 0 15.425 57.761 C 15.654 58.039 17.388 58.3 18.6 58.3 A 144.604 144.604 0 0 0 18.632 58.3 C 18.989 58.3 19.339 58.298 19.504 58.221 A 0.137 0.137 0 0 0 19.6 58.1 C 19.6 57.5 17.9 57.2 16.7 57.2 A 6.889 6.889 0 0 0 16.347 57.208 C 16.065 57.223 15.837 57.258 15.675 57.328 A 0.39 0.39 0 0 0 15.4 57.7 Z M 48.5 61.6 L 48.4 61.6 A 13.57 13.57 0 0 1 47.362 61.458 C 45.996 61.213 45.204 60.808 45.2 60.403 A 0.314 0.314 0 0 1 45.2 60.4 C 45.2 60.211 45.556 60.112 46.016 60.101 A 3.616 3.616 0 0 1 46.1 60.1 A 6.89 6.89 0 0 1 46.455 60.11 C 46.901 60.133 47.388 60.194 47.725 60.261 A 3.743 3.743 0 0 1 47.9 60.3 C 48.459 60.393 48.931 60.833 48.993 61.216 A 0.522 0.522 0 0 1 49 61.3 C 49 61.5 48.8 61.6 48.5 61.6 Z M 10.242 60.295 A 2.47 2.47 0 0 0 10.4 60.3 A 3.511 3.511 0 0 0 10.655 60.29 C 11.731 60.212 13.1 59.678 13.1 59.4 C 13.1 59.1 12.5 58.9 11.9 58.9 C 10.97 58.9 9.98 59.14 9.581 59.481 A 0.435 0.435 0 0 0 9.4 59.8 A 0.344 0.344 0 0 0 9.444 59.972 C 9.568 60.191 9.931 60.275 10.242 60.295 Z M 43.3 56.2 A 0.137 0.137 0 0 0 43.301 56.22 C 43.356 56.6 45.017 56.6 46 56.6 C 46.349 56.6 46.631 56.6 46.805 56.541 A 0.242 0.242 0 0 0 47 56.3 C 47 56.12 46.756 55.695 45.679 55.614 A 5.047 5.047 0 0 0 45.3 55.6 C 44.531 55.6 43.927 55.641 43.591 55.802 A 0.434 0.434 0 0 0 43.3 56.2 Z M 44.8 54.5 L 42.5 54.6 C 42.1 54.6 41.9 54.5 41.9 54.3 A 0.3 0.3 0 0 1 42.008 54.091 C 42.383 53.727 43.633 53.45 44.17 53.406 A 1.619 1.619 0 0 1 44.3 53.4 A 1.397 1.397 0 0 1 44.821 53.502 C 45.164 53.64 45.4 53.894 45.4 54.1 A 0.451 0.451 0 0 1 45.371 54.269 C 45.318 54.403 45.188 54.469 44.984 54.491 A 1.712 1.712 0 0 1 44.8 54.5 Z M 12.152 57.793 A 4.598 4.598 0 0 0 12.4 57.8 C 13.089 57.8 13.72 57.683 13.977 57.493 A 0.25 0.25 0 0 0 14.1 57.3 C 14.1 57.129 13.662 56.812 12.849 56.724 A 4.141 4.141 0 0 0 12.4 56.7 C 11.3 56.7 10.5 57.1 10.5 57.3 A 0.178 0.178 0 0 0 10.581 57.433 C 10.825 57.628 11.573 57.761 12.152 57.793 Z M 19.1 56.8 C 19 56.8 16.2 56.4 16.2 56.2 A 0.618 0.618 0 0 1 16.207 56.105 C 16.238 55.906 16.382 55.63 16.911 55.602 A 1.696 1.696 0 0 1 17 55.6 A 4.231 4.231 0 0 1 17.845 55.685 C 18.895 55.899 19.6 56.46 19.6 56.7 C 19.6 56.787 19.37 56.798 19.179 56.8 A 10.952 10.952 0 0 1 19.1 56.8 Z M 23.788 29.113 A 0.543 0.543 0 0 0 23.8 29 C 23.8 28.556 23.247 27.874 22.773 27.728 A 0.59 0.59 0 0 0 22.6 27.7 A 0.79 0.79 0 0 0 22.386 27.731 C 21.861 27.879 21.331 28.521 21.301 28.962 A 0.568 0.568 0 0 0 21.3 29 A 0.801 0.801 0 0 0 21.727 29.684 C 21.962 29.828 22.255 29.9 22.5 29.9 C 23.054 29.9 23.693 29.559 23.788 29.113 Z M 40.474 52.858 A 0.598 0.598 0 0 0 40.7 52.9 C 41.132 52.9 42.831 52.751 43.287 52.388 A 0.249 0.249 0 0 0 43.4 52.2 A 0.065 0.065 0 0 0 43.398 52.186 C 43.374 52.075 43.074 51.8 42.5 51.8 C 41.947 51.8 40.459 52.14 40.23 52.428 A 0.118 0.118 0 0 0 40.2 52.5 C 40.2 52.644 40.304 52.788 40.474 52.858 Z M 27.8 24.4 A 1.229 1.229 0 0 0 28.933 23.592 A 1.172 1.172 0 0 0 29 23.2 A 1.065 1.065 0 0 0 28.939 22.83 C 28.82 22.507 28.538 22.332 28.198 22.304 A 1.201 1.201 0 0 0 28.1 22.3 C 27.436 22.3 26.773 22.66 26.706 23.208 A 0.755 0.755 0 0 0 26.7 23.3 C 26.7 23.9 27.2 24.4 27.8 24.4 Z M 14.143 55.989 A 3.203 3.203 0 0 0 14.4 56 A 7.195 7.195 0 0 0 14.571 55.999 C 14.883 55.991 15.1 55.94 15.1 55.6 A 0.413 0.413 0 0 0 15.099 55.578 C 15.076 55.141 14.359 54.861 13.642 54.809 A 3.337 3.337 0 0 0 13.4 54.8 A 3.3 3.3 0 0 0 12.852 54.844 C 12.414 54.919 12.1 55.083 12.1 55.3 A 0.114 0.114 0 0 0 12.116 55.355 C 12.262 55.616 13.372 55.926 14.143 55.989 Z M 30.6 30.3 A 1.045 1.045 0 0 0 30.818 30.276 C 31.204 30.193 31.59 29.902 31.68 29.486 A 0.873 0.873 0 0 0 31.7 29.3 C 31.7 28.998 31.517 28.658 31.24 28.438 A 1.033 1.033 0 0 0 30.6 28.2 A 1.199 1.199 0 0 0 29.944 28.395 C 29.608 28.613 29.4 28.977 29.4 29.3 C 29.4 29.83 29.686 30.13 30.129 30.245 A 1.882 1.882 0 0 0 30.6 30.3 Z M 34 35.8 A 1.593 1.593 0 0 0 34.543 35.709 C 34.944 35.564 35.2 35.257 35.2 34.9 A 1.066 1.066 0 0 0 35.193 34.787 C 35.155 34.434 34.944 33.722 34.277 33.614 A 1.107 1.107 0 0 0 34.1 33.6 A 0.942 0.942 0 0 0 33.366 33.954 C 33.27 34.072 33.194 34.219 33.149 34.396 A 1.613 1.613 0 0 0 33.1 34.8 A 1.569 1.569 0 0 0 33.118 35.045 C 33.229 35.744 33.812 35.796 33.97 35.8 A 1.141 1.141 0 0 0 34 35.8 Z M 41 35 A 0.717 0.717 0 0 0 41.333 34.924 C 41.614 34.78 41.748 34.449 41.787 34.118 A 1.854 1.854 0 0 0 41.8 33.9 C 41.8 33.5 41.7 32.8 41 32.8 A 1.36 1.36 0 0 0 39.902 33.392 A 1.085 1.085 0 0 0 39.7 34 A 0.911 0.911 0 0 0 40.16 34.749 C 40.405 34.909 40.714 35 41 35 Z M 16.9 54.6 A 0.249 0.249 0 0 0 16.983 54.77 C 17.391 55.188 19.17 55.5 19.7 55.5 A 0.189 0.189 0 0 0 19.809 55.462 A 0.21 0.21 0 0 0 19.9 55.3 A 0.145 0.145 0 0 0 19.887 55.244 C 19.768 54.965 18.852 54.464 17.998 54.333 A 2.624 2.624 0 0 0 17.6 54.3 C 17.347 54.3 17.134 54.34 17.011 54.42 A 0.214 0.214 0 0 0 16.9 54.6 Z M 20.2 36.6 A 1.901 1.901 0 0 0 20.569 36.567 C 20.88 36.505 21.08 36.363 21.19 36.189 A 0.721 0.721 0 0 0 21.3 35.8 A 1.217 1.217 0 0 0 21.278 35.572 C 21.175 35.037 20.74 34.503 20.304 34.5 A 0.548 0.548 0 0 0 20.3 34.5 C 19.689 34.5 19.231 35.109 19.124 35.596 A 0.957 0.957 0 0 0 19.1 35.8 A 0.634 0.634 0 0 0 19.275 36.213 C 19.472 36.436 19.816 36.6 20.2 36.6 Z M 38.9 29 A 1.464 1.464 0 0 0 39.311 28.946 C 39.771 28.812 39.971 28.44 39.997 28 A 1.716 1.716 0 0 0 40 27.9 A 0.997 0.997 0 0 0 39.517 26.998 C 39.401 26.937 39.265 26.901 39.108 26.9 A 1.082 1.082 0 0 0 39.1 26.9 A 1.737 1.737 0 0 0 38.701 26.942 C 38.316 27.033 38.109 27.272 38.034 27.634 A 1.802 1.802 0 0 0 38 28 C 38 28.7 38.5 29 38.9 29 Z M 34.9 24.4 A 1.144 1.144 0 0 0 35.902 23.667 A 1.197 1.197 0 0 0 36 23.2 A 0.801 0.801 0 0 0 35.908 22.822 C 35.725 22.474 35.304 22.3 35 22.3 A 1.083 1.083 0 0 0 34.515 22.41 C 34.195 22.568 33.991 22.875 33.924 23.182 A 1.027 1.027 0 0 0 33.9 23.4 A 0.742 0.742 0 0 0 33.921 23.568 C 33.974 23.794 34.125 24.045 34.349 24.212 A 0.915 0.915 0 0 0 34.9 24.4 Z M 32.2 43.4 A 0.824 0.824 0 0 0 32.736 43.173 C 32.898 43.03 33.033 42.829 33.115 42.597 A 1.497 1.497 0 0 0 33.2 42.1 A 0.775 0.775 0 0 0 33.087 41.684 C 32.973 41.502 32.782 41.379 32.552 41.327 A 1.154 1.154 0 0 0 32.3 41.3 A 1.794 1.794 0 0 0 32.082 41.313 C 31.674 41.363 31.266 41.566 31.207 42.071 A 1.113 1.113 0 0 0 31.2 42.2 A 1.527 1.527 0 0 0 31.301 42.763 C 31.455 43.151 31.776 43.398 32.195 43.4 A 1.088 1.088 0 0 0 32.2 43.4 Z M 27.3 36.3 A 1.295 1.295 0 0 0 27.949 36.149 C 28.112 36.053 28.234 35.907 28.28 35.696 A 0.917 0.917 0 0 0 28.3 35.5 C 28.3 35.061 27.914 34.468 27.414 34.33 A 0.803 0.803 0 0 0 27.2 34.3 C 26.642 34.3 26.257 34.906 26.206 35.393 A 1.031 1.031 0 0 0 26.2 35.5 C 26.2 36 26.8 36.3 27.3 36.3 Z M 25.6 42.7 A 1.432 1.432 0 0 0 26.029 42.639 C 26.383 42.528 26.6 42.268 26.6 41.9 A 1.223 1.223 0 0 0 25.613 40.707 A 0.904 0.904 0 0 0 25.5 40.7 A 0.606 0.606 0 0 0 25.342 40.723 C 25.154 40.774 24.948 40.908 24.786 41.093 A 1.092 1.092 0 0 0 24.5 41.8 A 0.78 0.78 0 0 0 24.632 42.243 C 24.837 42.548 25.244 42.7 25.6 42.7 Z M 24.161 59.296 A 0.244 0.244 0 0 0 24.2 59.3 C 24.554 59.3 25.377 58.517 25.563 57.852 A 0.945 0.945 0 0 0 25.6 57.6 A 3.365 3.365 0 0 0 25.6 57.548 C 25.594 57.216 25.538 57.13 25.431 57.108 A 0.673 0.673 0 0 0 25.3 57.1 C 24.849 57.1 23.992 58.157 23.828 58.732 A 0.628 0.628 0 0 0 23.8 58.9 A 0.4 0.4 0 0 0 23.812 58.999 C 23.862 59.195 24.054 59.278 24.161 59.296 Z M 38.2 40.1 A 0.482 0.482 0 0 0 38.314 40.085 C 38.581 40.019 38.96 39.747 39.069 39.397 A 0.659 0.659 0 0 0 39.1 39.2 C 39.1 38.6 38.8 38.2 38.1 38.2 A 0.806 0.806 0 0 0 37.83 38.244 C 37.314 38.426 37.212 39.122 37.201 39.357 A 0.915 0.915 0 0 0 37.2 39.4 A 0.511 0.511 0 0 0 37.366 39.754 C 37.543 39.935 37.834 40.061 38.083 40.092 A 0.936 0.936 0 0 0 38.2 40.1 Z M 15.649 54.299 A 1.662 1.662 0 0 0 15.7 54.3 C 15.966 54.3 16.232 54.143 16.289 54.038 A 0.081 0.081 0 0 0 16.3 54 C 16.3 53.6 15.7 53.3 14.7 53.3 A 2.806 2.806 0 0 0 14.331 53.322 C 14.202 53.339 14.082 53.368 13.982 53.413 A 0.413 0.413 0 0 0 13.7 53.8 A 0.175 0.175 0 0 0 13.77 53.93 C 14.081 54.203 15.339 54.289 15.649 54.299 Z M 23.9 54.9 A 0.414 0.414 0 0 0 23.903 54.946 C 23.955 55.418 24.809 55.7 25.1 55.7 C 25.369 55.7 25.8 55.136 25.885 54.803 A 0.424 0.424 0 0 0 25.9 54.7 A 1.171 1.171 0 0 0 25.889 54.535 C 25.822 54.063 25.461 53.9 25.1 53.9 A 1.399 1.399 0 0 0 24.562 54.008 A 0.989 0.989 0 0 0 23.9 54.9 Z M 22.979 58.103 A 0.309 0.309 0 0 0 23.2 58.2 C 23.379 58.2 24.196 57.402 24.368 56.804 A 0.743 0.743 0 0 0 24.4 56.6 C 24.4 56.2 23.9 56 23.6 56 A 0.517 0.517 0 0 0 23.26 56.146 C 23.086 56.299 22.939 56.568 22.861 56.92 A 2.671 2.671 0 0 0 22.8 57.5 C 22.8 57.806 22.875 57.999 22.979 58.103 Z M 27.3 54.3 A 1.029 1.029 0 0 0 27.336 54.583 C 27.445 54.965 27.789 55.1 28.2 55.1 C 28.6 55.1 29 54.8 29 54.4 A 0.956 0.956 0 0 0 28.959 54.124 C 28.867 53.819 28.637 53.587 28.422 53.52 A 0.409 0.409 0 0 0 28.3 53.5 C 27.7 53.5 27.3 53.9 27.3 54.3 Z M 21.7 52.3 A 0.206 0.206 0 0 0 21.741 52.296 C 21.837 52.276 21.975 52.191 21.997 52.041 A 0.286 0.286 0 0 0 22 52 C 22 51.4 21.3 50.4 20.7 50.4 C 20.518 50.4 20.502 50.482 20.5 50.572 A 1.611 1.611 0 0 0 20.5 50.6 C 20.5 51.081 21.149 52.212 21.644 52.295 A 0.34 0.34 0 0 0 21.7 52.3 Z M 30.3 51.5 A 1.144 1.144 0 0 0 30.301 51.546 C 30.316 51.923 30.523 52.2 31.1 52.2 A 0.507 0.507 0 0 0 31.151 52.197 C 31.541 52.158 32 51.679 32 51.2 C 32 50.653 31.334 50.605 31.141 50.6 A 1.793 1.793 0 0 0 31.1 50.6 A 0.307 0.307 0 0 0 31.055 50.603 C 30.792 50.642 30.414 51.005 30.321 51.35 A 0.58 0.58 0 0 0 30.3 51.5 Z M 28.7 52.9 L 28.7 52.8 C 28.7 52.643 28.885 52.24 29.205 52.074 A 0.634 0.634 0 0 1 29.5 52 A 1.065 1.065 0 0 1 29.87 52.061 C 30.193 52.18 30.368 52.462 30.396 52.802 A 1.201 1.201 0 0 1 30.4 52.9 C 30.4 53.383 29.746 53.586 29.522 53.599 A 0.376 0.376 0 0 1 29.5 53.6 C 29.337 53.6 28.907 53.4 28.755 53.109 A 0.449 0.449 0 0 1 28.7 52.9 Z M 26.149 53.747 A 1.108 1.108 0 0 0 26.5 53.8 C 26.917 53.8 27.125 53.453 27.183 53.106 A 1.257 1.257 0 0 0 27.2 52.9 C 27.2 52.654 27.066 52.342 26.743 52.236 A 0.78 0.78 0 0 0 26.5 52.2 A 0.887 0.887 0 0 0 25.941 52.416 C 25.778 52.551 25.661 52.727 25.618 52.879 A 0.449 0.449 0 0 0 25.6 53 C 25.6 53.313 25.783 53.625 26.149 53.747 Z M 19.329 54.194 A 0.65 0.65 0 0 0 19.4 54.2 C 19.7 54.2 19.8 54.1 19.8 54 C 19.8 53.5 18.6 53.2 18.3 53.2 C 18.122 53.2 17.787 53.121 17.714 53.314 A 0.243 0.243 0 0 0 17.7 53.4 C 17.7 53.86 18.97 54.151 19.329 54.194 Z M 26.3 51.2 C 26 51.2 25.6 51 25.6 50.7 A 0.737 0.737 0 0 1 25.788 50.21 C 26.019 49.942 26.414 49.805 26.684 49.8 A 0.824 0.824 0 0 1 26.7 49.8 A 1.642 1.642 0 0 1 26.904 49.811 C 27.137 49.841 27.268 49.931 27.295 50.12 A 0.561 0.561 0 0 1 27.3 50.2 A 1.17 1.17 0 0 1 27.238 50.591 C 27.089 51.013 26.695 51.2 26.3 51.2 Z M 28.8 50.3 A 0.675 0.675 0 0 0 28.8 50.312 C 28.805 50.608 29.005 50.9 29.4 50.9 A 1.778 1.778 0 0 0 29.456 50.899 C 30.116 50.878 30.4 50.489 30.4 50.1 C 30.4 49.871 30.226 49.584 29.921 49.461 A 0.85 0.85 0 0 0 29.6 49.4 C 29.157 49.4 28.871 49.87 28.812 50.186 A 0.619 0.619 0 0 0 28.8 50.3 Z M 28.057 52.297 A 0.401 0.401 0 0 0 28.1 52.3 C 28.4 52.3 28.644 52.131 28.747 51.836 A 1.017 1.017 0 0 0 28.8 51.5 A 3.565 3.565 0 0 0 28.8 51.461 C 28.798 51.242 28.758 50.8 28.1 50.8 C 27.75 50.8 27.4 51.106 27.318 51.384 A 0.411 0.411 0 0 0 27.3 51.5 C 27.3 52.134 27.875 52.276 28.057 52.297 Z M 26.457 56.664 A 0.78 0.78 0 0 0 26.7 56.7 A 0.55 0.55 0 0 0 27.071 56.56 C 27.302 56.358 27.4 55.98 27.4 55.7 A 0.567 0.567 0 0 0 27.188 55.244 C 27.125 55.194 27.046 55.155 26.95 55.13 A 0.991 0.991 0 0 0 26.7 55.1 C 26.5 55.1 26 55.6 26 56 C 26 56.246 26.134 56.558 26.457 56.664 Z M 30.749 49.255 A 0.583 0.583 0 0 0 31.3 49.6 A 1.239 1.239 0 0 0 31.795 49.498 A 0.768 0.768 0 0 0 32.3 48.8 A 0.314 0.314 0 0 0 32.271 48.672 C 32.159 48.42 31.743 48.2 31.4 48.2 A 0.381 0.381 0 0 0 31.328 48.207 C 31.04 48.263 30.7 48.631 30.7 49 C 30.7 49.097 30.718 49.182 30.749 49.255 Z M 28.1 49.7 C 27.6 49.7 27.2 49.3 27.2 49 C 27.2 48.717 27.732 48.435 28.045 48.403 A 0.546 0.546 0 0 1 28.1 48.4 A 0.621 0.621 0 0 1 28.369 48.456 C 28.522 48.529 28.623 48.668 28.669 48.846 A 1.001 1.001 0 0 1 28.7 49.1 C 28.7 49.581 28.33 49.784 28.123 49.71 A 0.218 0.218 0 0 1 28.1 49.7 Z M 28.9 48.4 A 0.419 0.419 0 0 0 29.028 48.702 C 29.152 48.827 29.358 48.9 29.6 48.9 C 29.846 48.9 30.158 48.833 30.264 48.589 A 0.472 0.472 0 0 0 30.3 48.4 A 0.161 0.161 0 0 0 30.299 48.38 C 30.277 48.207 29.984 47.971 29.716 47.913 A 0.551 0.551 0 0 0 29.6 47.9 C 29.335 47.9 28.991 48.135 28.915 48.327 A 0.2 0.2 0 0 0 28.9 48.4 Z M 32.465 50.667 A 0.696 0.696 0 0 0 32.7 50.7 A 0.347 0.347 0 0 0 32.732 50.698 C 32.94 50.679 33.3 50.48 33.3 50.1 C 33.3 49.8 33 49.6 32.8 49.6 C 32.544 49.6 32.37 49.682 32.277 49.82 A 0.496 0.496 0 0 0 32.2 50.1 A 1.795 1.795 0 0 0 32.2 50.13 C 32.206 50.462 32.305 50.609 32.465 50.667 Z" vector-effect="non-scaling-stroke"/></g></svg>