<svg width="58" height="83" viewBox="0 0 58 83" xmlns="http://www.w3.org/2000/svg"><g id="svgGroup" stroke-linecap="round" fill-rule="evenodd" font-size="9pt" stroke="#b23227" stroke-width="0.05mm" fill="#b23227" style="stroke:#b23227;stroke-width:0.05mm;fill:#b23227"><path d="M 6 83 L 52 83 C 55.3 83 58 80.3 58 77 L 58 6 C 58 2.7 55.3 0 52 0 L 6 0 C 2.7 0 0 2.7 0 6 L 0 77 C 0 80.3 2.7 83 6 83 Z M 3 77 L 3 6 A 3.001 3.001 0 0 1 3.764 3.966 C 4.307 3.367 5.097 3 6 3 L 52 3 A 3.001 3.001 0 0 1 54.034 3.764 C 54.633 4.307 55 5.097 55 6 L 55 77 A 3.001 3.001 0 0 1 54.236 79.034 C 53.693 79.633 52.903 80 52 80 L 6 80 A 3.001 3.001 0 0 1 3.966 79.236 C 3.367 78.693 3 77.903 3 77 Z M 20.3 68.5 L 20.3 63.8 A 1.122 1.122 0 0 1 20.476 63.248 C 21.045 62.263 22.8 61.092 22.8 59.5 A 3.041 3.041 0 0 0 22.09 57.701 C 21.533 56.954 20.797 56.317 20.47 55.742 A 1.111 1.111 0 0 1 20.3 55.2 L 20.3 50.4 A 1.626 1.626 0 0 1 20.776 49.316 C 21.018 49.038 21.32 48.78 21.6 48.5 A 4.084 4.084 0 0 0 22.688 47.59 C 22.927 47.28 23.082 46.919 23.099 46.477 A 2.102 2.102 0 0 0 23.1 46.4 A 2.143 2.143 0 0 0 22.959 45.622 C 22.553 44.571 21.374 44.1 20.8 44.1 A 1.591 1.591 0 0 1 20.329 44.031 C 19.409 43.75 18.992 42.7 17 42.7 C 14.824 42.7 14.528 43.954 13.4 44.088 A 1.687 1.687 0 0 1 13.2 44.1 A 1.498 1.498 0 0 0 12.933 44.127 C 12.24 44.254 11.155 44.839 10.938 45.983 A 2.237 2.237 0 0 0 10.9 46.4 C 10.9 47.28 11.441 47.85 12.116 48.314 A 7.616 7.616 0 0 0 12.4 48.5 C 13 49.1 13.7 49.6 13.7 50.4 L 13.7 55.2 A 1.122 1.122 0 0 1 13.524 55.752 C 12.955 56.737 11.2 57.908 11.2 59.5 A 3.041 3.041 0 0 0 11.91 61.299 C 12.467 62.046 13.203 62.683 13.53 63.258 A 1.111 1.111 0 0 1 13.7 63.8 L 13.7 68.5 A 1.626 1.626 0 0 1 13.224 69.584 C 12.982 69.862 12.68 70.12 12.4 70.4 A 4.084 4.084 0 0 0 11.312 71.31 C 11.073 71.62 10.918 71.981 10.901 72.423 A 2.102 2.102 0 0 0 10.9 72.5 A 2.136 2.136 0 0 0 11.466 73.975 C 11.948 74.499 12.691 74.8 13.5 74.8 C 15.042 74.8 15.191 73.964 16.811 73.903 A 5.061 5.061 0 0 1 17 73.9 C 18.8 73.9 18.9 74.8 20.5 74.8 A 2.886 2.886 0 0 0 22.163 74.3 C 22.731 73.899 23.1 73.277 23.1 72.5 C 23.1 71.62 22.559 71.05 21.884 70.586 A 7.616 7.616 0 0 0 21.6 70.4 C 21 69.8 20.3 69.3 20.3 68.5 Z M 20.3 33 L 20.3 28.3 A 1.122 1.122 0 0 1 20.476 27.748 C 21.045 26.763 22.8 25.592 22.8 24 A 3.041 3.041 0 0 0 22.09 22.201 C 21.533 21.454 20.797 20.817 20.47 20.242 A 1.111 1.111 0 0 1 20.3 19.7 L 20.3 14.9 A 1.626 1.626 0 0 1 20.776 13.816 C 21.018 13.538 21.32 13.28 21.6 13 A 4.084 4.084 0 0 0 22.688 12.09 C 22.927 11.78 23.082 11.419 23.099 10.977 A 2.102 2.102 0 0 0 23.1 10.9 A 2.143 2.143 0 0 0 22.959 10.122 C 22.553 9.071 21.374 8.6 20.8 8.6 A 1.591 1.591 0 0 1 20.329 8.531 C 19.409 8.25 18.992 7.2 17 7.2 C 14.824 7.2 14.528 8.454 13.4 8.588 A 1.687 1.687 0 0 1 13.2 8.6 A 1.498 1.498 0 0 0 12.933 8.627 C 12.24 8.754 11.155 9.339 10.938 10.483 A 2.237 2.237 0 0 0 10.9 10.9 C 10.9 11.78 11.441 12.35 12.116 12.814 A 7.616 7.616 0 0 0 12.4 13 C 13 13.6 13.7 14.1 13.7 14.9 L 13.7 19.7 A 1.122 1.122 0 0 1 13.524 20.252 C 12.955 21.237 11.2 22.408 11.2 24 A 3.041 3.041 0 0 0 11.91 25.799 C 12.467 26.546 13.203 27.183 13.53 27.758 A 1.111 1.111 0 0 1 13.7 28.3 L 13.7 33 A 1.626 1.626 0 0 1 13.224 34.084 C 12.982 34.362 12.68 34.62 12.4 34.9 A 4.084 4.084 0 0 0 11.312 35.81 C 11.073 36.12 10.918 36.481 10.901 36.923 A 2.102 2.102 0 0 0 10.9 37 A 2.136 2.136 0 0 0 11.466 38.475 C 11.948 38.999 12.691 39.3 13.5 39.3 C 15.042 39.3 15.191 38.464 16.811 38.403 A 5.061 5.061 0 0 1 17 38.4 C 18.8 38.4 18.9 39.3 20.5 39.3 A 2.886 2.886 0 0 0 22.163 38.8 C 22.731 38.399 23.1 37.777 23.1 37 C 23.1 36.12 22.559 35.55 21.884 35.086 A 7.616 7.616 0 0 0 21.6 34.9 C 21 34.3 20.3 33.8 20.3 33 Z M 44.3 33 L 44.3 28.3 A 1.122 1.122 0 0 1 44.476 27.748 C 45.045 26.763 46.8 25.592 46.8 24 A 3.041 3.041 0 0 0 46.09 22.201 C 45.533 21.454 44.797 20.817 44.47 20.242 A 1.111 1.111 0 0 1 44.3 19.7 L 44.3 14.9 A 1.626 1.626 0 0 1 44.776 13.816 C 45.018 13.538 45.32 13.28 45.6 13 A 4.084 4.084 0 0 0 46.688 12.09 C 46.927 11.78 47.082 11.419 47.099 10.977 A 2.102 2.102 0 0 0 47.1 10.9 C 47.1 9.3 45.5 8.6 44.8 8.6 A 1.591 1.591 0 0 1 44.329 8.531 C 43.409 8.25 42.992 7.2 41 7.2 C 38.824 7.2 38.528 8.454 37.4 8.588 A 1.687 1.687 0 0 1 37.2 8.6 A 1.498 1.498 0 0 0 36.933 8.627 C 36.24 8.754 35.155 9.339 34.938 10.483 A 2.237 2.237 0 0 0 34.9 10.9 C 34.9 11.78 35.441 12.35 36.116 12.814 A 7.616 7.616 0 0 0 36.4 13 C 37 13.6 37.7 14.1 37.7 14.9 L 37.7 19.7 A 1.122 1.122 0 0 1 37.524 20.252 C 36.955 21.237 35.2 22.408 35.2 24 A 3.041 3.041 0 0 0 35.91 25.799 C 36.467 26.546 37.203 27.183 37.53 27.758 A 1.111 1.111 0 0 1 37.7 28.3 L 37.7 33 A 1.626 1.626 0 0 1 37.224 34.084 C 36.982 34.362 36.68 34.62 36.4 34.9 A 4.084 4.084 0 0 0 35.312 35.81 C 35.073 36.12 34.918 36.481 34.901 36.923 A 2.102 2.102 0 0 0 34.9 37 A 2.136 2.136 0 0 0 35.466 38.475 C 35.948 38.999 36.691 39.3 37.5 39.3 C 39.042 39.3 39.191 38.464 40.811 38.403 A 5.061 5.061 0 0 1 41 38.4 C 42.8 38.4 42.9 39.3 44.5 39.3 A 2.886 2.886 0 0 0 46.163 38.8 C 46.731 38.399 47.1 37.777 47.1 37 C 47.1 36.12 46.559 35.55 45.884 35.086 A 7.616 7.616 0 0 0 45.6 34.9 C 45 34.3 44.3 33.8 44.3 33 Z M 44.3 68.5 L 44.3 63.8 A 1.122 1.122 0 0 1 44.476 63.248 C 45.045 62.263 46.8 61.092 46.8 59.5 A 3.041 3.041 0 0 0 46.09 57.701 C 45.533 56.954 44.797 56.317 44.47 55.742 A 1.111 1.111 0 0 1 44.3 55.2 L 44.3 50.4 A 1.626 1.626 0 0 1 44.776 49.316 C 45.018 49.038 45.32 48.78 45.6 48.5 A 4.084 4.084 0 0 0 46.688 47.59 C 46.927 47.28 47.082 46.919 47.099 46.477 A 2.102 2.102 0 0 0 47.1 46.4 C 47.1 44.8 45.5 44.1 44.8 44.1 A 1.591 1.591 0 0 1 44.329 44.031 C 43.409 43.75 42.992 42.7 41 42.7 C 38.824 42.7 38.528 43.954 37.4 44.088 A 1.687 1.687 0 0 1 37.2 44.1 A 1.498 1.498 0 0 0 36.933 44.127 C 36.24 44.254 35.155 44.839 34.938 45.983 A 2.237 2.237 0 0 0 34.9 46.4 C 34.9 47.28 35.441 47.85 36.116 48.314 A 7.616 7.616 0 0 0 36.4 48.5 C 37 49.1 37.7 49.6 37.7 50.4 L 37.7 55.2 A 1.122 1.122 0 0 1 37.524 55.752 C 36.955 56.737 35.2 57.908 35.2 59.5 A 3.041 3.041 0 0 0 35.91 61.299 C 36.467 62.046 37.203 62.683 37.53 63.258 A 1.111 1.111 0 0 1 37.7 63.8 L 37.7 68.5 A 1.626 1.626 0 0 1 37.224 69.584 C 36.982 69.862 36.68 70.12 36.4 70.4 A 4.084 4.084 0 0 0 35.312 71.31 C 35.073 71.62 34.918 71.981 34.901 72.423 A 2.102 2.102 0 0 0 34.9 72.5 A 2.136 2.136 0 0 0 35.466 73.975 C 35.948 74.499 36.691 74.8 37.5 74.8 C 39.042 74.8 39.191 73.964 40.811 73.903 A 5.061 5.061 0 0 1 41 73.9 C 42.8 73.9 42.9 74.8 44.5 74.8 A 2.886 2.886 0 0 0 46.163 74.3 C 46.731 73.899 47.1 73.277 47.1 72.5 C 47.1 71.62 46.559 71.05 45.884 70.586 A 7.616 7.616 0 0 0 45.6 70.4 C 45 69.8 44.3 69.3 44.3 68.5 Z M 39.5 21 L 39.5 12.8 C 38.9 12.4 38.5 11.7 38.5 11 A 2.18 2.18 0 0 1 39.8 9.069 A 2.76 2.76 0 0 1 41 8.8 A 2.718 2.718 0 0 1 42.468 9.218 A 2.133 2.133 0 0 1 43.5 11 C 43.5 11.7 43.1 12.4 42.5 12.8 L 42.5 21 L 39.5 21 Z M 15.5 21 L 15.5 12.8 C 14.9 12.4 14.5 11.7 14.5 11 A 2.18 2.18 0 0 1 15.8 9.069 A 2.76 2.76 0 0 1 17 8.8 A 2.718 2.718 0 0 1 18.468 9.218 A 2.133 2.133 0 0 1 19.5 11 C 19.5 11.7 19.1 12.4 18.5 12.8 L 18.5 21 L 15.5 21 Z M 39.5 56.5 L 39.5 48.3 C 38.9 47.9 38.5 47.2 38.5 46.5 A 2.18 2.18 0 0 1 39.8 44.569 A 2.76 2.76 0 0 1 41 44.3 A 2.718 2.718 0 0 1 42.468 44.718 A 2.133 2.133 0 0 1 43.5 46.5 C 43.5 47.2 43.1 47.9 42.5 48.3 L 42.5 56.5 L 39.5 56.5 Z M 15.5 56.5 L 15.5 48.3 C 14.9 47.9 14.5 47.2 14.5 46.5 A 2.18 2.18 0 0 1 15.8 44.569 A 2.76 2.76 0 0 1 17 44.3 A 2.718 2.718 0 0 1 18.468 44.718 A 2.133 2.133 0 0 1 19.5 46.5 C 19.5 47.2 19.1 47.9 18.5 48.3 L 18.5 56.5 L 15.5 56.5 Z M 15.5 71.3 L 15.5 62.5 L 18.5 62.5 L 18.5 71.3 A 1.405 1.405 0 0 1 18.362 71.94 C 18.15 72.358 17.696 72.6 17 72.6 A 2.286 2.286 0 0 1 16.434 72.535 C 15.871 72.391 15.562 72.014 15.509 71.476 A 1.766 1.766 0 0 1 15.5 71.3 Z M 39.5 71.3 L 39.5 62.5 L 42.5 62.5 L 42.5 71.3 A 1.405 1.405 0 0 1 42.362 71.94 C 42.15 72.358 41.696 72.6 41 72.6 A 2.286 2.286 0 0 1 40.434 72.535 C 39.871 72.391 39.562 72.014 39.509 71.476 A 1.766 1.766 0 0 1 39.5 71.3 Z M 15.5 35.8 L 15.5 27 L 18.5 27 L 18.5 35.8 A 1.405 1.405 0 0 1 18.362 36.44 C 18.15 36.858 17.696 37.1 17 37.1 A 2.286 2.286 0 0 1 16.434 37.035 C 15.871 36.891 15.562 36.514 15.509 35.976 A 1.766 1.766 0 0 1 15.5 35.8 Z M 39.5 35.8 L 39.5 27 L 42.5 27 L 42.5 35.8 A 1.405 1.405 0 0 1 42.362 36.44 C 42.15 36.858 41.696 37.1 41 37.1 A 2.286 2.286 0 0 1 40.434 37.035 C 39.871 36.891 39.562 36.514 39.509 35.976 A 1.766 1.766 0 0 1 39.5 35.8 Z M 14.7 57.5 L 19.3 57.5 C 19.9 57.5 20.3 57.8 20.3 58.2 C 20.3 58.6 19.9 59 19.3 59 L 14.7 59 A 1.432 1.432 0 0 1 14.271 58.939 C 13.917 58.828 13.7 58.568 13.7 58.2 C 13.7 57.883 13.951 57.629 14.353 57.537 A 1.557 1.557 0 0 1 14.7 57.5 Z M 14.7 60 L 19.3 60 C 19.9 60 20.3 60.3 20.3 60.7 C 20.3 61.1 19.9 61.5 19.3 61.5 L 14.7 61.5 A 1.432 1.432 0 0 1 14.271 61.439 C 13.917 61.328 13.7 61.068 13.7 60.7 C 13.7 60.383 13.951 60.129 14.353 60.037 A 1.557 1.557 0 0 1 14.7 60 Z M 14.7 22 L 19.3 22 C 19.9 22 20.3 22.3 20.3 22.7 C 20.3 23.1 19.9 23.5 19.3 23.5 L 14.7 23.5 A 1.432 1.432 0 0 1 14.271 23.439 C 13.917 23.328 13.7 23.068 13.7 22.7 C 13.7 22.383 13.951 22.129 14.353 22.037 A 1.557 1.557 0 0 1 14.7 22 Z M 14.7 24.5 L 19.3 24.5 C 19.9 24.5 20.3 24.8 20.3 25.2 C 20.3 25.6 19.9 26 19.3 26 L 14.7 26 A 1.432 1.432 0 0 1 14.271 25.939 C 13.917 25.828 13.7 25.568 13.7 25.2 C 13.7 24.883 13.951 24.629 14.353 24.537 A 1.557 1.557 0 0 1 14.7 24.5 Z M 38.7 22 L 43.3 22 C 43.9 22 44.3 22.3 44.3 22.7 C 44.3 23.1 43.9 23.5 43.3 23.5 L 38.7 23.5 A 1.432 1.432 0 0 1 38.271 23.439 C 37.917 23.328 37.7 23.068 37.7 22.7 C 37.7 22.383 37.951 22.129 38.353 22.037 A 1.557 1.557 0 0 1 38.7 22 Z M 38.7 24.5 L 43.3 24.5 C 43.9 24.5 44.3 24.8 44.3 25.2 C 44.3 25.6 43.9 26 43.3 26 L 38.7 26 A 1.432 1.432 0 0 1 38.271 25.939 C 37.917 25.828 37.7 25.568 37.7 25.2 C 37.7 24.883 37.951 24.629 38.353 24.537 A 1.557 1.557 0 0 1 38.7 24.5 Z M 38.7 57.5 L 43.3 57.5 C 43.9 57.5 44.3 57.8 44.3 58.2 C 44.3 58.6 43.9 59 43.3 59 L 38.7 59 A 1.432 1.432 0 0 1 38.271 58.939 C 37.917 58.828 37.7 58.568 37.7 58.2 C 37.7 57.883 37.951 57.629 38.353 57.537 A 1.557 1.557 0 0 1 38.7 57.5 Z M 38.7 60 L 43.3 60 C 43.9 60 44.3 60.3 44.3 60.7 C 44.3 61.1 43.9 61.5 43.3 61.5 L 38.7 61.5 A 1.432 1.432 0 0 1 38.271 61.439 C 37.917 61.328 37.7 61.068 37.7 60.7 C 37.7 60.383 37.951 60.129 38.353 60.037 A 1.557 1.557 0 0 1 38.7 60 Z" vector-effect="non-scaling-stroke"/></g></svg>