<svg width="58" height="83" viewBox="0 0 58 83" xmlns="http://www.w3.org/2000/svg"><g id="svgGroup" stroke-linecap="round" fill-rule="evenodd" font-size="9pt" stroke="#b23227" stroke-width="0.05mm" fill="#b23227" style="stroke:#b23227;stroke-width:0.05mm;fill:#b23227"><path d="M 6 83 L 52 83 C 55.3 83 58 80.3 58 77 L 58 6 C 58 2.7 55.3 0 52 0 L 6 0 C 2.7 0 0 2.7 0 6 L 0 77 C 0 80.3 2.7 83 6 83 Z M 3 77 L 3 6 A 3.001 3.001 0 0 1 3.764 3.966 C 4.307 3.367 5.097 3 6 3 L 52 3 A 3.001 3.001 0 0 1 54.034 3.764 C 54.633 4.307 55 5.097 55 6 L 55 77 A 3.001 3.001 0 0 1 54.236 79.034 C 53.693 79.633 52.903 80 52 80 L 6 80 A 3.001 3.001 0 0 1 3.966 79.236 C 3.367 78.693 3 77.903 3 77 Z M 16.8 68.5 L 16.8 63.8 A 1.122 1.122 0 0 1 16.976 63.248 C 17.545 62.263 19.3 61.092 19.3 59.5 A 3.041 3.041 0 0 0 18.59 57.701 C 18.033 56.954 17.297 56.317 16.97 55.742 A 1.111 1.111 0 0 1 16.8 55.2 L 16.8 50.4 A 1.626 1.626 0 0 1 17.276 49.316 C 17.518 49.038 17.82 48.78 18.1 48.5 A 4.084 4.084 0 0 0 19.188 47.59 C 19.427 47.28 19.582 46.919 19.599 46.477 A 2.102 2.102 0 0 0 19.6 46.4 A 2.143 2.143 0 0 0 19.459 45.622 C 19.053 44.571 17.874 44.1 17.3 44.1 A 1.591 1.591 0 0 1 16.829 44.031 C 15.909 43.75 15.492 42.7 13.5 42.7 C 11.324 42.7 11.028 43.954 9.9 44.088 A 1.687 1.687 0 0 1 9.7 44.1 A 1.498 1.498 0 0 0 9.433 44.127 C 8.74 44.254 7.655 44.839 7.438 45.983 A 2.237 2.237 0 0 0 7.4 46.4 C 7.4 47.28 7.941 47.85 8.616 48.314 A 7.616 7.616 0 0 0 8.9 48.5 C 9.5 49.1 10.2 49.6 10.2 50.4 L 10.2 55.2 A 1.122 1.122 0 0 1 10.024 55.752 C 9.455 56.737 7.7 57.908 7.7 59.5 A 3.041 3.041 0 0 0 8.41 61.299 C 8.967 62.046 9.703 62.683 10.03 63.258 A 1.111 1.111 0 0 1 10.2 63.8 L 10.2 68.5 A 1.626 1.626 0 0 1 9.724 69.584 C 9.482 69.862 9.18 70.12 8.9 70.4 A 4.084 4.084 0 0 0 7.812 71.31 C 7.573 71.62 7.418 71.981 7.401 72.423 A 2.102 2.102 0 0 0 7.4 72.5 A 2.136 2.136 0 0 0 7.966 73.975 C 8.448 74.499 9.191 74.8 10 74.8 C 11.542 74.8 11.691 73.964 13.311 73.903 A 5.061 5.061 0 0 1 13.5 73.9 C 15.3 73.9 15.4 74.8 17 74.8 A 2.886 2.886 0 0 0 18.663 74.3 C 19.231 73.899 19.6 73.277 19.6 72.5 C 19.6 71.62 19.059 71.05 18.384 70.586 A 7.616 7.616 0 0 0 18.1 70.4 C 17.5 69.8 16.8 69.3 16.8 68.5 Z M 16.8 33 L 16.8 28.3 A 1.122 1.122 0 0 1 16.976 27.748 C 17.545 26.763 19.3 25.592 19.3 24 A 3.041 3.041 0 0 0 18.59 22.201 C 18.033 21.454 17.297 20.817 16.97 20.242 A 1.111 1.111 0 0 1 16.8 19.7 L 16.8 14.9 A 1.626 1.626 0 0 1 17.276 13.816 C 17.518 13.538 17.82 13.28 18.1 13 A 4.084 4.084 0 0 0 19.188 12.09 C 19.427 11.78 19.582 11.419 19.599 10.977 A 2.102 2.102 0 0 0 19.6 10.9 A 2.143 2.143 0 0 0 19.459 10.122 C 19.053 9.071 17.874 8.6 17.3 8.6 A 1.591 1.591 0 0 1 16.829 8.531 C 15.909 8.25 15.492 7.2 13.5 7.2 C 11.324 7.2 11.028 8.454 9.9 8.588 A 1.687 1.687 0 0 1 9.7 8.6 A 1.498 1.498 0 0 0 9.433 8.627 C 8.74 8.754 7.655 9.339 7.438 10.483 A 2.237 2.237 0 0 0 7.4 10.9 C 7.4 11.78 7.941 12.35 8.616 12.814 A 7.616 7.616 0 0 0 8.9 13 C 9.5 13.6 10.2 14.1 10.2 14.9 L 10.2 19.7 A 1.122 1.122 0 0 1 10.024 20.252 C 9.455 21.237 7.7 22.408 7.7 24 A 3.041 3.041 0 0 0 8.41 25.799 C 8.967 26.546 9.703 27.183 10.03 27.758 A 1.111 1.111 0 0 1 10.2 28.3 L 10.2 33 A 1.626 1.626 0 0 1 9.724 34.084 C 9.482 34.362 9.18 34.62 8.9 34.9 A 4.084 4.084 0 0 0 7.812 35.81 C 7.573 36.12 7.418 36.481 7.401 36.923 A 2.102 2.102 0 0 0 7.4 37 A 2.136 2.136 0 0 0 7.966 38.475 C 8.448 38.999 9.191 39.3 10 39.3 C 11.542 39.3 11.691 38.464 13.311 38.403 A 5.061 5.061 0 0 1 13.5 38.4 C 15.3 38.4 15.4 39.3 17 39.3 A 2.886 2.886 0 0 0 18.663 38.8 C 19.231 38.399 19.6 37.777 19.6 37 C 19.6 36.12 19.059 35.55 18.384 35.086 A 7.616 7.616 0 0 0 18.1 34.9 C 17.5 34.3 16.8 33.8 16.8 33 Z M 32.3 68.5 L 32.3 63.8 A 1.122 1.122 0 0 1 32.476 63.248 C 33.045 62.263 34.8 61.092 34.8 59.5 A 3.041 3.041 0 0 0 34.09 57.701 C 33.533 56.954 32.797 56.317 32.47 55.742 A 1.111 1.111 0 0 1 32.3 55.2 L 32.3 50.4 A 1.626 1.626 0 0 1 32.776 49.316 C 33.018 49.038 33.32 48.78 33.6 48.5 A 4.084 4.084 0 0 0 34.688 47.59 C 34.927 47.28 35.082 46.919 35.099 46.477 A 2.102 2.102 0 0 0 35.1 46.4 C 35.1 44.8 33.5 44.1 32.8 44.1 A 1.591 1.591 0 0 1 32.329 44.031 C 31.409 43.75 30.992 42.7 29 42.7 C 26.824 42.7 26.528 43.954 25.4 44.088 A 1.687 1.687 0 0 1 25.2 44.1 A 1.498 1.498 0 0 0 24.933 44.127 C 24.24 44.254 23.155 44.839 22.938 45.983 A 2.237 2.237 0 0 0 22.9 46.4 C 22.9 47.28 23.441 47.85 24.116 48.314 A 7.616 7.616 0 0 0 24.4 48.5 C 25 49.1 25.7 49.6 25.7 50.4 L 25.7 55.2 A 1.122 1.122 0 0 1 25.524 55.752 C 24.955 56.737 23.2 57.908 23.2 59.5 A 3.041 3.041 0 0 0 23.91 61.299 C 24.467 62.046 25.203 62.683 25.53 63.258 A 1.111 1.111 0 0 1 25.7 63.8 L 25.7 68.5 A 1.626 1.626 0 0 1 25.224 69.584 C 24.982 69.862 24.68 70.12 24.4 70.4 A 4.084 4.084 0 0 0 23.312 71.31 C 23.073 71.62 22.918 71.981 22.901 72.423 A 2.102 2.102 0 0 0 22.9 72.5 A 2.136 2.136 0 0 0 23.466 73.975 C 23.948 74.499 24.691 74.8 25.5 74.8 C 27.042 74.8 27.191 73.964 28.811 73.903 A 5.061 5.061 0 0 1 29 73.9 C 30.8 73.9 30.9 74.8 32.5 74.8 A 2.886 2.886 0 0 0 34.163 74.3 C 34.731 73.899 35.1 73.277 35.1 72.5 C 35.1 71.62 34.559 71.05 33.884 70.586 A 7.616 7.616 0 0 0 33.6 70.4 C 33 69.8 32.3 69.3 32.3 68.5 Z M 47.8 68.5 L 47.8 63.8 A 1.122 1.122 0 0 1 47.976 63.248 C 48.545 62.263 50.3 61.092 50.3 59.5 A 3.041 3.041 0 0 0 49.59 57.701 C 49.033 56.954 48.297 56.317 47.97 55.742 A 1.111 1.111 0 0 1 47.8 55.2 L 47.8 50.4 A 1.626 1.626 0 0 1 48.276 49.316 C 48.518 49.038 48.82 48.78 49.1 48.5 A 4.084 4.084 0 0 0 50.188 47.59 C 50.427 47.28 50.582 46.919 50.599 46.477 A 2.102 2.102 0 0 0 50.6 46.4 C 50.6 44.8 49 44.1 48.3 44.1 A 1.591 1.591 0 0 1 47.829 44.031 C 46.909 43.75 46.492 42.7 44.5 42.7 C 42.324 42.7 42.028 43.954 40.9 44.088 A 1.687 1.687 0 0 1 40.7 44.1 A 1.498 1.498 0 0 0 40.433 44.127 C 39.74 44.254 38.655 44.839 38.438 45.983 A 2.237 2.237 0 0 0 38.4 46.4 C 38.4 47.28 38.941 47.85 39.616 48.314 A 7.616 7.616 0 0 0 39.9 48.5 C 40.5 49.1 41.2 49.6 41.2 50.4 L 41.2 55.2 A 1.122 1.122 0 0 1 41.024 55.752 C 40.455 56.737 38.7 57.908 38.7 59.5 A 3.041 3.041 0 0 0 39.41 61.299 C 39.967 62.046 40.703 62.683 41.03 63.258 A 1.111 1.111 0 0 1 41.2 63.8 L 41.2 68.5 A 1.626 1.626 0 0 1 40.724 69.584 C 40.482 69.862 40.18 70.12 39.9 70.4 A 4.084 4.084 0 0 0 38.812 71.31 C 38.573 71.62 38.418 71.981 38.401 72.423 A 2.102 2.102 0 0 0 38.4 72.5 A 2.136 2.136 0 0 0 38.966 73.975 C 39.448 74.499 40.191 74.8 41 74.8 C 42.542 74.8 42.691 73.964 44.311 73.903 A 5.061 5.061 0 0 1 44.5 73.9 C 46.3 73.9 46.4 74.8 48 74.8 A 2.886 2.886 0 0 0 49.663 74.3 C 50.231 73.899 50.6 73.277 50.6 72.5 C 50.6 71.62 50.059 71.05 49.384 70.586 A 7.616 7.616 0 0 0 49.1 70.4 C 48.5 69.8 47.8 69.3 47.8 68.5 Z M 32.3 33 L 32.3 28.3 A 1.122 1.122 0 0 1 32.476 27.748 C 33.045 26.763 34.8 25.592 34.8 24 A 3.041 3.041 0 0 0 34.09 22.201 C 33.533 21.454 32.797 20.817 32.47 20.242 A 1.111 1.111 0 0 1 32.3 19.7 L 32.3 14.9 A 1.626 1.626 0 0 1 32.776 13.816 C 33.018 13.538 33.32 13.28 33.6 13 A 4.084 4.084 0 0 0 34.688 12.09 C 34.927 11.78 35.082 11.419 35.099 10.977 A 2.102 2.102 0 0 0 35.1 10.9 C 35.1 9.3 33.5 8.6 32.8 8.6 A 1.591 1.591 0 0 1 32.329 8.531 C 31.409 8.25 30.992 7.2 29 7.2 C 26.824 7.2 26.528 8.454 25.4 8.588 A 1.687 1.687 0 0 1 25.2 8.6 A 1.498 1.498 0 0 0 24.933 8.627 C 24.24 8.754 23.155 9.339 22.938 10.483 A 2.237 2.237 0 0 0 22.9 10.9 C 22.9 11.78 23.441 12.35 24.116 12.814 A 7.616 7.616 0 0 0 24.4 13 C 25 13.6 25.7 14.1 25.7 14.9 L 25.7 19.7 A 1.122 1.122 0 0 1 25.524 20.252 C 24.955 21.237 23.2 22.408 23.2 24 A 3.041 3.041 0 0 0 23.91 25.799 C 24.467 26.546 25.203 27.183 25.53 27.758 A 1.111 1.111 0 0 1 25.7 28.3 L 25.7 33 A 1.626 1.626 0 0 1 25.224 34.084 C 24.982 34.362 24.68 34.62 24.4 34.9 A 4.084 4.084 0 0 0 23.312 35.81 C 23.073 36.12 22.918 36.481 22.901 36.923 A 2.102 2.102 0 0 0 22.9 37 A 2.136 2.136 0 0 0 23.466 38.475 C 23.948 38.999 24.691 39.3 25.5 39.3 C 27.042 39.3 27.191 38.464 28.811 38.403 A 5.061 5.061 0 0 1 29 38.4 C 30.8 38.4 30.9 39.3 32.5 39.3 A 2.886 2.886 0 0 0 34.163 38.8 C 34.731 38.399 35.1 37.777 35.1 37 C 35.1 36.12 34.559 35.55 33.884 35.086 A 7.616 7.616 0 0 0 33.6 34.9 C 33 34.3 32.3 33.8 32.3 33 Z M 47.8 33 L 47.8 28.3 A 1.122 1.122 0 0 1 47.976 27.748 C 48.545 26.763 50.3 25.592 50.3 24 A 3.041 3.041 0 0 0 49.59 22.201 C 49.033 21.454 48.297 20.817 47.97 20.242 A 1.111 1.111 0 0 1 47.8 19.7 L 47.8 14.9 A 1.626 1.626 0 0 1 48.276 13.816 C 48.518 13.538 48.82 13.28 49.1 13 A 4.084 4.084 0 0 0 50.188 12.09 C 50.427 11.78 50.582 11.419 50.599 10.977 A 2.102 2.102 0 0 0 50.6 10.9 C 50.6 9.3 49 8.6 48.3 8.6 A 1.591 1.591 0 0 1 47.829 8.531 C 46.909 8.25 46.492 7.2 44.5 7.2 C 42.324 7.2 42.028 8.454 40.9 8.588 A 1.687 1.687 0 0 1 40.7 8.6 A 1.498 1.498 0 0 0 40.433 8.627 C 39.74 8.754 38.655 9.339 38.438 10.483 A 2.237 2.237 0 0 0 38.4 10.9 C 38.4 11.78 38.941 12.35 39.616 12.814 A 7.616 7.616 0 0 0 39.9 13 C 40.5 13.6 41.2 14.1 41.2 14.9 L 41.2 19.7 A 1.122 1.122 0 0 1 41.024 20.252 C 40.455 21.237 38.7 22.408 38.7 24 A 3.041 3.041 0 0 0 39.41 25.799 C 39.967 26.546 40.703 27.183 41.03 27.758 A 1.111 1.111 0 0 1 41.2 28.3 L 41.2 33 A 1.626 1.626 0 0 1 40.724 34.084 C 40.482 34.362 40.18 34.62 39.9 34.9 A 4.084 4.084 0 0 0 38.812 35.81 C 38.573 36.12 38.418 36.481 38.401 36.923 A 2.102 2.102 0 0 0 38.4 37 A 2.136 2.136 0 0 0 38.966 38.475 C 39.448 38.999 40.191 39.3 41 39.3 C 42.542 39.3 42.691 38.464 44.311 38.403 A 5.061 5.061 0 0 1 44.5 38.4 C 46.3 38.4 46.4 39.3 48 39.3 A 2.886 2.886 0 0 0 49.663 38.8 C 50.231 38.399 50.6 37.777 50.6 37 C 50.6 36.12 50.059 35.55 49.384 35.086 A 7.616 7.616 0 0 0 49.1 34.9 C 48.5 34.3 47.8 33.8 47.8 33 Z M 27.5 21 L 27.5 12.8 C 26.9 12.4 26.5 11.7 26.5 11 A 2.18 2.18 0 0 1 27.8 9.069 A 2.76 2.76 0 0 1 29 8.8 A 2.718 2.718 0 0 1 30.468 9.218 A 2.133 2.133 0 0 1 31.5 11 C 31.5 11.7 31.1 12.4 30.5 12.8 L 30.5 21 L 27.5 21 Z M 12 21 L 12 12.8 C 11.4 12.4 11 11.7 11 11 A 2.18 2.18 0 0 1 12.3 9.069 A 2.76 2.76 0 0 1 13.5 8.8 A 2.718 2.718 0 0 1 14.968 9.218 A 2.133 2.133 0 0 1 16 11 C 16 11.7 15.6 12.4 15 12.8 L 15 21 L 12 21 Z M 43 21 L 43 12.8 C 42.4 12.4 42 11.7 42 11 A 2.18 2.18 0 0 1 43.3 9.069 A 2.76 2.76 0 0 1 44.5 8.8 A 2.718 2.718 0 0 1 45.968 9.218 A 2.133 2.133 0 0 1 47 11 C 47 11.7 46.6 12.4 46 12.8 L 46 21 L 43 21 Z M 27.5 56.5 L 27.5 48.3 C 26.9 47.9 26.5 47.2 26.5 46.5 A 2.18 2.18 0 0 1 27.8 44.569 A 2.76 2.76 0 0 1 29 44.3 A 2.718 2.718 0 0 1 30.468 44.718 A 2.133 2.133 0 0 1 31.5 46.5 C 31.5 47.2 31.1 47.9 30.5 48.3 L 30.5 56.5 L 27.5 56.5 Z M 43 56.5 L 43 48.3 C 42.4 47.9 42 47.2 42 46.5 A 2.18 2.18 0 0 1 43.3 44.569 A 2.76 2.76 0 0 1 44.5 44.3 A 2.718 2.718 0 0 1 45.968 44.718 A 2.133 2.133 0 0 1 47 46.5 C 47 47.2 46.6 47.9 46 48.3 L 46 56.5 L 43 56.5 Z M 12 56.5 L 12 48.3 C 11.4 47.9 11 47.2 11 46.5 A 2.18 2.18 0 0 1 12.3 44.569 A 2.76 2.76 0 0 1 13.5 44.3 A 2.718 2.718 0 0 1 14.968 44.718 A 2.133 2.133 0 0 1 16 46.5 C 16 47.2 15.6 47.9 15 48.3 L 15 56.5 L 12 56.5 Z M 43 71.3 L 43 62.5 L 46 62.5 L 46 71.3 A 1.405 1.405 0 0 1 45.862 71.94 C 45.65 72.358 45.196 72.6 44.5 72.6 A 2.286 2.286 0 0 1 43.934 72.535 C 43.371 72.391 43.062 72.014 43.009 71.476 A 1.766 1.766 0 0 1 43 71.3 Z M 27.5 71.3 L 27.5 62.5 L 30.5 62.5 L 30.5 71.3 A 1.405 1.405 0 0 1 30.362 71.94 C 30.15 72.358 29.696 72.6 29 72.6 A 2.286 2.286 0 0 1 28.434 72.535 C 27.871 72.391 27.562 72.014 27.509 71.476 A 1.766 1.766 0 0 1 27.5 71.3 Z M 12 71.3 L 12 62.5 L 15 62.5 L 15 71.3 A 1.405 1.405 0 0 1 14.862 71.94 C 14.65 72.358 14.196 72.6 13.5 72.6 A 2.286 2.286 0 0 1 12.934 72.535 C 12.371 72.391 12.062 72.014 12.009 71.476 A 1.766 1.766 0 0 1 12 71.3 Z M 12 35.8 L 12 27 L 15 27 L 15 35.8 A 1.405 1.405 0 0 1 14.862 36.44 C 14.65 36.858 14.196 37.1 13.5 37.1 A 2.286 2.286 0 0 1 12.934 37.035 C 12.371 36.891 12.062 36.514 12.009 35.976 A 1.766 1.766 0 0 1 12 35.8 Z M 27.5 35.8 L 27.5 27 L 30.5 27 L 30.5 35.8 A 1.405 1.405 0 0 1 30.362 36.44 C 30.15 36.858 29.696 37.1 29 37.1 A 2.286 2.286 0 0 1 28.434 37.035 C 27.871 36.891 27.562 36.514 27.509 35.976 A 1.766 1.766 0 0 1 27.5 35.8 Z M 43 35.8 L 43 27 L 46 27 L 46 35.8 A 1.405 1.405 0 0 1 45.862 36.44 C 45.65 36.858 45.196 37.1 44.5 37.1 A 2.286 2.286 0 0 1 43.934 37.035 C 43.371 36.891 43.062 36.514 43.009 35.976 A 1.766 1.766 0 0 1 43 35.8 Z M 26.7 22 L 31.3 22 C 31.9 22 32.3 22.3 32.3 22.7 C 32.3 23.1 31.9 23.5 31.3 23.5 L 26.7 23.5 A 1.432 1.432 0 0 1 26.271 23.439 C 25.917 23.328 25.7 23.068 25.7 22.7 C 25.7 22.383 25.951 22.129 26.353 22.037 A 1.557 1.557 0 0 1 26.7 22 Z M 26.7 24.5 L 31.3 24.5 C 31.9 24.5 32.3 24.8 32.3 25.2 C 32.3 25.6 31.9 26 31.3 26 L 26.7 26 A 1.432 1.432 0 0 1 26.271 25.939 C 25.917 25.828 25.7 25.568 25.7 25.2 C 25.7 24.883 25.951 24.629 26.353 24.537 A 1.557 1.557 0 0 1 26.7 24.5 Z M 11.2 22 L 15.8 22 C 16.4 22 16.8 22.3 16.8 22.7 C 16.8 23.1 16.4 23.5 15.8 23.5 L 11.2 23.5 A 1.432 1.432 0 0 1 10.771 23.439 C 10.417 23.328 10.2 23.068 10.2 22.7 C 10.2 22.383 10.451 22.129 10.853 22.037 A 1.557 1.557 0 0 1 11.2 22 Z M 11.2 24.5 L 15.8 24.5 C 16.4 24.5 16.8 24.8 16.8 25.2 C 16.8 25.6 16.4 26 15.8 26 L 11.2 26 A 1.432 1.432 0 0 1 10.771 25.939 C 10.417 25.828 10.2 25.568 10.2 25.2 C 10.2 24.883 10.451 24.629 10.853 24.537 A 1.557 1.557 0 0 1 11.2 24.5 Z M 11.2 57.5 L 15.8 57.5 C 16.4 57.5 16.8 57.8 16.8 58.2 C 16.8 58.6 16.4 59 15.8 59 L 11.2 59 A 1.432 1.432 0 0 1 10.771 58.939 C 10.417 58.828 10.2 58.568 10.2 58.2 C 10.2 57.883 10.451 57.629 10.853 57.537 A 1.557 1.557 0 0 1 11.2 57.5 Z M 26.7 57.5 L 31.3 57.5 C 31.9 57.5 32.3 57.8 32.3 58.2 C 32.3 58.6 31.9 59 31.3 59 L 26.7 59 A 1.432 1.432 0 0 1 26.271 58.939 C 25.917 58.828 25.7 58.568 25.7 58.2 C 25.7 57.883 25.951 57.629 26.353 57.537 A 1.557 1.557 0 0 1 26.7 57.5 Z M 11.2 60 L 15.8 60 C 16.4 60 16.8 60.3 16.8 60.7 C 16.8 61.1 16.4 61.5 15.8 61.5 L 11.2 61.5 A 1.432 1.432 0 0 1 10.771 61.439 C 10.417 61.328 10.2 61.068 10.2 60.7 C 10.2 60.383 10.451 60.129 10.853 60.037 A 1.557 1.557 0 0 1 11.2 60 Z M 26.7 60 L 31.3 60 C 31.9 60 32.3 60.3 32.3 60.7 C 32.3 61.1 31.9 61.5 31.3 61.5 L 26.7 61.5 A 1.432 1.432 0 0 1 26.271 61.439 C 25.917 61.328 25.7 61.068 25.7 60.7 C 25.7 60.383 25.951 60.129 26.353 60.037 A 1.557 1.557 0 0 1 26.7 60 Z M 42.2 22 L 46.8 22 C 47.4 22 47.8 22.3 47.8 22.7 C 47.8 23.1 47.4 23.5 46.8 23.5 L 42.2 23.5 A 1.432 1.432 0 0 1 41.771 23.439 C 41.417 23.328 41.2 23.068 41.2 22.7 C 41.2 22.383 41.451 22.129 41.853 22.037 A 1.557 1.557 0 0 1 42.2 22 Z M 42.2 24.5 L 46.8 24.5 C 47.4 24.5 47.8 24.8 47.8 25.2 C 47.8 25.6 47.4 26 46.8 26 L 42.2 26 A 1.432 1.432 0 0 1 41.771 25.939 C 41.417 25.828 41.2 25.568 41.2 25.2 C 41.2 24.883 41.451 24.629 41.853 24.537 A 1.557 1.557 0 0 1 42.2 24.5 Z M 42.2 57.5 L 46.8 57.5 C 47.4 57.5 47.8 57.8 47.8 58.2 C 47.8 58.6 47.4 59 46.8 59 L 42.2 59 A 1.432 1.432 0 0 1 41.771 58.939 C 41.417 58.828 41.2 58.568 41.2 58.2 C 41.2 57.883 41.451 57.629 41.853 57.537 A 1.557 1.557 0 0 1 42.2 57.5 Z M 42.2 60 L 46.8 60 C 47.4 60 47.8 60.3 47.8 60.7 C 47.8 61.1 47.4 61.5 46.8 61.5 L 42.2 61.5 A 1.432 1.432 0 0 1 41.771 61.439 C 41.417 61.328 41.2 61.068 41.2 60.7 C 41.2 60.383 41.451 60.129 41.853 60.037 A 1.557 1.557 0 0 1 42.2 60 Z" vector-effect="non-scaling-stroke"/></g></svg>