<svg width="58" height="83" viewBox="0 0 58 83" xmlns="http://www.w3.org/2000/svg"><g id="svgGroup" stroke-linecap="round" fill-rule="evenodd" font-size="9pt" stroke="#000" stroke-width="0.05mm" fill="#000" style="stroke:#000;stroke-width:0.05mm;fill:#000"><path d="M 6 83 L 52 83 C 55.3 83 58 80.3 58 77 L 58 6 C 58 2.7 55.3 0 52 0 L 6 0 C 2.7 0 0 2.7 0 6 L 0 77 C 0 80.3 2.7 83 6 83 Z M 3 77 L 3 6 A 3.001 3.001 0 0 1 3.764 3.966 C 4.307 3.367 5.097 3 6 3 L 52 3 A 3.001 3.001 0 0 1 54.034 3.764 C 54.633 4.307 55 5.097 55 6 L 55 77 A 3.001 3.001 0 0 1 54.236 79.034 C 53.693 79.633 52.903 80 52 80 L 6 80 A 3.001 3.001 0 0 1 3.966 79.236 C 3.367 78.693 3 77.903 3 77 Z M 16.4 70.4 L 16.4 69.7 A 0.989 0.989 0 0 1 16.532 69.229 C 17.022 68.323 18.7 67.467 18.7 66.1 C 18.7 64.683 16.897 63.815 16.484 62.872 A 0.922 0.922 0 0 1 16.4 62.5 L 16.4 61.8 C 16.4 60.6 19.2 60.2 19.2 58.3 A 2.413 2.413 0 0 0 19.087 57.555 C 18.762 56.547 17.808 56.062 17.213 56.006 A 1.205 1.205 0 0 0 17.1 56 A 1.591 1.591 0 0 1 16.629 55.931 C 15.709 55.65 15.292 54.6 13.3 54.6 C 11.124 54.6 10.828 55.854 9.7 55.988 A 1.687 1.687 0 0 1 9.5 56 A 1.424 1.424 0 0 0 9.209 56.033 C 8.472 56.189 7.4 56.9 7.4 58.3 C 7.4 60.2 10.2 60.6 10.2 61.8 L 10.2 62.5 A 0.989 0.989 0 0 1 10.068 62.971 C 9.578 63.877 7.9 64.733 7.9 66.1 C 7.9 67.517 9.703 68.385 10.116 69.328 A 0.922 0.922 0 0 1 10.2 69.7 L 10.2 70.4 C 10.2 71.6 7.4 72 7.4 73.9 A 2.136 2.136 0 0 0 7.966 75.375 C 8.448 75.899 9.191 76.2 10 76.2 A 3.462 3.462 0 0 0 10.406 76.178 C 11.581 76.039 11.578 75.3 13.3 75.3 C 15.158 75.3 15.008 76.16 16.496 76.199 A 4.049 4.049 0 0 0 16.6 76.2 A 2.886 2.886 0 0 0 18.263 75.7 C 18.831 75.299 19.2 74.677 19.2 73.9 C 19.2 72 16.4 71.6 16.4 70.4 Z M 32.1 70.4 L 32.1 69.7 A 0.989 0.989 0 0 1 32.232 69.229 C 32.722 68.323 34.4 67.467 34.4 66.1 C 34.4 64.683 32.597 63.815 32.184 62.872 A 0.922 0.922 0 0 1 32.1 62.5 L 32.1 61.8 C 32.1 60.6 34.9 60.2 34.9 58.3 A 2.413 2.413 0 0 0 34.787 57.555 C 34.462 56.547 33.508 56.062 32.913 56.006 A 1.205 1.205 0 0 0 32.8 56 A 1.591 1.591 0 0 1 32.329 55.931 C 31.409 55.65 30.992 54.6 29 54.6 C 26.824 54.6 26.528 55.854 25.4 55.988 A 1.687 1.687 0 0 1 25.2 56 A 1.424 1.424 0 0 0 24.909 56.033 C 24.172 56.189 23.1 56.9 23.1 58.3 C 23.1 60.2 25.9 60.6 25.9 61.8 L 25.9 62.5 A 0.989 0.989 0 0 1 25.768 62.971 C 25.278 63.877 23.6 64.733 23.6 66.1 C 23.6 67.517 25.403 68.385 25.816 69.328 A 0.922 0.922 0 0 1 25.9 69.7 L 25.9 70.4 C 25.9 71.6 23.1 72 23.1 73.9 A 2.136 2.136 0 0 0 23.666 75.375 C 24.148 75.899 24.891 76.2 25.7 76.2 A 3.462 3.462 0 0 0 26.106 76.178 C 27.281 76.039 27.278 75.3 29 75.3 C 30.858 75.3 30.708 76.16 32.196 76.199 A 4.049 4.049 0 0 0 32.3 76.2 A 2.886 2.886 0 0 0 33.963 75.7 C 34.531 75.299 34.9 74.677 34.9 73.9 C 34.9 72 32.1 71.6 32.1 70.4 Z M 16.4 46 L 16.4 45.3 A 0.989 0.989 0 0 1 16.532 44.829 C 17.022 43.923 18.7 43.067 18.7 41.7 C 18.7 40.283 16.897 39.415 16.484 38.472 A 0.922 0.922 0 0 1 16.4 38.1 L 16.4 37.4 C 16.4 36.2 19.2 35.8 19.2 33.9 A 2.413 2.413 0 0 0 19.087 33.155 C 18.762 32.147 17.808 31.662 17.213 31.606 A 1.205 1.205 0 0 0 17.1 31.6 A 1.591 1.591 0 0 1 16.629 31.531 C 15.709 31.25 15.292 30.2 13.3 30.2 C 11.124 30.2 10.828 31.454 9.7 31.588 A 1.687 1.687 0 0 1 9.5 31.6 A 1.424 1.424 0 0 0 9.209 31.633 C 8.472 31.789 7.4 32.5 7.4 33.9 C 7.4 35.8 10.2 36.2 10.2 37.4 L 10.2 38.1 A 0.989 0.989 0 0 1 10.068 38.571 C 9.578 39.477 7.9 40.333 7.9 41.7 C 7.9 43.117 9.703 43.985 10.116 44.928 A 0.922 0.922 0 0 1 10.2 45.3 L 10.2 46 C 10.2 47.2 7.4 47.6 7.4 49.5 A 2.136 2.136 0 0 0 7.966 50.975 C 8.448 51.499 9.191 51.8 10 51.8 A 3.462 3.462 0 0 0 10.406 51.778 C 11.581 51.639 11.578 50.9 13.3 50.9 C 15.158 50.9 15.008 51.76 16.496 51.799 A 4.049 4.049 0 0 0 16.6 51.8 A 2.886 2.886 0 0 0 18.263 51.3 C 18.831 50.899 19.2 50.277 19.2 49.5 C 19.2 47.6 16.4 47.2 16.4 46 Z M 47.8 46 L 47.8 45.3 A 0.989 0.989 0 0 1 47.932 44.829 C 48.422 43.923 50.1 43.067 50.1 41.7 C 50.1 40.283 48.297 39.415 47.884 38.472 A 0.922 0.922 0 0 1 47.8 38.1 L 47.8 37.4 C 47.8 36.2 50.6 35.8 50.6 33.9 A 2.413 2.413 0 0 0 50.487 33.155 C 50.162 32.147 49.208 31.662 48.613 31.606 A 1.205 1.205 0 0 0 48.5 31.6 A 1.591 1.591 0 0 1 48.029 31.531 C 47.109 31.25 46.692 30.2 44.7 30.2 C 42.524 30.2 42.228 31.454 41.1 31.588 A 1.687 1.687 0 0 1 40.9 31.6 A 1.424 1.424 0 0 0 40.609 31.633 C 39.872 31.789 38.8 32.5 38.8 33.9 C 38.8 35.8 41.6 36.2 41.6 37.4 L 41.6 38.1 A 0.989 0.989 0 0 1 41.468 38.571 C 40.978 39.477 39.3 40.333 39.3 41.7 C 39.3 43.117 41.103 43.985 41.516 44.928 A 0.922 0.922 0 0 1 41.6 45.3 L 41.6 46 C 41.6 47.2 38.8 47.6 38.8 49.5 A 2.136 2.136 0 0 0 39.366 50.975 C 39.848 51.499 40.591 51.8 41.4 51.8 A 3.462 3.462 0 0 0 41.806 51.778 C 42.981 51.639 42.978 50.9 44.7 50.9 C 46.558 50.9 46.408 51.76 47.896 51.799 A 4.049 4.049 0 0 0 48 51.8 A 2.886 2.886 0 0 0 49.663 51.3 C 50.231 50.899 50.6 50.277 50.6 49.5 C 50.6 47.6 47.8 47.2 47.8 46 Z M 47.8 70.4 L 47.8 69.7 A 0.989 0.989 0 0 1 47.932 69.229 C 48.422 68.323 50.1 67.467 50.1 66.1 C 50.1 64.683 48.297 63.815 47.884 62.872 A 0.922 0.922 0 0 1 47.8 62.5 L 47.8 61.8 C 47.8 60.6 50.6 60.2 50.6 58.3 A 2.413 2.413 0 0 0 50.487 57.555 C 50.162 56.547 49.208 56.062 48.613 56.006 A 1.205 1.205 0 0 0 48.5 56 A 1.591 1.591 0 0 1 48.029 55.931 C 47.109 55.65 46.692 54.6 44.7 54.6 C 42.524 54.6 42.228 55.854 41.1 55.988 A 1.687 1.687 0 0 1 40.9 56 A 1.424 1.424 0 0 0 40.609 56.033 C 39.872 56.189 38.8 56.9 38.8 58.3 C 38.8 60.2 41.6 60.6 41.6 61.8 L 41.6 62.5 A 0.989 0.989 0 0 1 41.468 62.971 C 40.978 63.877 39.3 64.733 39.3 66.1 C 39.3 67.517 41.103 68.385 41.516 69.328 A 0.922 0.922 0 0 1 41.6 69.7 L 41.6 70.4 C 41.6 71.6 38.8 72 38.8 73.9 A 2.136 2.136 0 0 0 39.366 75.375 C 39.848 75.899 40.591 76.2 41.4 76.2 A 3.462 3.462 0 0 0 41.806 76.178 C 42.981 76.039 42.978 75.3 44.7 75.3 C 46.558 75.3 46.408 76.16 47.896 76.199 A 4.049 4.049 0 0 0 48 76.2 A 2.886 2.886 0 0 0 49.663 75.7 C 50.231 75.299 50.6 74.677 50.6 73.9 C 50.6 72 47.8 71.6 47.8 70.4 Z M 32.1 21.6 L 32.1 20.9 A 0.989 0.989 0 0 1 32.232 20.429 C 32.722 19.523 34.4 18.667 34.4 17.3 C 34.4 15.883 32.597 15.015 32.184 14.072 A 0.922 0.922 0 0 1 32.1 13.7 L 32.1 13 C 32.1 11.8 34.9 11.4 34.9 9.5 A 2.413 2.413 0 0 0 34.787 8.755 C 34.462 7.747 33.508 7.262 32.913 7.206 A 1.205 1.205 0 0 0 32.8 7.2 A 1.591 1.591 0 0 1 32.329 7.131 C 31.409 6.85 30.992 5.8 29 5.8 C 26.824 5.8 26.528 7.054 25.4 7.188 A 1.687 1.687 0 0 1 25.2 7.2 A 1.424 1.424 0 0 0 24.909 7.233 C 24.172 7.389 23.1 8.1 23.1 9.5 C 23.1 11.4 25.9 11.8 25.9 13 L 25.9 13.7 A 0.989 0.989 0 0 1 25.768 14.171 C 25.278 15.077 23.6 15.933 23.6 17.3 C 23.6 18.717 25.403 19.585 25.816 20.528 A 0.922 0.922 0 0 1 25.9 20.9 L 25.9 21.6 C 25.9 22.8 23.1 23.2 23.1 25.1 A 2.136 2.136 0 0 0 23.666 26.575 C 24.148 27.099 24.891 27.4 25.7 27.4 A 3.462 3.462 0 0 0 26.106 27.378 C 27.281 27.239 27.278 26.5 29 26.5 C 30.858 26.5 30.708 27.36 32.196 27.399 A 4.049 4.049 0 0 0 32.3 27.4 A 2.886 2.886 0 0 0 33.963 26.9 C 34.531 26.499 34.9 25.877 34.9 25.1 C 34.9 23.2 32.1 22.8 32.1 21.6 Z M 32.1 46 L 32.1 45.3 A 0.989 0.989 0 0 1 32.232 44.829 C 32.722 43.923 34.4 43.067 34.4 41.7 C 34.4 40.283 32.597 39.415 32.184 38.472 A 0.922 0.922 0 0 1 32.1 38.1 L 32.1 37.4 C 32.1 36.2 34.9 35.8 34.9 33.9 A 2.413 2.413 0 0 0 34.787 33.155 C 34.462 32.147 33.508 31.662 32.913 31.606 A 1.205 1.205 0 0 0 32.8 31.6 A 1.591 1.591 0 0 1 32.329 31.531 C 31.409 31.25 30.992 30.2 29 30.2 C 26.824 30.2 26.528 31.454 25.4 31.588 A 1.687 1.687 0 0 1 25.2 31.6 A 1.424 1.424 0 0 0 24.909 31.633 C 24.172 31.789 23.1 32.5 23.1 33.9 C 23.1 35.8 25.9 36.2 25.9 37.4 L 25.9 38.1 A 0.989 0.989 0 0 1 25.768 38.571 C 25.278 39.477 23.6 40.333 23.6 41.7 C 23.6 43.117 25.403 43.985 25.816 44.928 A 0.922 0.922 0 0 1 25.9 45.3 L 25.9 46 C 25.9 47.2 23.1 47.6 23.1 49.5 A 2.136 2.136 0 0 0 23.666 50.975 C 24.148 51.499 24.891 51.8 25.7 51.8 A 3.462 3.462 0 0 0 26.106 51.778 C 27.281 51.639 27.278 50.9 29 50.9 C 30.858 50.9 30.708 51.76 32.196 51.799 A 4.049 4.049 0 0 0 32.3 51.8 A 2.886 2.886 0 0 0 33.963 51.3 C 34.531 50.899 34.9 50.277 34.9 49.5 C 34.9 47.6 32.1 47.2 32.1 46 Z M 43.2 40 L 43.2 35.5 A 13.519 13.519 0 0 1 43.084 35.383 C 42.75 35.041 42.2 34.42 42.2 33.8 A 2.316 2.316 0 0 1 43.434 31.827 A 2.593 2.593 0 0 1 44.7 31.5 A 2.585 2.585 0 0 1 46.344 32.084 A 2.251 2.251 0 0 1 47.2 33.8 A 1.576 1.576 0 0 1 46.96 34.572 C 46.728 34.972 46.387 35.313 46.2 35.5 L 46.2 40 L 43.2 40 Z M 43.2 64.4 L 43.2 59.9 A 13.519 13.519 0 0 1 43.084 59.783 C 42.75 59.441 42.2 58.82 42.2 58.2 A 2.316 2.316 0 0 1 43.434 56.227 A 2.593 2.593 0 0 1 44.7 55.9 A 2.585 2.585 0 0 1 46.344 56.484 A 2.251 2.251 0 0 1 47.2 58.2 A 1.576 1.576 0 0 1 46.96 58.972 C 46.728 59.372 46.387 59.713 46.2 59.9 L 46.2 64.4 L 43.2 64.4 Z M 11.8 40 L 11.8 35.5 A 13.519 13.519 0 0 1 11.684 35.383 C 11.35 35.041 10.8 34.42 10.8 33.8 A 2.316 2.316 0 0 1 12.034 31.827 A 2.593 2.593 0 0 1 13.3 31.5 A 2.585 2.585 0 0 1 14.944 32.084 A 2.251 2.251 0 0 1 15.8 33.8 A 1.576 1.576 0 0 1 15.56 34.572 C 15.328 34.972 14.987 35.313 14.8 35.5 L 14.8 40 L 11.8 40 Z M 27.5 40 L 27.5 35.5 A 13.519 13.519 0 0 1 27.384 35.383 C 27.05 35.041 26.5 34.42 26.5 33.8 A 2.316 2.316 0 0 1 27.734 31.827 A 2.593 2.593 0 0 1 29 31.5 A 2.585 2.585 0 0 1 30.644 32.084 A 2.251 2.251 0 0 1 31.5 33.8 A 1.576 1.576 0 0 1 31.26 34.572 C 31.028 34.972 30.687 35.313 30.5 35.5 L 30.5 40 L 27.5 40 Z M 27.5 15.6 L 27.5 11.1 A 13.519 13.519 0 0 1 27.384 10.983 C 27.05 10.641 26.5 10.02 26.5 9.4 A 2.316 2.316 0 0 1 27.734 7.427 A 2.593 2.593 0 0 1 29 7.1 A 2.585 2.585 0 0 1 30.644 7.684 A 2.251 2.251 0 0 1 31.5 9.4 A 1.576 1.576 0 0 1 31.26 10.172 C 31.028 10.572 30.687 10.913 30.5 11.1 L 30.5 15.6 L 27.5 15.6 Z M 11.8 64.4 L 11.8 59.9 A 13.519 13.519 0 0 1 11.684 59.783 C 11.35 59.441 10.8 58.82 10.8 58.2 A 2.316 2.316 0 0 1 12.034 56.227 A 2.593 2.593 0 0 1 13.3 55.9 A 2.585 2.585 0 0 1 14.944 56.484 A 2.251 2.251 0 0 1 15.8 58.2 A 1.576 1.576 0 0 1 15.56 58.972 C 15.328 59.372 14.987 59.713 14.8 59.9 L 14.8 64.4 L 11.8 64.4 Z M 27.5 64.4 L 27.5 59.9 A 13.519 13.519 0 0 1 27.384 59.783 C 27.05 59.441 26.5 58.82 26.5 58.2 A 2.316 2.316 0 0 1 27.734 56.227 A 2.593 2.593 0 0 1 29 55.9 A 2.585 2.585 0 0 1 30.644 56.484 A 2.251 2.251 0 0 1 31.5 58.2 A 1.576 1.576 0 0 1 31.26 58.972 C 31.028 59.372 30.687 59.713 30.5 59.9 L 30.5 64.4 L 27.5 64.4 Z M 27.5 23.9 L 27.5 19.1 L 30.5 19.1 L 30.5 23.9 C 30.5 24.7 30 25.4 29 25.4 A 1.716 1.716 0 0 1 28.379 25.292 C 27.793 25.066 27.5 24.512 27.5 23.9 Z M 11.8 72.7 L 11.8 67.9 L 14.8 67.9 L 14.8 72.7 C 14.8 73.5 14.3 74.2 13.3 74.2 A 1.716 1.716 0 0 1 12.679 74.092 C 12.093 73.866 11.8 73.313 11.8 72.7 Z M 27.5 72.7 L 27.5 67.9 L 30.5 67.9 L 30.5 72.7 C 30.5 73.5 30 74.2 29 74.2 A 1.716 1.716 0 0 1 28.379 74.092 C 27.793 73.866 27.5 73.313 27.5 72.7 Z M 43.2 72.7 L 43.2 67.9 L 46.2 67.9 L 46.2 72.7 C 46.2 73.5 45.7 74.2 44.7 74.2 A 1.716 1.716 0 0 1 44.079 74.092 C 43.493 73.866 43.2 73.313 43.2 72.7 Z M 11.8 48.3 L 11.8 43.5 L 14.8 43.5 L 14.8 48.3 C 14.8 49.1 14.3 49.8 13.3 49.8 A 1.716 1.716 0 0 1 12.679 49.692 C 12.093 49.466 11.8 48.912 11.8 48.3 Z M 27.5 48.3 L 27.5 43.5 L 30.5 43.5 L 30.5 48.3 C 30.5 49.1 30 49.8 29 49.8 A 1.716 1.716 0 0 1 28.379 49.692 C 27.793 49.466 27.5 48.912 27.5 48.3 Z M 43.2 48.3 L 43.2 43.5 L 46.2 43.5 L 46.2 48.3 C 46.2 49.1 45.7 49.8 44.7 49.8 A 1.716 1.716 0 0 1 44.079 49.692 C 43.493 49.466 43.2 48.912 43.2 48.3 Z M 11 41 L 15.6 41 C 16.2 41 16.6 41.3 16.6 41.7 C 16.6 42.1 16.2 42.5 15.6 42.5 L 11 42.5 A 1.432 1.432 0 0 1 10.571 42.439 C 10.217 42.328 10 42.068 10 41.7 C 10 41.383 10.251 41.129 10.653 41.037 A 1.557 1.557 0 0 1 11 41 Z M 11 65.4 L 15.6 65.4 C 16.2 65.4 16.6 65.7 16.6 66.1 C 16.6 66.5 16.2 66.9 15.6 66.9 L 11 66.9 A 1.432 1.432 0 0 1 10.571 66.839 C 10.217 66.728 10 66.468 10 66.1 C 10 65.783 10.251 65.529 10.653 65.437 A 1.557 1.557 0 0 1 11 65.4 Z M 26.7 41 L 31.3 41 C 31.9 41 32.3 41.3 32.3 41.7 C 32.3 42.1 31.9 42.5 31.3 42.5 L 26.7 42.5 A 1.432 1.432 0 0 1 26.271 42.439 C 25.917 42.328 25.7 42.068 25.7 41.7 C 25.7 41.383 25.951 41.129 26.353 41.037 A 1.557 1.557 0 0 1 26.7 41 Z M 26.7 65.4 L 31.3 65.4 C 31.9 65.4 32.3 65.7 32.3 66.1 C 32.3 66.5 31.9 66.9 31.3 66.9 L 26.7 66.9 A 1.432 1.432 0 0 1 26.271 66.839 C 25.917 66.728 25.7 66.468 25.7 66.1 C 25.7 65.783 25.951 65.529 26.353 65.437 A 1.557 1.557 0 0 1 26.7 65.4 Z M 26.7 16.6 L 31.3 16.6 C 31.9 16.6 32.3 16.9 32.3 17.3 C 32.3 17.7 31.9 18.1 31.3 18.1 L 26.7 18.1 A 1.432 1.432 0 0 1 26.271 18.039 C 25.917 17.928 25.7 17.668 25.7 17.3 C 25.7 16.983 25.951 16.729 26.353 16.637 A 1.557 1.557 0 0 1 26.7 16.6 Z M 42.4 41 L 47 41 C 47.6 41 48 41.3 48 41.7 C 48 42.1 47.6 42.5 47 42.5 L 42.4 42.5 A 1.432 1.432 0 0 1 41.971 42.439 C 41.617 42.328 41.4 42.068 41.4 41.7 C 41.4 41.383 41.651 41.129 42.053 41.037 A 1.557 1.557 0 0 1 42.4 41 Z M 42.4 65.4 L 47 65.4 C 47.6 65.4 48 65.7 48 66.1 C 48 66.5 47.6 66.9 47 66.9 L 42.4 66.9 A 1.432 1.432 0 0 1 41.971 66.839 C 41.617 66.728 41.4 66.468 41.4 66.1 C 41.4 65.783 41.651 65.529 42.053 65.437 A 1.557 1.557 0 0 1 42.4 65.4 Z" vector-effect="non-scaling-stroke"/></g></svg>