<svg width="58" height="83" viewBox="0 0 58 83" xmlns="http://www.w3.org/2000/svg"><g id="svgGroup" stroke-linecap="round" fill-rule="evenodd" font-size="9pt" stroke="#b23227" stroke-width="0.05mm" fill="#b23227" style="stroke:#b23227;stroke-width:0.05mm;fill:#b23227"><path d="M 6 83 L 52 83 C 55.3 83 58 80.3 58 77 L 58 6 C 58 2.7 55.3 0 52 0 L 6 0 C 2.7 0 0 2.7 0 6 L 0 77 C 0 80.3 2.7 83 6 83 Z M 3 77 L 3 6 A 3.001 3.001 0 0 1 3.764 3.966 C 4.307 3.367 5.097 3 6 3 L 52 3 A 3.001 3.001 0 0 1 54.034 3.764 C 54.633 4.307 55 5.097 55 6 L 55 77 A 3.001 3.001 0 0 1 54.236 79.034 C 53.693 79.633 52.903 80 52 80 L 6 80 A 3.001 3.001 0 0 1 3.966 79.236 C 3.367 78.693 3 77.903 3 77 Z M 34.4 30.5 L 30.4 32 C 31 25.5 33.2 26.7 33.2 24.7 A 2.738 2.738 0 0 0 33.076 23.954 C 32.525 22.059 30.226 18.951 27.927 17.742 A 5.306 5.306 0 0 0 27.4 17.5 C 26 18.5 23.6 20.1 23.6 22.5 A 1.869 1.869 0 0 0 23.646 22.906 C 23.734 23.305 23.924 23.645 24 24.1 A 2.345 2.345 0 0 1 26.009 25.723 C 26.78 27.495 26.745 30.366 26.787 32.547 A 50.202 50.202 0 0 0 26.8 33.1 C 26.222 33.678 20.083 35.924 18.913 36.09 A 0.833 0.833 0 0 1 18.8 36.1 C 17.9 36.1 16.8 35.2 15.6 34.1 C 14.9 33.5 14.2 32.9 13.4 32.4 A 2.649 2.649 0 0 0 12.932 33.265 C 12.811 33.615 12.728 34.013 12.675 34.442 A 11.23 11.23 0 0 0 12.6 35.8 A 2.669 2.669 0 0 0 12.919 36.984 C 13.622 38.388 15.371 39.904 17 41.3 C 18.7 42.7 20.2 44.1 20.2 45 C 20.2 45.693 20.298 46.483 20.978 46.5 A 0.9 0.9 0 0 0 21 46.5 C 22.3 46.5 23.4 46.1 24.4 45.8 A 15.14 15.14 0 0 1 25.6 45.387 A 4.444 4.444 0 0 1 26.8 45.2 C 26.8 46.8 26.9 48.7 26.9 50.5 C 26.975 51.7 26.994 52.9 26.998 53.889 A 187.965 187.965 0 0 1 27 54.8 C 27 56.7 26.9 58.3 26.9 59.6 A 15.649 15.649 0 0 0 26.818 60.724 C 26.804 61.067 26.801 61.392 26.8 61.699 A 110.196 110.196 0 0 0 26.8 62 A 59.913 59.913 0 0 0 26.819 63.543 C 26.879 65.841 27.093 68.263 27.689 69.312 A 1.334 1.334 0 0 0 28 69.7 A 2.137 2.137 0 0 0 28.213 69.446 C 29.043 68.305 29.939 65.343 30.152 62.382 A 17.859 17.859 0 0 0 30.2 61.1 A 28.029 28.029 0 0 0 30.191 60.427 C 30.173 59.688 30.13 58.771 30.08 57.854 A 183.61 183.61 0 0 0 30 56.5 A 546.124 546.124 0 0 1 29.893 54.994 C 29.839 54.209 29.8 53.537 29.8 53.1 A 14.292 14.292 0 0 1 29.802 52.879 C 29.824 51.528 30 46.6 30 45.1 A 49.281 49.281 0 0 1 30.831 45.146 C 34.117 45.359 34.656 45.764 35.84 45.798 A 5.61 5.61 0 0 0 36 45.8 A 1.806 1.806 0 0 0 36.731 45.684 C 37.1 45.519 37.35 45.138 37.393 44.281 A 5.548 5.548 0 0 0 37.4 44 C 37.4 43.5 38.2 42.4 39.3 41.1 A 54.177 54.177 0 0 0 40.073 40.11 C 40.653 39.35 41.25 38.525 41.8 37.7 A 1.771 1.771 0 0 1 42.145 37.493 C 42.724 37.219 43.656 37.025 44.444 37.002 A 5.309 5.309 0 0 1 44.6 37 A 0.662 0.662 0 0 0 44.998 36.846 C 45.217 36.675 45.383 36.391 45.399 36.138 A 0.624 0.624 0 0 0 45.4 36.1 A 2.959 2.959 0 0 0 45.059 34.778 C 44.491 33.633 43.293 32.51 42.094 31.236 A 32.864 32.864 0 0 1 41.6 30.7 C 40.4 29.2 40 28.9 39.4 28.9 A 3.936 3.936 0 0 0 38.57 29.009 C 37.89 29.16 37.032 29.458 36.047 29.84 A 96.575 96.575 0 0 0 34.4 30.5 Z M 33.2 42.8 C 31.8 42.8 31 42.7 30 42.7 A 67.1 67.1 0 0 1 30.027 40.868 C 30.083 38.837 30.217 36.606 30.358 34.814 A 111.236 111.236 0 0 1 30.4 34.3 C 32 33.7 35.4 32.8 36.6 32.8 C 37.4 32.8 38.2 33.2 38.2 34 A 3.763 3.763 0 0 1 37.979 35.162 C 37.226 37.426 34.716 40.61 33.2 42.8 Z M 26.8 35.5 L 26.8 43 A 20.318 20.318 0 0 1 24.465 43.492 A 18.087 18.087 0 0 1 23.6 43.6 C 22.866 42.133 21.965 40.497 20.432 38.231 A 70.105 70.105 0 0 0 20 37.6 C 20.245 37.723 20.416 37.77 20.557 37.788 A 1.802 1.802 0 0 0 20.8 37.8 C 21.416 37.8 22.27 37.444 23.27 37.006 A 124.835 124.835 0 0 1 24.2 36.6 A 21.672 21.672 0 0 1 26.284 35.683 A 15.415 15.415 0 0 1 26.8 35.5 Z" vector-effect="non-scaling-stroke"/></g></svg>