<?xml version="1.0" encoding="UTF-8"?>
<svg id="_レイヤー_2" data-name="レイヤー 2" xmlns="http://www.w3.org/2000/svg" xmlns:xlink="http://www.w3.org/1999/xlink" viewBox="0 0 340.16 167.16">
  <defs>
    <style>
      .cls-1 {
        fill: url(#_名称未設定グラデーション_336);
      }

      .cls-2 {
        fill: url(#_名称未設定グラデーション_336-2);
      }

      .cls-3 {
        fill: url(#_名称未設定グラデーション_334);
      }

      .cls-4 {
        clip-path: url(#clippath);
      }

      .cls-5 {
        fill: none;
      }

      .cls-6 {
        fill: url(#_名称未設定グラデーション_336-3);
      }
    </style>
    <clipPath id="clippath">
      <rect class="cls-5" width="340.16" height="167.16"/>
    </clipPath>
    <radialGradient id="_名称未設定グラデーション_334" data-name="名称未設定グラデーション 334" cx="76.19" cy="83.58" fx="76.19" fy="83.58" r="64.13" gradientUnits="userSpaceOnUse">
      <stop offset=".25" stop-color="#00ffb9"/>
      <stop offset=".42" stop-color="#00d1a5"/>
      <stop offset=".6" stop-color="#00a793"/>
      <stop offset=".76" stop-color="#008985"/>
      <stop offset=".9" stop-color="#00767d"/>
      <stop offset="1" stop-color="#00707b"/>
    </radialGradient>
    <linearGradient id="_名称未設定グラデーション_336" data-name="名称未設定グラデーション 336" x1="170.47" y1="114.78" x2="170.47" y2="66.04" gradientUnits="userSpaceOnUse">
      <stop offset="0" stop-color="#00707b"/>
      <stop offset=".1" stop-color="#00767d"/>
      <stop offset=".24" stop-color="#008985"/>
      <stop offset=".4" stop-color="#00a793"/>
      <stop offset=".58" stop-color="#00d1a5"/>
      <stop offset=".75" stop-color="#00ffb9"/>
    </linearGradient>
    <linearGradient id="_名称未設定グラデーション_336-2" data-name="名称未設定グラデーション 336" x1="228.96" x2="228.96" xlink:href="#_名称未設定グラデーション_336"/>
    <linearGradient id="_名称未設定グラデーション_336-3" data-name="名称未設定グラデーション 336" x1="287.44" x2="287.44" xlink:href="#_名称未設定グラデーション_336"/>
  </defs>
  <g id="Element">
    <g id="_ロゴマーク_ヨコ_1" data-name="ロゴマーク_ヨコ_1">
      <g class="cls-4">
        <g>
          <path class="cls-3" d="m104.89,78.06h0v11.04l9.56-5.52h0v-11.05l-9.56,5.53Zm-19.14,11.04v11.05l9.56-5.52v-11.05l-9.56,5.52Zm0,0v11.05l9.56-5.52v-11.05l-9.56,5.52Zm0,0v11.05l9.56-5.52v-11.05l-9.56,5.52Zm9.56,5.53v11.05l9.57-5.53v-11.05l-9.57,5.53Zm-9.56-5.53v11.05l9.56-5.52v-11.05l-9.56,5.52Zm0,0v11.05l9.56-5.52v-11.05l-9.56,5.52Zm28.7,5.53l-9.56,5.52v11.05l9.56-5.53h0v-11.05h0Zm0,11.05v11.04l9.56-5.51h.01v-11.05l-9.57,5.53Zm-28.7,5.51v11.05l9.56-5.53v-11.04l-9.56,5.51Zm28.7-60.75l-9.56-5.53h0l-9.57-5.52-9.56-5.53-9.56-5.52-9.57,5.52h0s-9.57,5.53-9.57,5.53h0l-9.57,5.52-9.57,5.53-9.57,5.51v33.15h0l9.56,5.51h0s.01.01.01.01l19.13,11.05,9.57,5.51v11.05l-9.57-5.53-9.57-5.51h0s-9.55-5.53-9.55-5.53h-.01l-9.57-5.53v11.05h0l9.56,5.51h.01l9.55,5.52h0s0,0,0,0l9.57,5.52,9.57,5.52,9.57,5.53,9.56-5.53v-11.04l-9.56,5.52v-33.14l9.56-5.53v-11.04l-9.56,5.52-9.57-5.52-9.57-5.51h0s0-.01,0-.01l-9.57-5.52h0s-9.57-5.53-9.57-5.53l9.57-5.53,9.57-5.51h0l9.55,5.51h.01s9.57,5.53,9.57,5.53l9.56,5.53,9.56,5.52,9.57-5.52h0l9.56-5.53v11.05l9.57-5.52v-11.05l-9.57-5.51Zm-66.97,27.62l9.57,5.52,9.57,5.52v11.05l-9.57-5.52-9.57-5.53h0l-9.55-5.52h-.01v-11.05l9.57,5.53Zm47.84-16.58h-.01l-9.56-5.53-9.56-5.51h0s-9.57-5.53-9.57-5.53l9.57-5.52,19.12,11.04h0s9.57,5.54,9.57,5.54l-9.56,5.51Z"/>
          <g>
            <path class="cls-1" d="m146.1,66.04v48.74h9.75v-19.49h38.99v-29.25h-48.74Zm38.99,19.5h-29.24v-9.75h29.24v9.75Z"/>
            <path class="cls-2" d="m204.59,66.04v29.25h38.99v9.74h-38.99v9.75h48.73v-48.74h-48.73Zm38.99,19.5h-29.24v-9.75h29.24v9.75Z"/>
            <path class="cls-6" d="m272.82,66.04v9.75h-9.75v-9.75h9.75Zm0,38.99v9.75h-9.75v-9.75h9.75Zm9.75-29.24v9.75h-9.75v-9.75h9.75Zm0,19.5v9.74h-9.75v-9.74h9.75Zm9.74-9.75v9.75h-9.74v-9.75h9.74Zm9.75-9.75v9.75h-9.75v-9.75h9.75Zm0,19.5v9.74h-9.75v-9.74h9.75Zm9.75-29.25v9.75h-9.75v-9.75h9.75Zm0,38.99v9.75h-9.75v-9.75h9.75Z"/>
          </g>
        </g>
      </g>
    </g>
  </g>
</svg>