<?xml version="1.0" encoding="utf-8" ?>
<svg baseProfile="full" height="500.0" version="1.1" width="500.0" xmlns="http://www.w3.org/2000/svg" xmlns:ev="http://www.w3.org/2001/xml-events" xmlns:xlink="http://www.w3.org/1999/xlink"><defs /><rect fill="#1e1e1e" height="200" width="200" x="0" y="0" /><rect fill="#1e1e1e" height="200" width="200" x="0" y="0" /><rect fill="#1e1e1e" height="200" width="200" x="0" y="0" /><rect fill="#1e1e1e" height="200" width="200" x="0" y="0" /><g transform="scale(1.0)"><rect fill="#1e1e1e" height="500" width="500" x="0" y="0" /><g transform="translate(25.0,25.0)"><rect fill="#232323" height="46" rx="3px" ry="3px" stroke="white" stroke-width="0.5px" width="46" x="2" y="2" /><rect fill="#373737" height="46" rx="3px" ry="3px" stroke="white" stroke-width="0.5px" width="46" x="52" y="2" /><text fill="white" font-family="Courier" font-size="18px" font-weight="bold" x="69.6" y="30.0">2</text><rect fill="#4b4b4b" height="46" rx="3px" ry="3px" stroke="white" stroke-width="0.5px" width="46" x="102" y="2" /><text fill="white" font-family="Courier" font-size="18px" font-weight="bold" x="119.6" y="30.0">4</text><rect fill="#373737" height="46" rx="3px" ry="3px" stroke="white" stroke-width="0.5px" width="46" x="152" y="2" /><text fill="white" font-family="Courier" font-size="18px" font-weight="bold" x="169.6" y="30.0">2</text><rect fill="#232323" height="46" rx="3px" ry="3px" stroke="white" stroke-width="0.5px" width="46" x="2" y="52" /><rect fill="#373737" height="46" rx="3px" ry="3px" stroke="white" stroke-width="0.5px" width="46" x="52" y="52" /><text fill="white" font-family="Courier" font-size="18px" font-weight="bold" x="69.6" y="80.0">2</text><rect fill="#232323" height="46" rx="3px" ry="3px" stroke="white" stroke-width="0.5px" width="46" x="102" y="52" /><rect fill="#232323" height="46" rx="3px" ry="3px" stroke="white" stroke-width="0.5px" width="46" x="152" y="52" /><rect fill="#232323" height="46" rx="3px" ry="3px" stroke="white" stroke-width="0.5px" width="46" x="2" y="102" /><rect fill="#232323" height="46" rx="3px" ry="3px" stroke="white" stroke-width="0.5px" width="46" x="52" y="102" /><rect fill="#232323" height="46" rx="3px" ry="3px" stroke="white" stroke-width="0.5px" width="46" x="102" y="102" /><rect fill="#232323" height="46" rx="3px" ry="3px" stroke="white" stroke-width="0.5px" width="46" x="152" y="102" /><rect fill="#232323" height="46" rx="3px" ry="3px" stroke="white" stroke-width="0.5px" width="46" x="2" y="152" /><rect fill="#232323" height="46" rx="3px" ry="3px" stroke="white" stroke-width="0.5px" width="46" x="52" y="152" /><rect fill="#232323" height="46" rx="3px" ry="3px" stroke="white" stroke-width="0.5px" width="46" x="102" y="152" /><rect fill="#232323" height="46" rx="3px" ry="3px" stroke="white" stroke-width="0.5px" width="46" x="152" y="152" /></g><rect fill="none" height="250" stroke="gray" width="250" x="0" y="0" /><g transform="translate(275.0,25.0)"><rect fill="#5f5f5f" height="46" rx="3px" ry="3px" stroke="white" stroke-width="0.5px" width="46" x="2" y="2" /><text fill="white" font-family="Courier" font-size="18px" font-weight="bold" x="19.6" y="30.0">8</text><rect fill="#4b4b4b" height="46" rx="3px" ry="3px" stroke="white" stroke-width="0.5px" width="46" x="52" y="2" /><text fill="white" font-family="Courier" font-size="18px" font-weight="bold" x="69.6" y="30.0">4</text><rect fill="#232323" height="46" rx="3px" ry="3px" stroke="white" stroke-width="0.5px" width="46" x="102" y="2" /><rect fill="#232323" height="46" rx="3px" ry="3px" stroke="white" stroke-width="0.5px" width="46" x="152" y="2" /><rect fill="#373737" height="46" rx="3px" ry="3px" stroke="white" stroke-width="0.5px" width="46" x="2" y="52" /><text fill="white" font-family="Courier" font-size="18px" font-weight="bold" x="19.6" y="80.0">2</text><rect fill="#737373" height="46" rx="3px" ry="3px" stroke="white" stroke-width="0.5px" width="46" x="52" y="52" /><text fill="white" font-family="Courier" font-size="18px" font-weight="bold" x="64.2" y="80.0">16</text><rect fill="#afafaf" height="46" rx="3px" ry="3px" stroke="white" stroke-width="0.5px" width="46" x="102" y="52" /><text fill="#323232" font-family="Courier" font-size="18px" font-weight="bold" x="108.8" y="80.0">128</text><rect fill="#373737" height="46" rx="3px" ry="3px" stroke="white" stroke-width="0.5px" width="46" x="152" y="52" /><text fill="white" font-family="Courier" font-size="18px" font-weight="bold" x="169.6" y="80.0">2</text><rect fill="#5f5f5f" height="46" rx="3px" ry="3px" stroke="white" stroke-width="0.5px" width="46" x="2" y="102" /><text fill="white" font-family="Courier" font-size="18px" font-weight="bold" x="19.6" y="130.0">8</text><rect fill="#5f5f5f" height="46" rx="3px" ry="3px" stroke="white" stroke-width="0.5px" width="46" x="52" y="102" /><text fill="white" font-family="Courier" font-size="18px" font-weight="bold" x="69.6" y="130.0">8</text><rect fill="#878787" height="46" rx="3px" ry="3px" stroke="white" stroke-width="0.5px" width="46" x="102" y="102" /><text fill="white" font-family="Courier" font-size="18px" font-weight="bold" x="114.2" y="130.0">32</text><rect fill="#232323" height="46" rx="3px" ry="3px" stroke="white" stroke-width="0.5px" width="46" x="152" y="102" /><rect fill="#4b4b4b" height="46" rx="3px" ry="3px" stroke="white" stroke-width="0.5px" width="46" x="2" y="152" /><text fill="white" font-family="Courier" font-size="18px" font-weight="bold" x="19.6" y="180.0">4</text><rect fill="#4b4b4b" height="46" rx="3px" ry="3px" stroke="white" stroke-width="0.5px" width="46" x="52" y="152" /><text fill="white" font-family="Courier" font-size="18px" font-weight="bold" x="69.6" y="180.0">4</text><rect fill="#5f5f5f" height="46" rx="3px" ry="3px" stroke="white" stroke-width="0.5px" width="46" x="102" y="152" /><text fill="white" font-family="Courier" font-size="18px" font-weight="bold" x="119.6" y="180.0">8</text><rect fill="#373737" height="46" rx="3px" ry="3px" stroke="white" stroke-width="0.5px" width="46" x="152" y="152" /><text fill="white" font-family="Courier" font-size="18px" font-weight="bold" x="169.6" y="180.0">2</text></g><rect fill="none" height="250" stroke="gray" width="250" x="250" y="0" /><g transform="translate(25.0,275.0)"><rect fill="#373737" height="46" rx="3px" ry="3px" stroke="white" stroke-width="0.5px" width="46" x="2" y="2" /><text fill="white" font-family="Courier" font-size="18px" font-weight="bold" x="19.6" y="30.0">2</text><rect fill="#5f5f5f" height="46" rx="3px" ry="3px" stroke="white" stroke-width="0.5px" width="46" x="52" y="2" /><text fill="white" font-family="Courier" font-size="18px" font-weight="bold" x="69.6" y="30.0">8</text><rect fill="#4b4b4b" height="46" rx="3px" ry="3px" stroke="white" stroke-width="0.5px" width="46" x="102" y="2" /><text fill="white" font-family="Courier" font-size="18px" font-weight="bold" x="119.6" y="30.0">4</text><rect fill="#232323" height="46" rx="3px" ry="3px" stroke="white" stroke-width="0.5px" width="46" x="152" y="2" /><rect fill="#373737" height="46" rx="3px" ry="3px" stroke="white" stroke-width="0.5px" width="46" x="2" y="52" /><text fill="white" font-family="Courier" font-size="18px" font-weight="bold" x="19.6" y="80.0">2</text><rect fill="#232323" height="46" rx="3px" ry="3px" stroke="white" stroke-width="0.5px" width="46" x="52" y="52" /><rect fill="#232323" height="46" rx="3px" ry="3px" stroke="white" stroke-width="0.5px" width="46" x="102" y="52" /><rect fill="#232323" height="46" rx="3px" ry="3px" stroke="white" stroke-width="0.5px" width="46" x="152" y="52" /><rect fill="#232323" height="46" rx="3px" ry="3px" stroke="white" stroke-width="0.5px" width="46" x="2" y="102" /><rect fill="#232323" height="46" rx="3px" ry="3px" stroke="white" stroke-width="0.5px" width="46" x="52" y="102" /><rect fill="#232323" height="46" rx="3px" ry="3px" stroke="white" stroke-width="0.5px" width="46" x="102" y="102" /><rect fill="#232323" height="46" rx="3px" ry="3px" stroke="white" stroke-width="0.5px" width="46" x="152" y="102" /><rect fill="#373737" height="46" rx="3px" ry="3px" stroke="white" stroke-width="0.5px" width="46" x="2" y="152" /><text fill="white" font-family="Courier" font-size="18px" font-weight="bold" x="19.6" y="180.0">2</text><rect fill="#232323" height="46" rx="3px" ry="3px" stroke="white" stroke-width="0.5px" width="46" x="52" y="152" /><rect fill="#232323" height="46" rx="3px" ry="3px" stroke="white" stroke-width="0.5px" width="46" x="102" y="152" /><rect fill="#373737" height="46" rx="3px" ry="3px" stroke="white" stroke-width="0.5px" width="46" x="152" y="152" /><text fill="white" font-family="Courier" font-size="18px" font-weight="bold" x="169.6" y="180.0">2</text></g><rect fill="none" height="250" stroke="gray" width="250" x="0" y="250" /><g transform="translate(275.0,275.0)"><rect fill="#4b4b4b" height="46" rx="3px" ry="3px" stroke="white" stroke-width="0.5px" width="46" x="2" y="2" /><text fill="white" font-family="Courier" font-size="18px" font-weight="bold" x="19.6" y="30.0">4</text><rect fill="#5f5f5f" height="46" rx="3px" ry="3px" stroke="white" stroke-width="0.5px" width="46" x="52" y="2" /><text fill="white" font-family="Courier" font-size="18px" font-weight="bold" x="69.6" y="30.0">8</text><rect fill="#737373" height="46" rx="3px" ry="3px" stroke="white" stroke-width="0.5px" width="46" x="102" y="2" /><text fill="white" font-family="Courier" font-size="18px" font-weight="bold" x="114.2" y="30.0">16</text><rect fill="#373737" height="46" rx="3px" ry="3px" stroke="white" stroke-width="0.5px" width="46" x="152" y="2" /><text fill="white" font-family="Courier" font-size="18px" font-weight="bold" x="169.6" y="30.0">2</text><rect fill="#5f5f5f" height="46" rx="3px" ry="3px" stroke="white" stroke-width="0.5px" width="46" x="2" y="52" /><text fill="white" font-family="Courier" font-size="18px" font-weight="bold" x="19.6" y="80.0">8</text><rect fill="#737373" height="46" rx="3px" ry="3px" stroke="white" stroke-width="0.5px" width="46" x="52" y="52" /><text fill="white" font-family="Courier" font-size="18px" font-weight="bold" x="64.2" y="80.0">16</text><rect fill="#afafaf" height="46" rx="3px" ry="3px" stroke="white" stroke-width="0.5px" width="46" x="102" y="52" /><text fill="#323232" font-family="Courier" font-size="18px" font-weight="bold" x="108.8" y="80.0">128</text><rect fill="#5f5f5f" height="46" rx="3px" ry="3px" stroke="white" stroke-width="0.5px" width="46" x="152" y="52" /><text fill="white" font-family="Courier" font-size="18px" font-weight="bold" x="169.6" y="80.0">8</text><rect fill="#232323" height="46" rx="3px" ry="3px" stroke="white" stroke-width="0.5px" width="46" x="2" y="102" /><rect fill="#373737" height="46" rx="3px" ry="3px" stroke="white" stroke-width="0.5px" width="46" x="52" y="102" /><text fill="white" font-family="Courier" font-size="18px" font-weight="bold" x="69.6" y="130.0">2</text><rect fill="#737373" height="46" rx="3px" ry="3px" stroke="white" stroke-width="0.5px" width="46" x="102" y="102" /><text fill="white" font-family="Courier" font-size="18px" font-weight="bold" x="114.2" y="130.0">16</text><rect fill="#4b4b4b" height="46" rx="3px" ry="3px" stroke="white" stroke-width="0.5px" width="46" x="152" y="102" /><text fill="white" font-family="Courier" font-size="18px" font-weight="bold" x="169.6" y="130.0">4</text><rect fill="#232323" height="46" rx="3px" ry="3px" stroke="white" stroke-width="0.5px" width="46" x="2" y="152" /><rect fill="#373737" height="46" rx="3px" ry="3px" stroke="white" stroke-width="0.5px" width="46" x="52" y="152" /><text fill="white" font-family="Courier" font-size="18px" font-weight="bold" x="69.6" y="180.0">2</text><rect fill="#373737" height="46" rx="3px" ry="3px" stroke="white" stroke-width="0.5px" width="46" x="102" y="152" /><text fill="white" font-family="Courier" font-size="18px" font-weight="bold" x="119.6" y="180.0">2</text><rect fill="#232323" height="46" rx="3px" ry="3px" stroke="white" stroke-width="0.5px" width="46" x="152" y="152" /></g><rect fill="none" height="250" stroke="gray" width="250" x="250" y="250" /></g></svg>