<?xml version="1.0" encoding="utf-8" ?>
<svg baseProfile="full" height="750.0" version="1.1" width="900.0" xmlns="http://www.w3.org/2000/svg" xmlns:ev="http://www.w3.org/2001/xml-events" xmlns:xlink="http://www.w3.org/1999/xlink"><defs /><rect fill="#1e1e1e" height="425" width="575" x="0" y="0" /><rect fill="#1e1e1e" height="425" width="575" x="0" y="0" /><rect fill="#1e1e1e" height="425" width="575" x="0" y="0" /><rect fill="#1e1e1e" height="425" width="575" x="0" y="0" /><g transform="scale(1.0)"><rect fill="#1e1e1e" height="750" width="900" x="0" y="0" /><g transform="translate(12.5,12.5)"><rect fill="#1e1e1e" height="350" stroke="gainsboro" width="325" x="0" y="0" /><rect fill="#1e1e1e" height="350" stroke="gainsboro" width="25" x="150" y="0" /><polygon fill="black" points="0,0 25,0 12.5,150" stroke="gainsboro" /><polygon fill="dimgray" points="25,0 50,0 37.5,150" stroke="gainsboro" /><polygon fill="black" points="50,0 75,0 62.5,150" stroke="gainsboro" /><polygon fill="dimgray" points="75,0 100,0 87.5,150" stroke="gainsboro" /><polygon fill="black" points="100,0 125,0 112.5,150" stroke="gainsboro" /><polygon fill="dimgray" points="125,0 150,0 137.5,150" stroke="gainsboro" /><polygon fill="black" points="175,0 200,0 187.5,150" stroke="gainsboro" /><polygon fill="dimgray" points="200,0 225,0 212.5,150" stroke="gainsboro" /><polygon fill="black" points="225,0 250,0 237.5,150" stroke="gainsboro" /><polygon fill="dimgray" points="250,0 275,0 262.5,150" stroke="gainsboro" /><polygon fill="black" points="275,0 300,0 287.5,150" stroke="gainsboro" /><polygon fill="dimgray" points="300,0 325,0 312.5,150" stroke="gainsboro" /><polygon fill="black" points="0,350 25,350 12.5,200" stroke="gainsboro" /><polygon fill="dimgray" points="25,350 50,350 37.5,200" stroke="gainsboro" /><polygon fill="black" points="50,350 75,350 62.5,200" stroke="gainsboro" /><polygon fill="dimgray" points="75,350 100,350 87.5,200" stroke="gainsboro" /><polygon fill="black" points="100,350 125,350 112.5,200" stroke="gainsboro" /><polygon fill="dimgray" points="125,350 150,350 137.5,200" stroke="gainsboro" /><polygon fill="black" points="175,350 200,350 187.5,200" stroke="gainsboro" /><polygon fill="dimgray" points="200,350 225,350 212.5,200" stroke="gainsboro" /><polygon fill="black" points="225,350 250,350 237.5,200" stroke="gainsboro" /><polygon fill="dimgray" points="250,350 275,350 262.5,200" stroke="gainsboro" /><polygon fill="black" points="275,350 300,350 287.5,200" stroke="gainsboro" /><polygon fill="dimgray" points="300,350 325,350 312.5,200" stroke="gainsboro" /><circle cx="312.5" cy="337.5" fill="black" r="12.5" stroke="gainsboro" /><circle cx="287.5" cy="337.5" fill="gray" r="12.5" stroke="gainsboro" /><circle cx="287.5" cy="312.5" fill="gray" r="12.5" stroke="gainsboro" /><circle cx="287.5" cy="287.5" fill="gray" r="12.5" stroke="gainsboro" /><circle cx="262.5" cy="337.5" fill="black" r="12.5" stroke="gainsboro" /><circle cx="212.5" cy="337.5" fill="black" r="12.5" stroke="gainsboro" /><circle cx="187.5" cy="337.5" fill="gray" r="12.5" stroke="gainsboro" /><circle cx="187.5" cy="312.5" fill="gray" r="12.5" stroke="gainsboro" /><circle cx="187.5" cy="287.5" fill="gray" r="12.5" stroke="gainsboro" /><circle cx="187.5" cy="262.5" fill="gray" r="12.5" stroke="gainsboro" /><circle cx="112.5" cy="337.5" fill="gray" r="12.5" stroke="gainsboro" /><circle cx="12.5" cy="337.5" fill="black" r="12.5" stroke="gainsboro" /><circle cx="12.5" cy="312.5" fill="black" r="12.5" stroke="gainsboro" /><circle cx="12.5" cy="287.5" fill="black" r="12.5" stroke="gainsboro" /><circle cx="12.5" cy="262.5" fill="black" r="12.5" stroke="gainsboro" /><circle cx="12.5" cy="12.5" fill="gray" r="12.5" stroke="gainsboro" /><circle cx="12.5" cy="37.5" fill="gray" r="12.5" stroke="gainsboro" /><circle cx="12.5" cy="62.5" fill="gray" r="12.5" stroke="gainsboro" /><circle cx="12.5" cy="87.5" fill="gray" r="12.5" stroke="gainsboro" /><circle cx="12.5" cy="112.5" fill="gray" r="12.5" stroke="gainsboro" /><circle cx="187.5" cy="12.5" fill="black" r="12.5" stroke="gainsboro" /><circle cx="187.5" cy="37.5" fill="black" r="12.5" stroke="gainsboro" /><circle cx="187.5" cy="62.5" fill="black" r="12.5" stroke="gainsboro" /><circle cx="187.5" cy="87.5" fill="black" r="12.5" stroke="gainsboro" /><circle cx="187.5" cy="112.5" fill="black" r="12.5" stroke="gainsboro" /><circle cx="212.5" cy="12.5" fill="gray" r="12.5" stroke="gainsboro" /><circle cx="237.5" cy="12.5" fill="black" r="12.5" stroke="gainsboro" /><circle cx="287.5" cy="12.5" fill="black" r="12.5" stroke="gainsboro" /><circle cx="287.5" cy="37.5" fill="black" r="12.5" stroke="gainsboro" /><circle cx="312.5" cy="12.5" fill="gray" r="12.5" stroke="gainsboro" /><rect fill="#1e1e1e" height="50" stroke="gainsboro" width="100" x="325" y="0" /><circle cx="350" cy="25" fill="black" r="12.5" stroke="gainsboro" /><text fill="gainsboro" font-family="serif" font-size="34px" x="365.0" y="35.0">×0</text><rect fill="#1e1e1e" height="50" stroke="gainsboro" width="100" x="325" y="300" /><circle cx="350" cy="325" fill="gray" r="12.5" stroke="gainsboro" /><text fill="gainsboro" font-family="serif" font-size="34px" x="365.0" y="335.0">×0</text></g><rect fill="none" height="375" stroke="gray" width="450" x="0" y="0" /><g transform="translate(462.5,12.5)"><rect fill="#1e1e1e" height="350" stroke="gainsboro" width="325" x="0" y="0" /><rect fill="#1e1e1e" height="350" stroke="gainsboro" width="25" x="150" y="0" /><polygon fill="black" points="0,0 25,0 12.5,150" stroke="gainsboro" /><polygon fill="dimgray" points="25,0 50,0 37.5,150" stroke="gainsboro" /><polygon fill="black" points="50,0 75,0 62.5,150" stroke="gainsboro" /><polygon fill="dimgray" points="75,0 100,0 87.5,150" stroke="gainsboro" /><polygon fill="black" points="100,0 125,0 112.5,150" stroke="gainsboro" /><polygon fill="dimgray" points="125,0 150,0 137.5,150" stroke="gainsboro" /><polygon fill="black" points="175,0 200,0 187.5,150" stroke="gainsboro" /><polygon fill="dimgray" points="200,0 225,0 212.5,150" stroke="gainsboro" /><polygon fill="black" points="225,0 250,0 237.5,150" stroke="gainsboro" /><polygon fill="dimgray" points="250,0 275,0 262.5,150" stroke="gainsboro" /><polygon fill="black" points="275,0 300,0 287.5,150" stroke="gainsboro" /><polygon fill="dimgray" points="300,0 325,0 312.5,150" stroke="gainsboro" /><polygon fill="black" points="0,350 25,350 12.5,200" stroke="gainsboro" /><polygon fill="dimgray" points="25,350 50,350 37.5,200" stroke="gainsboro" /><polygon fill="black" points="50,350 75,350 62.5,200" stroke="gainsboro" /><polygon fill="dimgray" points="75,350 100,350 87.5,200" stroke="gainsboro" /><polygon fill="black" points="100,350 125,350 112.5,200" stroke="gainsboro" /><polygon fill="dimgray" points="125,350 150,350 137.5,200" stroke="gainsboro" /><polygon fill="black" points="175,350 200,350 187.5,200" stroke="gainsboro" /><polygon fill="dimgray" points="200,350 225,350 212.5,200" stroke="gainsboro" /><polygon fill="black" points="225,350 250,350 237.5,200" stroke="gainsboro" /><polygon fill="dimgray" points="250,350 275,350 262.5,200" stroke="gainsboro" /><polygon fill="black" points="275,350 300,350 287.5,200" stroke="gainsboro" /><polygon fill="dimgray" points="300,350 325,350 312.5,200" stroke="gainsboro" /><circle cx="287.5" cy="337.5" fill="gray" r="12.5" stroke="gainsboro" /><circle cx="287.5" cy="312.5" fill="gray" r="12.5" stroke="gainsboro" /><circle cx="287.5" cy="287.5" fill="gray" r="12.5" stroke="gainsboro" /><circle cx="262.5" cy="337.5" fill="gray" r="12.5" stroke="gainsboro" /><circle cx="262.5" cy="312.5" fill="gray" r="12.5" stroke="gainsboro" /><circle cx="262.5" cy="287.5" fill="gray" r="12.5" stroke="gainsboro" /><circle cx="237.5" cy="337.5" fill="black" r="12.5" stroke="gainsboro" /><circle cx="212.5" cy="337.5" fill="black" r="12.5" stroke="gainsboro" /><circle cx="187.5" cy="337.5" fill="gray" r="12.5" stroke="gainsboro" /><circle cx="187.5" cy="312.5" fill="gray" r="12.5" stroke="gainsboro" /><circle cx="62.5" cy="337.5" fill="gray" r="12.5" stroke="gainsboro" /><circle cx="62.5" cy="312.5" fill="gray" r="12.5" stroke="gainsboro" /><circle cx="37.5" cy="337.5" fill="gray" r="12.5" stroke="gainsboro" /><circle cx="37.5" cy="312.5" fill="gray" r="12.5" stroke="gainsboro" /><circle cx="12.5" cy="337.5" fill="black" r="12.5" stroke="gainsboro" /><circle cx="12.5" cy="312.5" fill="black" r="12.5" stroke="gainsboro" /><circle cx="12.5" cy="12.5" fill="gray" r="12.5" stroke="gainsboro" /><circle cx="12.5" cy="37.5" fill="gray" r="12.5" stroke="gainsboro" /><circle cx="112.5" cy="12.5" fill="gray" r="12.5" stroke="gainsboro" /><circle cx="137.5" cy="12.5" fill="black" r="12.5" stroke="gainsboro" /><circle cx="262.5" cy="12.5" fill="black" r="12.5" stroke="gainsboro" /><circle cx="262.5" cy="37.5" fill="black" r="12.5" stroke="gainsboro" /><circle cx="262.5" cy="62.5" fill="black" r="12.5" stroke="gainsboro" /><circle cx="287.5" cy="12.5" fill="black" r="12.5" stroke="gainsboro" /><circle cx="287.5" cy="37.5" fill="black" r="12.5" stroke="gainsboro" /><circle cx="287.5" cy="62.5" fill="black" r="12.5" stroke="gainsboro" /><circle cx="287.5" cy="87.5" fill="black" r="12.5" stroke="gainsboro" /><circle cx="287.5" cy="112.5" fill="black" r="12.5" stroke="gainsboro" /><circle cx="287.5" cy="137.5" fill="black" r="12.5" stroke="gainsboro" /><circle cx="312.5" cy="12.5" fill="black" r="12.5" stroke="gainsboro" /><rect fill="#1e1e1e" height="50" stroke="gainsboro" width="100" x="325" y="0" /><circle cx="350" cy="25" fill="black" r="12.5" stroke="gainsboro" /><text fill="gainsboro" font-family="serif" font-size="34px" x="365.0" y="35.0">×0</text><rect fill="#1e1e1e" height="50" stroke="gainsboro" width="100" x="325" y="300" /><circle cx="350" cy="325" fill="gray" r="12.5" stroke="gainsboro" /><text fill="gainsboro" font-family="serif" font-size="34px" x="365.0" y="335.0">×0</text></g><rect fill="none" height="375" stroke="gray" width="450" x="450" y="0" /><g transform="translate(12.5,387.5)"><rect fill="#1e1e1e" height="350" stroke="gainsboro" width="325" x="0" y="0" /><rect fill="#1e1e1e" height="350" stroke="gainsboro" width="25" x="150" y="0" /><polygon fill="black" points="0,0 25,0 12.5,150" stroke="gainsboro" /><polygon fill="dimgray" points="25,0 50,0 37.5,150" stroke="gainsboro" /><polygon fill="black" points="50,0 75,0 62.5,150" stroke="gainsboro" /><polygon fill="dimgray" points="75,0 100,0 87.5,150" stroke="gainsboro" /><polygon fill="black" points="100,0 125,0 112.5,150" stroke="gainsboro" /><polygon fill="dimgray" points="125,0 150,0 137.5,150" stroke="gainsboro" /><polygon fill="black" points="175,0 200,0 187.5,150" stroke="gainsboro" /><polygon fill="dimgray" points="200,0 225,0 212.5,150" stroke="gainsboro" /><polygon fill="black" points="225,0 250,0 237.5,150" stroke="gainsboro" /><polygon fill="dimgray" points="250,0 275,0 262.5,150" stroke="gainsboro" /><polygon fill="black" points="275,0 300,0 287.5,150" stroke="gainsboro" /><polygon fill="dimgray" points="300,0 325,0 312.5,150" stroke="gainsboro" /><polygon fill="black" points="0,350 25,350 12.5,200" stroke="gainsboro" /><polygon fill="dimgray" points="25,350 50,350 37.5,200" stroke="gainsboro" /><polygon fill="black" points="50,350 75,350 62.5,200" stroke="gainsboro" /><polygon fill="dimgray" points="75,350 100,350 87.5,200" stroke="gainsboro" /><polygon fill="black" points="100,350 125,350 112.5,200" stroke="gainsboro" /><polygon fill="dimgray" points="125,350 150,350 137.5,200" stroke="gainsboro" /><polygon fill="black" points="175,350 200,350 187.5,200" stroke="gainsboro" /><polygon fill="dimgray" points="200,350 225,350 212.5,200" stroke="gainsboro" /><polygon fill="black" points="225,350 250,350 237.5,200" stroke="gainsboro" /><polygon fill="dimgray" points="250,350 275,350 262.5,200" stroke="gainsboro" /><polygon fill="black" points="275,350 300,350 287.5,200" stroke="gainsboro" /><polygon fill="dimgray" points="300,350 325,350 312.5,200" stroke="gainsboro" /><circle cx="312.5" cy="337.5" fill="gray" r="12.5" stroke="gainsboro" /><circle cx="287.5" cy="337.5" fill="gray" r="12.5" stroke="gainsboro" /><circle cx="287.5" cy="312.5" fill="gray" r="12.5" stroke="gainsboro" /><circle cx="287.5" cy="287.5" fill="gray" r="12.5" stroke="gainsboro" /><circle cx="287.5" cy="262.5" fill="gray" r="12.5" stroke="gainsboro" /><circle cx="287.5" cy="237.5" fill="gray" r="12.5" stroke="gainsboro" /><circle cx="287.5" cy="212.5" fill="gray" r="12.5" stroke="gainsboro" /><circle cx="262.5" cy="337.5" fill="black" r="12.5" stroke="gainsboro" /><circle cx="262.5" cy="312.5" fill="black" r="12.5" stroke="gainsboro" /><circle cx="237.5" cy="337.5" fill="gray" r="12.5" stroke="gainsboro" /><circle cx="237.5" cy="312.5" fill="gray" r="12.5" stroke="gainsboro" /><circle cx="237.5" cy="287.5" fill="gray" r="12.5" stroke="gainsboro" /><circle cx="212.5" cy="337.5" fill="black" r="12.5" stroke="gainsboro" /><circle cx="112.5" cy="337.5" fill="black" r="12.5" stroke="gainsboro" /><circle cx="87.5" cy="12.5" fill="gray" r="12.5" stroke="gainsboro" /><circle cx="187.5" cy="12.5" fill="gray" r="12.5" stroke="gainsboro" /><circle cx="212.5" cy="12.5" fill="gray" r="12.5" stroke="gainsboro" /><circle cx="237.5" cy="12.5" fill="gray" r="12.5" stroke="gainsboro" /><circle cx="237.5" cy="37.5" fill="gray" r="12.5" stroke="gainsboro" /><circle cx="262.5" cy="12.5" fill="black" r="12.5" stroke="gainsboro" /><circle cx="262.5" cy="37.5" fill="black" r="12.5" stroke="gainsboro" /><circle cx="287.5" cy="12.5" fill="black" r="12.5" stroke="gainsboro" /><circle cx="287.5" cy="37.5" fill="black" r="12.5" stroke="gainsboro" /><circle cx="287.5" cy="62.5" fill="black" r="12.5" stroke="gainsboro" /><circle cx="287.5" cy="87.5" fill="black" r="12.5" stroke="gainsboro" /><circle cx="312.5" cy="12.5" fill="black" r="12.5" stroke="gainsboro" /><circle cx="312.5" cy="37.5" fill="black" r="12.5" stroke="gainsboro" /><circle cx="312.5" cy="62.5" fill="black" r="12.5" stroke="gainsboro" /><circle cx="312.5" cy="87.5" fill="black" r="12.5" stroke="gainsboro" /><circle cx="312.5" cy="112.5" fill="black" r="12.5" stroke="gainsboro" /><rect fill="#1e1e1e" height="50" stroke="gainsboro" width="100" x="325" y="0" /><circle cx="350" cy="25" fill="black" r="12.5" stroke="gainsboro" /><text fill="gainsboro" font-family="serif" font-size="34px" x="365.0" y="35.0">×0</text><rect fill="#1e1e1e" height="50" stroke="gainsboro" width="100" x="325" y="300" /><circle cx="350" cy="325" fill="gray" r="12.5" stroke="gainsboro" /><text fill="gainsboro" font-family="serif" font-size="34px" x="365.0" y="335.0">×0</text></g><rect fill="none" height="375" stroke="gray" width="450" x="0" y="375" /><g transform="translate(462.5,387.5)"><rect fill="#1e1e1e" height="350" stroke="gainsboro" width="325" x="0" y="0" /><rect fill="#1e1e1e" height="350" stroke="gainsboro" width="25" x="150" y="0" /><polygon fill="black" points="0,0 25,0 12.5,150" stroke="gainsboro" /><polygon fill="dimgray" points="25,0 50,0 37.5,150" stroke="gainsboro" /><polygon fill="black" points="50,0 75,0 62.5,150" stroke="gainsboro" /><polygon fill="dimgray" points="75,0 100,0 87.5,150" stroke="gainsboro" /><polygon fill="black" points="100,0 125,0 112.5,150" stroke="gainsboro" /><polygon fill="dimgray" points="125,0 150,0 137.5,150" stroke="gainsboro" /><polygon fill="black" points="175,0 200,0 187.5,150" stroke="gainsboro" /><polygon fill="dimgray" points="200,0 225,0 212.5,150" stroke="gainsboro" /><polygon fill="black" points="225,0 250,0 237.5,150" stroke="gainsboro" /><polygon fill="dimgray" points="250,0 275,0 262.5,150" stroke="gainsboro" /><polygon fill="black" points="275,0 300,0 287.5,150" stroke="gainsboro" /><polygon fill="dimgray" points="300,0 325,0 312.5,150" stroke="gainsboro" /><polygon fill="black" points="0,350 25,350 12.5,200" stroke="gainsboro" /><polygon fill="dimgray" points="25,350 50,350 37.5,200" stroke="gainsboro" /><polygon fill="black" points="50,350 75,350 62.5,200" stroke="gainsboro" /><polygon fill="dimgray" points="75,350 100,350 87.5,200" stroke="gainsboro" /><polygon fill="black" points="100,350 125,350 112.5,200" stroke="gainsboro" /><polygon fill="dimgray" points="125,350 150,350 137.5,200" stroke="gainsboro" /><polygon fill="black" points="175,350 200,350 187.5,200" stroke="gainsboro" /><polygon fill="dimgray" points="200,350 225,350 212.5,200" stroke="gainsboro" /><polygon fill="black" points="225,350 250,350 237.5,200" stroke="gainsboro" /><polygon fill="dimgray" points="250,350 275,350 262.5,200" stroke="gainsboro" /><polygon fill="black" points="275,350 300,350 287.5,200" stroke="gainsboro" /><polygon fill="dimgray" points="300,350 325,350 312.5,200" stroke="gainsboro" /><circle cx="312.5" cy="337.5" fill="black" r="12.5" stroke="gainsboro" /><circle cx="312.5" cy="312.5" fill="black" r="12.5" stroke="gainsboro" /><circle cx="187.5" cy="337.5" fill="gray" r="12.5" stroke="gainsboro" /><circle cx="187.5" cy="312.5" fill="gray" r="12.5" stroke="gainsboro" /><circle cx="187.5" cy="287.5" fill="gray" r="12.5" stroke="gainsboro" /><circle cx="187.5" cy="262.5" fill="gray" r="12.5" stroke="gainsboro" /><circle cx="187.5" cy="237.5" fill="gray" r="12.5" stroke="gainsboro" /><circle cx="112.5" cy="337.5" fill="gray" r="12.5" stroke="gainsboro" /><circle cx="112.5" cy="312.5" fill="gray" r="12.5" stroke="gainsboro" /><circle cx="112.5" cy="287.5" fill="gray" r="12.5" stroke="gainsboro" /><circle cx="37.5" cy="337.5" fill="gray" r="12.5" stroke="gainsboro" /><circle cx="12.5" cy="337.5" fill="black" r="12.5" stroke="gainsboro" /><circle cx="12.5" cy="312.5" fill="black" r="12.5" stroke="gainsboro" /><circle cx="12.5" cy="287.5" fill="black" r="12.5" stroke="gainsboro" /><circle cx="12.5" cy="262.5" fill="black" r="12.5" stroke="gainsboro" /><circle cx="12.5" cy="237.5" fill="black" r="12.5" stroke="gainsboro" /><circle cx="12.5" cy="12.5" fill="gray" r="12.5" stroke="gainsboro" /><circle cx="12.5" cy="37.5" fill="gray" r="12.5" stroke="gainsboro" /><circle cx="12.5" cy="62.5" fill="gray" r="12.5" stroke="gainsboro" /><circle cx="12.5" cy="87.5" fill="gray" r="12.5" stroke="gainsboro" /><circle cx="112.5" cy="12.5" fill="black" r="12.5" stroke="gainsboro" /><circle cx="112.5" cy="37.5" fill="black" r="12.5" stroke="gainsboro" /><circle cx="112.5" cy="62.5" fill="black" r="12.5" stroke="gainsboro" /><circle cx="187.5" cy="12.5" fill="black" r="12.5" stroke="gainsboro" /><circle cx="187.5" cy="37.5" fill="black" r="12.5" stroke="gainsboro" /><circle cx="187.5" cy="62.5" fill="black" r="12.5" stroke="gainsboro" /><circle cx="187.5" cy="87.5" fill="black" r="12.5" stroke="gainsboro" /><circle cx="187.5" cy="112.5" fill="black" r="12.5" stroke="gainsboro" /><circle cx="312.5" cy="12.5" fill="gray" r="12.5" stroke="gainsboro" /><circle cx="312.5" cy="37.5" fill="gray" r="12.5" stroke="gainsboro" /><rect fill="#1e1e1e" height="50" stroke="gainsboro" width="100" x="325" y="0" /><circle cx="350" cy="25" fill="black" r="12.5" stroke="gainsboro" /><text fill="gainsboro" font-family="serif" font-size="34px" x="365.0" y="35.0">×0</text><rect fill="#1e1e1e" height="50" stroke="gainsboro" width="100" x="325" y="300" /><circle cx="350" cy="325" fill="gray" r="12.5" stroke="gainsboro" /><text fill="gainsboro" font-family="serif" font-size="34px" x="365.0" y="335.0">×0</text></g><rect fill="none" height="375" stroke="gray" width="450" x="450" y="375" /></g></svg>