<?xml version="1.0" encoding="utf-8" ?>
<svg baseProfile="full" height="560.0" version="1.1" width="560.0" xmlns="http://www.w3.org/2000/svg" xmlns:ev="http://www.w3.org/2001/xml-events" xmlns:xlink="http://www.w3.org/1999/xlink"><defs /><rect fill="white" height="245" width="245" x="0" y="0" /><rect fill="white" height="245" width="245" x="0" y="0" /><rect fill="white" height="245" width="245" x="0" y="0" /><rect fill="white" height="245" width="245" x="0" y="0" /><g transform="scale(1.0)"><rect fill="white" height="560" width="560" x="0" y="0" /><g transform="translate(17.5,17.5)"><g id="vline" stroke="gray"><line stroke-width="1px" x1="35" x2="35" y1="0" y2="210" /><line stroke-width="1px" x1="70" x2="70" y1="0" y2="210" /><line stroke-width="1px" x1="105" x2="105" y1="0" y2="210" /><line stroke-width="1px" x1="140" x2="140" y1="0" y2="210" /><line stroke-width="1px" x1="175" x2="175" y1="0" y2="210" /><line stroke-width="1px" x1="210" x2="210" y1="0" y2="210" /></g><g id="vline" stroke="gray"><line stroke-width="0.1px" x1="0" x2="245" y1="35" y2="35" /><line stroke-width="0.1px" x1="0" x2="245" y1="70" y2="70" /><line stroke-width="0.1px" x1="0" x2="245" y1="105" y2="105" /><line stroke-width="0.1px" x1="0" x2="245" y1="140" y2="140" /><line stroke-width="0.1px" x1="0" x2="245" y1="175" y2="175" /><line stroke-width="0.1px" x1="0" x2="245" y1="210" y2="210" /></g><rect fill="black" height="6" stroke="black" width="245" x="0" y="210" /><rect fill="black" height="245" stroke="black" width="6" x="-6" y="0" /><rect fill="black" height="245" stroke="black" width="6" x="245" y="0" /><circle cx="52.5" cy="192.5" fill="black" r="11.666666666666666" stroke="black" /><circle cx="227.5" cy="192.5" fill="white" r="11.666666666666666" stroke="black" /></g><rect fill="none" height="280" stroke="gray" width="280" x="0" y="0" /><g transform="translate(297.5,17.5)"><g id="vline" stroke="gray"><line stroke-width="1px" x1="35" x2="35" y1="0" y2="210" /><line stroke-width="1px" x1="70" x2="70" y1="0" y2="210" /><line stroke-width="1px" x1="105" x2="105" y1="0" y2="210" /><line stroke-width="1px" x1="140" x2="140" y1="0" y2="210" /><line stroke-width="1px" x1="175" x2="175" y1="0" y2="210" /><line stroke-width="1px" x1="210" x2="210" y1="0" y2="210" /></g><g id="vline" stroke="gray"><line stroke-width="0.1px" x1="0" x2="245" y1="35" y2="35" /><line stroke-width="0.1px" x1="0" x2="245" y1="70" y2="70" /><line stroke-width="0.1px" x1="0" x2="245" y1="105" y2="105" /><line stroke-width="0.1px" x1="0" x2="245" y1="140" y2="140" /><line stroke-width="0.1px" x1="0" x2="245" y1="175" y2="175" /><line stroke-width="0.1px" x1="0" x2="245" y1="210" y2="210" /></g><rect fill="black" height="6" stroke="black" width="245" x="0" y="210" /><rect fill="black" height="245" stroke="black" width="6" x="-6" y="0" /><rect fill="black" height="245" stroke="black" width="6" x="245" y="0" /><circle cx="17.5" cy="87.5" fill="black" r="11.666666666666666" stroke="black" /><circle cx="17.5" cy="122.5" fill="white" r="11.666666666666666" stroke="black" /><circle cx="192.5" cy="122.5" fill="white" r="11.666666666666666" stroke="black" /><circle cx="17.5" cy="157.5" fill="white" r="11.666666666666666" stroke="black" /><circle cx="52.5" cy="157.5" fill="black" r="11.666666666666666" stroke="black" /><circle cx="157.5" cy="157.5" fill="white" r="11.666666666666666" stroke="black" /><circle cx="192.5" cy="157.5" fill="white" r="11.666666666666666" stroke="black" /><circle cx="17.5" cy="192.5" fill="black" r="11.666666666666666" stroke="black" /><circle cx="52.5" cy="192.5" fill="black" r="11.666666666666666" stroke="black" /><circle cx="87.5" cy="192.5" fill="black" r="11.666666666666666" stroke="black" /><circle cx="122.5" cy="192.5" fill="white" r="11.666666666666666" stroke="black" /><circle cx="157.5" cy="192.5" fill="black" r="11.666666666666666" stroke="black" /><circle cx="192.5" cy="192.5" fill="white" r="11.666666666666666" stroke="black" /><circle cx="227.5" cy="192.5" fill="black" r="11.666666666666666" stroke="black" /></g><rect fill="none" height="280" stroke="gray" width="280" x="280" y="0" /><g transform="translate(17.5,297.5)"><g id="vline" stroke="gray"><line stroke-width="1px" x1="35" x2="35" y1="0" y2="210" /><line stroke-width="1px" x1="70" x2="70" y1="0" y2="210" /><line stroke-width="1px" x1="105" x2="105" y1="0" y2="210" /><line stroke-width="1px" x1="140" x2="140" y1="0" y2="210" /><line stroke-width="1px" x1="175" x2="175" y1="0" y2="210" /><line stroke-width="1px" x1="210" x2="210" y1="0" y2="210" /></g><g id="vline" stroke="gray"><line stroke-width="0.1px" x1="0" x2="245" y1="35" y2="35" /><line stroke-width="0.1px" x1="0" x2="245" y1="70" y2="70" /><line stroke-width="0.1px" x1="0" x2="245" y1="105" y2="105" /><line stroke-width="0.1px" x1="0" x2="245" y1="140" y2="140" /><line stroke-width="0.1px" x1="0" x2="245" y1="175" y2="175" /><line stroke-width="0.1px" x1="0" x2="245" y1="210" y2="210" /></g><rect fill="black" height="6" stroke="black" width="245" x="0" y="210" /><rect fill="black" height="245" stroke="black" width="6" x="-6" y="0" /><rect fill="black" height="245" stroke="black" width="6" x="245" y="0" /><circle cx="192.5" cy="122.5" fill="white" r="11.666666666666666" stroke="black" /><circle cx="17.5" cy="157.5" fill="black" r="11.666666666666666" stroke="black" /><circle cx="192.5" cy="157.5" fill="white" r="11.666666666666666" stroke="black" /><circle cx="17.5" cy="192.5" fill="white" r="11.666666666666666" stroke="black" /><circle cx="52.5" cy="192.5" fill="black" r="11.666666666666666" stroke="black" /><circle cx="192.5" cy="192.5" fill="black" r="11.666666666666666" stroke="black" /></g><rect fill="none" height="280" stroke="gray" width="280" x="0" y="280" /><g transform="translate(297.5,297.5)"><g id="vline" stroke="gray"><line stroke-width="1px" x1="35" x2="35" y1="0" y2="210" /><line stroke-width="1px" x1="70" x2="70" y1="0" y2="210" /><line stroke-width="1px" x1="105" x2="105" y1="0" y2="210" /><line stroke-width="1px" x1="140" x2="140" y1="0" y2="210" /><line stroke-width="1px" x1="175" x2="175" y1="0" y2="210" /><line stroke-width="1px" x1="210" x2="210" y1="0" y2="210" /></g><g id="vline" stroke="gray"><line stroke-width="0.1px" x1="0" x2="245" y1="35" y2="35" /><line stroke-width="0.1px" x1="0" x2="245" y1="70" y2="70" /><line stroke-width="0.1px" x1="0" x2="245" y1="105" y2="105" /><line stroke-width="0.1px" x1="0" x2="245" y1="140" y2="140" /><line stroke-width="0.1px" x1="0" x2="245" y1="175" y2="175" /><line stroke-width="0.1px" x1="0" x2="245" y1="210" y2="210" /></g><rect fill="black" height="6" stroke="black" width="245" x="0" y="210" /><rect fill="black" height="245" stroke="black" width="6" x="-6" y="0" /><rect fill="black" height="245" stroke="black" width="6" x="245" y="0" /><circle cx="192.5" cy="157.5" fill="white" r="11.666666666666666" stroke="black" /><circle cx="17.5" cy="192.5" fill="black" r="11.666666666666666" stroke="black" /><circle cx="52.5" cy="192.5" fill="white" r="11.666666666666666" stroke="black" /><circle cx="87.5" cy="192.5" fill="black" r="11.666666666666666" stroke="black" /><circle cx="122.5" cy="192.5" fill="black" r="11.666666666666666" stroke="black" /><circle cx="192.5" cy="192.5" fill="black" r="11.666666666666666" stroke="black" /><circle cx="227.5" cy="192.5" fill="white" r="11.666666666666666" stroke="black" /></g><rect fill="none" height="280" stroke="gray" width="280" x="280" y="280" /></g></svg>