<?xml version="1.0" encoding="utf-8" ?>
<svg baseProfile="full" height="540.0" version="1.1" width="540.0" xmlns="http://www.w3.org/2000/svg" xmlns:ev="http://www.w3.org/2001/xml-events" xmlns:xlink="http://www.w3.org/1999/xlink"><defs /><rect fill="#1e1e1e" height="240" width="240" x="0" y="0" /><rect fill="#1e1e1e" height="240" width="240" x="0" y="0" /><rect fill="#1e1e1e" height="240" width="240" x="0" y="0" /><rect fill="#1e1e1e" height="240" width="240" x="0" y="0" /><g transform="scale(1.0)"><rect fill="#1e1e1e" height="540" width="540" x="0" y="0" /><g transform="translate(15.0,15.0)"><line stroke="lightgray" stroke-width="2px" x1="60" x2="180" y1="240" y2="0" /><rect fill="#1e1e1e" height="90" rx="5px" ry="5px" stroke="lightgray" stroke-width="2px" width="60" x="0" y="0" /><text fill="lightgray" font-family="Courier" font-size="40px" x="30" y="30">Q</text><text fill="lightgray" font-family="Courier" font-size="18px" x="0" y="108.0">chip 1</text><rect fill="#1e1e1e" height="90" rx="5px" ry="5px" stroke="lightgray" stroke-width="2px" width="60" x="180" y="150" /><text fill="lightgray" font-family="Courier" font-size="40px" x="210" y="180">J</text><text fill="lightgray" font-family="Courier" font-size="18px" x="180" y="138.0">chip 0</text></g><rect fill="none" height="270" stroke="gray" width="270" x="0" y="0" /><g transform="translate(285.0,15.0)"><line stroke="lightgray" stroke-width="2px" x1="60" x2="180" y1="240" y2="0" /><rect fill="#1e1e1e" height="90" rx="5px" ry="5px" stroke="lightgray" stroke-width="2px" width="60" x="0" y="0" /><text fill="lightgray" font-family="Courier" font-size="40px" x="30" y="30">Q</text><text fill="lightgray" font-family="Courier" font-size="18px" x="0" y="108.0">chip 0</text><rect fill="#1e1e1e" height="90" rx="5px" ry="5px" stroke="lightgray" stroke-width="2px" width="60" x="180" y="150" /><text fill="lightgray" font-family="Courier" font-size="40px" x="210" y="180">J</text><text fill="lightgray" font-family="Courier" font-size="18px" x="180" y="138.0">chip 0</text></g><rect fill="none" height="270" stroke="gray" width="270" x="270" y="0" /><g transform="translate(15.0,285.0)"><line stroke="lightgray" stroke-width="2px" x1="60" x2="180" y1="240" y2="0" /><rect fill="#1e1e1e" height="90" rx="5px" ry="5px" stroke="lightgray" stroke-width="2px" width="60" x="0" y="0" /><text fill="lightgray" font-family="Courier" font-size="40px" x="30" y="30">K</text><text fill="lightgray" font-family="Courier" font-size="18px" x="0" y="108.0">chip 0</text><rect fill="#1e1e1e" height="90" rx="5px" ry="5px" stroke="lightgray" stroke-width="2px" width="60" x="180" y="150" /><text fill="lightgray" font-family="Courier" font-size="40px" x="210" y="180">J</text><text fill="lightgray" font-family="Courier" font-size="18px" x="180" y="138.0">chip 1</text></g><rect fill="none" height="270" stroke="gray" width="270" x="0" y="270" /><g transform="translate(285.0,285.0)"><line stroke="lightgray" stroke-width="2px" x1="60" x2="180" y1="240" y2="0" /><rect fill="#1e1e1e" height="90" rx="5px" ry="5px" stroke="lightgray" stroke-width="2px" width="60" x="0" y="0" /><text fill="lightgray" font-family="Courier" font-size="40px" x="30" y="30">Q</text><text fill="lightgray" font-family="Courier" font-size="18px" x="0" y="108.0">chip 0</text><rect fill="#1e1e1e" height="90" rx="5px" ry="5px" stroke="lightgray" stroke-width="2px" width="60" x="180" y="150" /><text fill="lightgray" font-family="Courier" font-size="40px" x="210" y="180">J</text><text fill="lightgray" font-family="Courier" font-size="18px" x="180" y="138.0">chip 1</text></g><rect fill="none" height="270" stroke="gray" width="270" x="270" y="270" /></g></svg>