<?xml version="1.0" encoding="utf-8" ?>
<svg baseProfile="full" height="540.0" version="1.1" width="540.0" xmlns="http://www.w3.org/2000/svg" xmlns:ev="http://www.w3.org/2001/xml-events" xmlns:xlink="http://www.w3.org/1999/xlink"><defs /><rect fill="white" height="240" width="240" x="0" y="0" /><rect fill="white" height="240" width="240" x="0" y="0" /><rect fill="white" height="240" width="240" x="0" y="0" /><rect fill="white" height="240" width="240" x="0" y="0" /><g transform="scale(1.0)"><rect fill="white" height="540" width="540" x="0" y="0" /><g transform="translate(15.0,15.0)"><rect fill="white" height="90" rx="5px" ry="5px" stroke="black" stroke-width="2px" width="60" x="0" y="120" /><text font-family="Courier" font-size="40px" x="30" y="150">J</text><text font-family="Courier" font-size="18px" x="0" y="228.0">chip +1</text><rect fill="white" height="90" rx="5px" ry="5px" stroke="black" stroke-width="2px" width="60" x="180" y="120" /><text font-family="Courier" font-size="40px" x="210" y="150">J</text><text font-family="Courier" font-size="18px" x="170" y="228.0">chip +1</text><line stroke="black" stroke-width="2px" x1="0" x2="240" y1="105.0" y2="105.0" /><rect fill="white" height="90" rx="5px" ry="5px" stroke="gray" stroke-width="2px" width="60" x="90" y="0" /><text fill="gray" font-family="Courier" font-size="40px" x="120" y="30">Q</text></g><rect fill="none" height="270" stroke="gray" width="270" x="0" y="0" /><g transform="translate(285.0,15.0)"><rect fill="white" height="90" rx="5px" ry="5px" stroke="black" stroke-width="2px" width="60" x="0" y="120" /><text font-family="Courier" font-size="40px" x="30" y="150">K</text><text font-family="Courier" font-size="18px" x="0" y="228.0">chip +3</text><rect fill="white" height="90" rx="5px" ry="5px" stroke="black" stroke-width="2px" width="60" x="180" y="120" /><text font-family="Courier" font-size="40px" x="210" y="150">J</text><text font-family="Courier" font-size="18px" x="170" y="228.0">chip +1</text><line stroke="black" stroke-width="2px" x1="0" x2="240" y1="105.0" y2="105.0" /><rect fill="white" height="90" rx="5px" ry="5px" stroke="gray" stroke-width="2px" width="60" x="90" y="0" /><text fill="gray" font-family="Courier" font-size="40px" x="120" y="30">K</text></g><rect fill="none" height="270" stroke="gray" width="270" x="270" y="0" /><g transform="translate(15.0,285.0)"><rect fill="white" height="90" rx="5px" ry="5px" stroke="black" stroke-width="2px" width="60" x="0" y="120" /><text font-family="Courier" font-size="40px" x="30" y="150">K</text><text font-family="Courier" font-size="18px" x="0" y="228.0">chip +3</text><rect fill="white" height="90" rx="5px" ry="5px" stroke="black" stroke-width="2px" width="60" x="180" y="120" /><text font-family="Courier" font-size="40px" x="210" y="150">J</text><text font-family="Courier" font-size="18px" x="170" y="228.0">chip +3</text><line stroke="black" stroke-width="2px" x1="0" x2="240" y1="105.0" y2="105.0" /><rect fill="white" height="90" rx="5px" ry="5px" stroke="black" stroke-width="2px" width="60" x="90" y="0" /><text fill="black" font-family="Courier" font-size="40px" x="120" y="30">J</text></g><rect fill="none" height="270" stroke="gray" width="270" x="0" y="270" /><g transform="translate(285.0,285.0)"><rect fill="white" height="90" rx="5px" ry="5px" stroke="black" stroke-width="2px" width="60" x="0" y="120" /><text font-family="Courier" font-size="40px" x="30" y="150">Q</text><text font-family="Courier" font-size="18px" x="0" y="228.0">chip +11</text><rect fill="white" height="90" rx="5px" ry="5px" stroke="black" stroke-width="2px" width="60" x="180" y="120" /><text font-family="Courier" font-size="40px" x="210" y="150">Q</text><text font-family="Courier" font-size="18px" x="170" y="228.0">chip +7</text><line stroke="black" stroke-width="2px" x1="0" x2="240" y1="105.0" y2="105.0" /><rect fill="white" height="90" rx="5px" ry="5px" stroke="black" stroke-width="2px" width="60" x="90" y="0" /><text fill="black" font-family="Courier" font-size="40px" x="120" y="30">J</text></g><rect fill="none" height="270" stroke="gray" width="270" x="270" y="270" /></g></svg>