<?xml version="1.0" encoding="utf-8" ?>
<svg baseProfile="full" height="540.0" version="1.1" width="540.0" xmlns="http://www.w3.org/2000/svg" xmlns:ev="http://www.w3.org/2001/xml-events" xmlns:xlink="http://www.w3.org/1999/xlink"><defs /><rect fill="white" height="240" width="240" x="0" y="0" /><rect fill="white" height="240" width="240" x="0" y="0" /><rect fill="white" height="240" width="240" x="0" y="0" /><rect fill="white" height="240" width="240" x="0" y="0" /><g transform="scale(1.0)"><rect fill="white" height="540" width="540" x="0" y="0" /><g transform="translate(15.0,15.0)"><rect fill="none" height="240" rx="3px" ry="3px" stroke="black" stroke-width="20px" width="240" x="0" y="0" /><rect fill="white" height="240" stroke="black" width="240" x="0" y="0" /><g id="hlines" stroke="black"><line stroke-width="0.5px" x1="0" x2="240" y1="0" y2="0" /><line stroke-width="0.5px" x1="0" x2="240" y1="30" y2="30" /><line stroke-width="0.5px" x1="0" x2="240" y1="60" y2="60" /><line stroke-width="0.5px" x1="0" x2="240" y1="90" y2="90" /><line stroke-width="0.5px" x1="0" x2="240" y1="120" y2="120" /><line stroke-width="0.5px" x1="0" x2="240" y1="150" y2="150" /><line stroke-width="0.5px" x1="0" x2="240" y1="180" y2="180" /><line stroke-width="0.5px" x1="0" x2="240" y1="210" y2="210" /></g><g id="vline" stroke="black"><line stroke-width="0.5px" x1="0" x2="0" y1="0" y2="240" /><line stroke-width="0.5px" x1="30" x2="30" y1="0" y2="240" /><line stroke-width="0.5px" x1="60" x2="60" y1="0" y2="240" /><line stroke-width="0.5px" x1="90" x2="90" y1="0" y2="240" /><line stroke-width="0.5px" x1="120" x2="120" y1="0" y2="240" /><line stroke-width="0.5px" x1="150" x2="150" y1="0" y2="240" /><line stroke-width="0.5px" x1="180" x2="180" y1="0" y2="240" /><line stroke-width="0.5px" x1="210" x2="210" y1="0" y2="240" /></g><g><circle cx="60" cy="60" fill="black" r="3.0" /><circle cx="60" cy="180" fill="black" r="3.0" /><circle cx="180" cy="60" fill="black" r="3.0" /><circle cx="180" cy="180" fill="black" r="3.0" /></g><circle cx="45.0" cy="15.0" fill="black" r="12.5" stroke="black" /><circle cx="105.0" cy="15.0" fill="white" r="12.5" stroke="black" /><circle cx="195.0" cy="15.0" fill="white" r="12.5" stroke="black" /><circle cx="225.0" cy="15.0" fill="black" r="12.5" stroke="black" /><circle cx="75.0" cy="45.0" fill="black" r="12.5" stroke="black" /><circle cx="105.0" cy="45.0" fill="white" r="12.5" stroke="black" /><circle cx="135.0" cy="45.0" fill="white" r="12.5" stroke="black" /><circle cx="165.0" cy="45.0" fill="white" r="12.5" stroke="black" /><circle cx="195.0" cy="45.0" fill="white" r="12.5" stroke="black" /><circle cx="225.0" cy="45.0" fill="white" r="12.5" stroke="black" /><circle cx="15.0" cy="75.0" fill="white" r="12.5" stroke="black" /><circle cx="45.0" cy="75.0" fill="black" r="12.5" stroke="black" /><circle cx="75.0" cy="75.0" fill="white" r="12.5" stroke="black" /><circle cx="105.0" cy="75.0" fill="white" r="12.5" stroke="black" /><circle cx="135.0" cy="75.0" fill="white" r="12.5" stroke="black" /><circle cx="165.0" cy="75.0" fill="black" r="12.5" stroke="black" /><circle cx="195.0" cy="75.0" fill="white" r="12.5" stroke="black" /><circle cx="225.0" cy="75.0" fill="black" r="12.5" stroke="black" /><circle cx="15.0" cy="105.0" fill="black" r="12.5" stroke="black" /><circle cx="45.0" cy="105.0" fill="black" r="12.5" stroke="black" /><circle cx="75.0" cy="105.0" fill="black" r="12.5" stroke="black" /><circle cx="105.0" cy="105.0" fill="white" r="12.5" stroke="black" /><circle cx="135.0" cy="105.0" fill="black" r="12.5" stroke="black" /><circle cx="165.0" cy="105.0" fill="white" r="12.5" stroke="black" /><circle cx="195.0" cy="105.0" fill="white" r="12.5" stroke="black" /><circle cx="45.0" cy="135.0" fill="black" r="12.5" stroke="black" /><circle cx="75.0" cy="135.0" fill="black" r="12.5" stroke="black" /><circle cx="105.0" cy="135.0" fill="white" r="12.5" stroke="black" /><circle cx="135.0" cy="135.0" fill="black" r="12.5" stroke="black" /><circle cx="165.0" cy="135.0" fill="white" r="12.5" stroke="black" /><circle cx="195.0" cy="135.0" fill="white" r="12.5" stroke="black" /><circle cx="225.0" cy="135.0" fill="white" r="12.5" stroke="black" /><circle cx="15.0" cy="165.0" fill="black" r="12.5" stroke="black" /><circle cx="45.0" cy="165.0" fill="black" r="12.5" stroke="black" /><circle cx="75.0" cy="165.0" fill="black" r="12.5" stroke="black" /><circle cx="105.0" cy="165.0" fill="white" r="12.5" stroke="black" /><circle cx="135.0" cy="165.0" fill="white" r="12.5" stroke="black" /><circle cx="165.0" cy="165.0" fill="white" r="12.5" stroke="black" /><circle cx="45.0" cy="195.0" fill="white" r="12.5" stroke="black" /><circle cx="75.0" cy="195.0" fill="white" r="12.5" stroke="black" /><circle cx="105.0" cy="195.0" fill="white" r="12.5" stroke="black" /><circle cx="135.0" cy="195.0" fill="white" r="12.5" stroke="black" /><circle cx="165.0" cy="195.0" fill="white" r="12.5" stroke="black" /><circle cx="195.0" cy="195.0" fill="white" r="12.5" stroke="black" /></g><rect fill="none" height="270" stroke="gray" width="270" x="0" y="0" /><g transform="translate(285.0,15.0)"><rect fill="none" height="240" rx="3px" ry="3px" stroke="black" stroke-width="20px" width="240" x="0" y="0" /><rect fill="white" height="240" stroke="black" width="240" x="0" y="0" /><g id="hlines" stroke="black"><line stroke-width="0.5px" x1="0" x2="240" y1="0" y2="0" /><line stroke-width="0.5px" x1="0" x2="240" y1="30" y2="30" /><line stroke-width="0.5px" x1="0" x2="240" y1="60" y2="60" /><line stroke-width="0.5px" x1="0" x2="240" y1="90" y2="90" /><line stroke-width="0.5px" x1="0" x2="240" y1="120" y2="120" /><line stroke-width="0.5px" x1="0" x2="240" y1="150" y2="150" /><line stroke-width="0.5px" x1="0" x2="240" y1="180" y2="180" /><line stroke-width="0.5px" x1="0" x2="240" y1="210" y2="210" /></g><g id="vline" stroke="black"><line stroke-width="0.5px" x1="0" x2="0" y1="0" y2="240" /><line stroke-width="0.5px" x1="30" x2="30" y1="0" y2="240" /><line stroke-width="0.5px" x1="60" x2="60" y1="0" y2="240" /><line stroke-width="0.5px" x1="90" x2="90" y1="0" y2="240" /><line stroke-width="0.5px" x1="120" x2="120" y1="0" y2="240" /><line stroke-width="0.5px" x1="150" x2="150" y1="0" y2="240" /><line stroke-width="0.5px" x1="180" x2="180" y1="0" y2="240" /><line stroke-width="0.5px" x1="210" x2="210" y1="0" y2="240" /></g><g><circle cx="60" cy="60" fill="black" r="3.0" /><circle cx="60" cy="180" fill="black" r="3.0" /><circle cx="180" cy="60" fill="black" r="3.0" /><circle cx="180" cy="180" fill="black" r="3.0" /></g><circle cx="15.0" cy="15.0" fill="white" r="12.5" stroke="black" /><circle cx="45.0" cy="15.0" fill="white" r="12.5" stroke="black" /><circle cx="75.0" cy="15.0" fill="white" r="12.5" stroke="black" /><circle cx="105.0" cy="15.0" fill="white" r="12.5" stroke="black" /><circle cx="15.0" cy="45.0" fill="white" r="12.5" stroke="black" /><circle cx="45.0" cy="45.0" fill="white" r="12.5" stroke="black" /><circle cx="75.0" cy="45.0" fill="white" r="12.5" stroke="black" /><circle cx="105.0" cy="45.0" fill="white" r="12.5" stroke="black" /><circle cx="165.0" cy="45.0" fill="white" r="12.5" stroke="black" /><circle cx="195.0" cy="45.0" fill="black" r="12.5" stroke="black" /><circle cx="45.0" cy="75.0" fill="white" r="12.5" stroke="black" /><circle cx="75.0" cy="75.0" fill="white" r="12.5" stroke="black" /><circle cx="105.0" cy="75.0" fill="white" r="12.5" stroke="black" /><circle cx="135.0" cy="75.0" fill="black" r="12.5" stroke="black" /><circle cx="165.0" cy="75.0" fill="black" r="12.5" stroke="black" /><circle cx="15.0" cy="105.0" fill="black" r="12.5" stroke="black" /><circle cx="45.0" cy="105.0" fill="white" r="12.5" stroke="black" /><circle cx="75.0" cy="105.0" fill="black" r="12.5" stroke="black" /><circle cx="105.0" cy="105.0" fill="white" r="12.5" stroke="black" /><circle cx="135.0" cy="105.0" fill="white" r="12.5" stroke="black" /><circle cx="165.0" cy="105.0" fill="black" r="12.5" stroke="black" /><circle cx="195.0" cy="105.0" fill="black" r="12.5" stroke="black" /><circle cx="15.0" cy="135.0" fill="black" r="12.5" stroke="black" /><circle cx="45.0" cy="135.0" fill="white" r="12.5" stroke="black" /><circle cx="75.0" cy="135.0" fill="white" r="12.5" stroke="black" /><circle cx="105.0" cy="135.0" fill="white" r="12.5" stroke="black" /><circle cx="135.0" cy="135.0" fill="black" r="12.5" stroke="black" /><circle cx="165.0" cy="135.0" fill="white" r="12.5" stroke="black" /><circle cx="195.0" cy="135.0" fill="black" r="12.5" stroke="black" /><circle cx="45.0" cy="165.0" fill="white" r="12.5" stroke="black" /><circle cx="75.0" cy="165.0" fill="black" r="12.5" stroke="black" /><circle cx="105.0" cy="165.0" fill="black" r="12.5" stroke="black" /><circle cx="135.0" cy="165.0" fill="black" r="12.5" stroke="black" /><circle cx="165.0" cy="165.0" fill="black" r="12.5" stroke="black" /><circle cx="195.0" cy="165.0" fill="white" r="12.5" stroke="black" /><circle cx="225.0" cy="165.0" fill="black" r="12.5" stroke="black" /><circle cx="15.0" cy="195.0" fill="white" r="12.5" stroke="black" /><circle cx="75.0" cy="195.0" fill="black" r="12.5" stroke="black" /><circle cx="105.0" cy="195.0" fill="black" r="12.5" stroke="black" /><circle cx="135.0" cy="195.0" fill="white" r="12.5" stroke="black" /><circle cx="165.0" cy="195.0" fill="white" r="12.5" stroke="black" /><circle cx="225.0" cy="195.0" fill="white" r="12.5" stroke="black" /><circle cx="135.0" cy="225.0" fill="white" r="12.5" stroke="black" /><circle cx="195.0" cy="225.0" fill="white" r="12.5" stroke="black" /></g><rect fill="none" height="270" stroke="gray" width="270" x="270" y="0" /><g transform="translate(15.0,285.0)"><rect fill="none" height="240" rx="3px" ry="3px" stroke="black" stroke-width="20px" width="240" x="0" y="0" /><rect fill="white" height="240" stroke="black" width="240" x="0" y="0" /><g id="hlines" stroke="black"><line stroke-width="0.5px" x1="0" x2="240" y1="0" y2="0" /><line stroke-width="0.5px" x1="0" x2="240" y1="30" y2="30" /><line stroke-width="0.5px" x1="0" x2="240" y1="60" y2="60" /><line stroke-width="0.5px" x1="0" x2="240" y1="90" y2="90" /><line stroke-width="0.5px" x1="0" x2="240" y1="120" y2="120" /><line stroke-width="0.5px" x1="0" x2="240" y1="150" y2="150" /><line stroke-width="0.5px" x1="0" x2="240" y1="180" y2="180" /><line stroke-width="0.5px" x1="0" x2="240" y1="210" y2="210" /></g><g id="vline" stroke="black"><line stroke-width="0.5px" x1="0" x2="0" y1="0" y2="240" /><line stroke-width="0.5px" x1="30" x2="30" y1="0" y2="240" /><line stroke-width="0.5px" x1="60" x2="60" y1="0" y2="240" /><line stroke-width="0.5px" x1="90" x2="90" y1="0" y2="240" /><line stroke-width="0.5px" x1="120" x2="120" y1="0" y2="240" /><line stroke-width="0.5px" x1="150" x2="150" y1="0" y2="240" /><line stroke-width="0.5px" x1="180" x2="180" y1="0" y2="240" /><line stroke-width="0.5px" x1="210" x2="210" y1="0" y2="240" /></g><g><circle cx="60" cy="60" fill="black" r="3.0" /><circle cx="60" cy="180" fill="black" r="3.0" /><circle cx="180" cy="60" fill="black" r="3.0" /><circle cx="180" cy="180" fill="black" r="3.0" /></g><circle cx="15.0" cy="15.0" fill="white" r="12.5" stroke="black" /><circle cx="45.0" cy="15.0" fill="white" r="12.5" stroke="black" /><circle cx="75.0" cy="15.0" fill="black" r="12.5" stroke="black" /><circle cx="105.0" cy="15.0" fill="black" r="12.5" stroke="black" /><circle cx="135.0" cy="15.0" fill="black" r="12.5" stroke="black" /><circle cx="165.0" cy="15.0" fill="black" r="12.5" stroke="black" /><circle cx="195.0" cy="15.0" fill="black" r="12.5" stroke="black" /><circle cx="15.0" cy="45.0" fill="black" r="12.5" stroke="black" /><circle cx="45.0" cy="45.0" fill="white" r="12.5" stroke="black" /><circle cx="75.0" cy="45.0" fill="white" r="12.5" stroke="black" /><circle cx="105.0" cy="45.0" fill="black" r="12.5" stroke="black" /><circle cx="135.0" cy="45.0" fill="black" r="12.5" stroke="black" /><circle cx="45.0" cy="75.0" fill="white" r="12.5" stroke="black" /><circle cx="75.0" cy="75.0" fill="black" r="12.5" stroke="black" /><circle cx="105.0" cy="75.0" fill="white" r="12.5" stroke="black" /><circle cx="135.0" cy="75.0" fill="black" r="12.5" stroke="black" /><circle cx="165.0" cy="75.0" fill="black" r="12.5" stroke="black" /><circle cx="15.0" cy="105.0" fill="white" r="12.5" stroke="black" /><circle cx="45.0" cy="105.0" fill="black" r="12.5" stroke="black" /><circle cx="75.0" cy="105.0" fill="white" r="12.5" stroke="black" /><circle cx="105.0" cy="105.0" fill="white" r="12.5" stroke="black" /><circle cx="135.0" cy="105.0" fill="black" r="12.5" stroke="black" /><circle cx="165.0" cy="105.0" fill="black" r="12.5" stroke="black" /><circle cx="15.0" cy="135.0" fill="white" r="12.5" stroke="black" /><circle cx="45.0" cy="135.0" fill="black" r="12.5" stroke="black" /><circle cx="75.0" cy="135.0" fill="black" r="12.5" stroke="black" /><circle cx="105.0" cy="135.0" fill="black" r="12.5" stroke="black" /><circle cx="135.0" cy="135.0" fill="white" r="12.5" stroke="black" /><circle cx="165.0" cy="135.0" fill="black" r="12.5" stroke="black" /><circle cx="195.0" cy="135.0" fill="black" r="12.5" stroke="black" /><circle cx="15.0" cy="165.0" fill="white" r="12.5" stroke="black" /><circle cx="45.0" cy="165.0" fill="white" r="12.5" stroke="black" /><circle cx="75.0" cy="165.0" fill="black" r="12.5" stroke="black" /><circle cx="105.0" cy="165.0" fill="black" r="12.5" stroke="black" /><circle cx="135.0" cy="165.0" fill="black" r="12.5" stroke="black" /><circle cx="165.0" cy="165.0" fill="white" r="12.5" stroke="black" /><circle cx="15.0" cy="195.0" fill="white" r="12.5" stroke="black" /><circle cx="45.0" cy="195.0" fill="black" r="12.5" stroke="black" /><circle cx="75.0" cy="195.0" fill="black" r="12.5" stroke="black" /><circle cx="105.0" cy="195.0" fill="black" r="12.5" stroke="black" /><circle cx="135.0" cy="195.0" fill="black" r="12.5" stroke="black" /><circle cx="195.0" cy="195.0" fill="white" r="12.5" stroke="black" /><circle cx="75.0" cy="225.0" fill="black" r="12.5" stroke="black" /><circle cx="135.0" cy="225.0" fill="black" r="12.5" stroke="black" /></g><rect fill="none" height="270" stroke="gray" width="270" x="0" y="270" /><g transform="translate(285.0,285.0)"><rect fill="none" height="240" rx="3px" ry="3px" stroke="black" stroke-width="20px" width="240" x="0" y="0" /><rect fill="white" height="240" stroke="black" width="240" x="0" y="0" /><g id="hlines" stroke="black"><line stroke-width="0.5px" x1="0" x2="240" y1="0" y2="0" /><line stroke-width="0.5px" x1="0" x2="240" y1="30" y2="30" /><line stroke-width="0.5px" x1="0" x2="240" y1="60" y2="60" /><line stroke-width="0.5px" x1="0" x2="240" y1="90" y2="90" /><line stroke-width="0.5px" x1="0" x2="240" y1="120" y2="120" /><line stroke-width="0.5px" x1="0" x2="240" y1="150" y2="150" /><line stroke-width="0.5px" x1="0" x2="240" y1="180" y2="180" /><line stroke-width="0.5px" x1="0" x2="240" y1="210" y2="210" /></g><g id="vline" stroke="black"><line stroke-width="0.5px" x1="0" x2="0" y1="0" y2="240" /><line stroke-width="0.5px" x1="30" x2="30" y1="0" y2="240" /><line stroke-width="0.5px" x1="60" x2="60" y1="0" y2="240" /><line stroke-width="0.5px" x1="90" x2="90" y1="0" y2="240" /><line stroke-width="0.5px" x1="120" x2="120" y1="0" y2="240" /><line stroke-width="0.5px" x1="150" x2="150" y1="0" y2="240" /><line stroke-width="0.5px" x1="180" x2="180" y1="0" y2="240" /><line stroke-width="0.5px" x1="210" x2="210" y1="0" y2="240" /></g><g><circle cx="60" cy="60" fill="black" r="3.0" /><circle cx="60" cy="180" fill="black" r="3.0" /><circle cx="180" cy="60" fill="black" r="3.0" /><circle cx="180" cy="180" fill="black" r="3.0" /></g><circle cx="75.0" cy="15.0" fill="white" r="12.5" stroke="black" /><circle cx="105.0" cy="15.0" fill="white" r="12.5" stroke="black" /><circle cx="135.0" cy="15.0" fill="white" r="12.5" stroke="black" /><circle cx="165.0" cy="15.0" fill="white" r="12.5" stroke="black" /><circle cx="195.0" cy="15.0" fill="white" r="12.5" stroke="black" /><circle cx="15.0" cy="45.0" fill="white" r="12.5" stroke="black" /><circle cx="45.0" cy="45.0" fill="white" r="12.5" stroke="black" /><circle cx="75.0" cy="45.0" fill="white" r="12.5" stroke="black" /><circle cx="105.0" cy="45.0" fill="white" r="12.5" stroke="black" /><circle cx="135.0" cy="45.0" fill="black" r="12.5" stroke="black" /><circle cx="165.0" cy="45.0" fill="white" r="12.5" stroke="black" /><circle cx="195.0" cy="45.0" fill="white" r="12.5" stroke="black" /><circle cx="225.0" cy="45.0" fill="black" r="12.5" stroke="black" /><circle cx="15.0" cy="75.0" fill="white" r="12.5" stroke="black" /><circle cx="45.0" cy="75.0" fill="white" r="12.5" stroke="black" /><circle cx="75.0" cy="75.0" fill="black" r="12.5" stroke="black" /><circle cx="105.0" cy="75.0" fill="black" r="12.5" stroke="black" /><circle cx="135.0" cy="75.0" fill="white" r="12.5" stroke="black" /><circle cx="165.0" cy="75.0" fill="white" r="12.5" stroke="black" /><circle cx="195.0" cy="75.0" fill="black" r="12.5" stroke="black" /><circle cx="225.0" cy="75.0" fill="black" r="12.5" stroke="black" /><circle cx="15.0" cy="105.0" fill="white" r="12.5" stroke="black" /><circle cx="75.0" cy="105.0" fill="white" r="12.5" stroke="black" /><circle cx="105.0" cy="105.0" fill="black" r="12.5" stroke="black" /><circle cx="135.0" cy="105.0" fill="black" r="12.5" stroke="black" /><circle cx="165.0" cy="105.0" fill="white" r="12.5" stroke="black" /><circle cx="195.0" cy="105.0" fill="black" r="12.5" stroke="black" /><circle cx="225.0" cy="105.0" fill="black" r="12.5" stroke="black" /><circle cx="45.0" cy="135.0" fill="white" r="12.5" stroke="black" /><circle cx="75.0" cy="135.0" fill="white" r="12.5" stroke="black" /><circle cx="105.0" cy="135.0" fill="white" r="12.5" stroke="black" /><circle cx="135.0" cy="135.0" fill="black" r="12.5" stroke="black" /><circle cx="165.0" cy="135.0" fill="white" r="12.5" stroke="black" /><circle cx="195.0" cy="135.0" fill="white" r="12.5" stroke="black" /><circle cx="225.0" cy="135.0" fill="black" r="12.5" stroke="black" /><circle cx="15.0" cy="165.0" fill="black" r="12.5" stroke="black" /><circle cx="75.0" cy="165.0" fill="black" r="12.5" stroke="black" /><circle cx="105.0" cy="165.0" fill="black" r="12.5" stroke="black" /><circle cx="135.0" cy="165.0" fill="white" r="12.5" stroke="black" /><circle cx="165.0" cy="165.0" fill="white" r="12.5" stroke="black" /><circle cx="225.0" cy="165.0" fill="white" r="12.5" stroke="black" /><circle cx="45.0" cy="195.0" fill="black" r="12.5" stroke="black" /><circle cx="75.0" cy="195.0" fill="black" r="12.5" stroke="black" /><circle cx="165.0" cy="195.0" fill="white" r="12.5" stroke="black" /></g><rect fill="none" height="270" stroke="gray" width="270" x="270" y="270" /></g></svg>